<?xml version="1.0" standalone="no"?>
<!DOCTYPE svg PUBLIC "-//W3C//DTD SVG 20010904//EN"
 "http://www.w3.org/TR/2001/REC-SVG-20010904/DTD/svg10.dtd">
<svg version="1.0" xmlns="http://www.w3.org/2000/svg"
 width="182.000000pt" height="83.000000pt" viewBox="0 0 182.000000 83.000000"
 preserveAspectRatio="xMidYMid meet">

<g transform="translate(0.000000,83.000000) scale(0.100000,-0.100000)"
fill="#000000" stroke="none">
<path d="M835 756 c-41 -18 -82 -68 -95 -116 -22 -80 24 -165 105 -196 81 -30
167 4 205 82 26 53 25 99 -2 154 -38 75 -136 110 -213 76z"/>
<path d="M392 585 c-63 -28 -79 -126 -28 -174 75 -70 186 -26 186 75 0 84 -81
134 -158 99z"/>
<path d="M1313 585 c-35 -15 -63 -60 -63 -100 0 -95 118 -143 189 -76 54 51
39 141 -29 176 -35 18 -55 18 -97 0z"/>
<path d="M750 361 c-142 -39 -190 -93 -190 -216 l0 -55 341 0 341 0 -4 78 c-3
62 -8 83 -28 110 -65 87 -293 128 -460 83z"/>
<path d="M332 295 c-85 -26 -92 -35 -92 -125 l0 -80 115 0 115 0 0 64 c0 35 7
83 15 106 8 23 15 44 15 46 0 10 -130 1 -168 -11z"/>
<path d="M1310 302 c0 -6 5 -23 10 -38 9 -23 16 -81 19 -151 1 -23 3 -23 126
-23 l125 0 0 51 c0 73 -22 113 -78 139 -52 25 -202 41 -202 22z"/>
</g>
</svg>
