<?xml version="1.0" encoding="UTF-8"?>
<!DOCTYPE svg PUBLIC "-//W3C//DTD SVG 1.1//EN" "http://www.w3.org/Graphics/SVG/1.1/DTD/svg11.dtd">
<svg xmlns="http://www.w3.org/2000/svg" version="1.1" width="1396px" height="1400px" style="shape-rendering:geometricPrecision; text-rendering:geometricPrecision; image-rendering:optimizeQuality; fill-rule:evenodd; clip-rule:evenodd" xmlns:xlink="http://www.w3.org/1999/xlink">
<g><path style="opacity:1" fill="#274d83" d="M -0.5,-0.5 C 464.833,-0.5 930.167,-0.5 1395.5,-0.5C 1395.5,466.167 1395.5,932.833 1395.5,1399.5C 930.167,1399.5 464.833,1399.5 -0.5,1399.5C -0.5,932.833 -0.5,466.167 -0.5,-0.5 Z"/></g>
<g><path style="opacity:1" fill="#fcfcfd" d="M 1010.5,168.5 C 1023.86,169.046 1029.36,176.046 1027,189.5C 999.547,338.321 972.881,487.321 947,636.5C 944.43,645.398 938.597,648.898 929.5,647C 891.833,630.833 854.167,614.667 816.5,598.5C 789.192,633.77 762.359,669.437 736,705.5C 728.107,711.29 720.773,710.623 714,703.5C 713.311,699.349 711.645,695.683 709,692.5C 692.245,641.233 674.911,590.233 657,539.5C 606.773,521.757 556.273,504.59 505.5,488C 495.902,483.97 493.068,477.137 497,467.5C 499.205,464.96 501.705,462.793 504.5,461C 673.425,363.712 842.092,266.212 1010.5,168.5 Z"/></g>
<g><path style="opacity:1" fill="#284d83" d="M 938.5,240.5 C 939.239,240.369 939.906,240.536 940.5,241C 849.833,331.667 759.167,422.333 668.5,513C 625.661,499.832 582.995,485.832 540.5,471C 673.393,394.392 806.06,317.559 938.5,240.5 Z"/></g>
<g><path style="opacity:1" fill="#274d83" d="M 987.5,246.5 C 988.097,246.735 988.43,247.235 988.5,248C 966.668,370.379 945.002,492.545 923.5,614.5C 872.603,593.385 821.937,571.719 771.5,549.5C 843.525,448.482 915.525,347.482 987.5,246.5 Z"/></g>
<g><path style="opacity:1" fill="#7a8fb1" d="M 907.5,312.5 C 907.461,311.244 907.961,310.244 909,309.5C 909.585,310.998 909.085,311.998 907.5,312.5 Z"/></g>
<g><path style="opacity:1" fill="#284d83" d="M 907.5,312.5 C 850.606,393.666 792.773,474 734,553.5C 729.307,580.631 723.974,607.631 718,634.5C 705.967,601.402 694.967,568.069 685,534.5C 759.035,460.299 833.201,386.299 907.5,312.5 Z"/></g>
<g><path style="opacity:1" fill="#294e84" d="M 757.5,573.5 C 768.603,577.884 779.603,582.55 790.5,587.5C 774.859,608.974 759.026,630.308 743,651.5C 747.251,625.41 752.085,599.41 757.5,573.5 Z"/></g>
<g><path style="opacity:1" fill="#f0f2f6" d="M 706.5,593.5 C 710.194,594.033 712.361,596.033 713,599.5C 711.612,600.554 710.112,600.72 708.5,600C 706.662,597.917 705.995,595.75 706.5,593.5 Z"/></g>
<g><path style="opacity:1" fill="#fafbfc" d="M 375.5,705.5 C 378.187,705.336 380.854,705.503 383.5,706C 396.006,714.423 409.006,722.089 422.5,729C 428.972,734.904 430.139,741.738 426,749.5C 421.139,753.284 415.639,754.451 409.5,753C 396.612,745.628 383.946,737.962 371.5,730C 369.622,728.457 368.122,726.624 367,724.5C 364.062,715.265 366.895,708.932 375.5,705.5 Z"/></g>
<g><path style="opacity:1" fill="#f9fafc" d="M 625.5,718.5 C 641.251,719.727 645.751,727.393 639,741.5C 629.688,747.574 619.854,752.74 609.5,757C 596.855,757.866 591.355,752.033 593,739.5C 593.667,738.167 594.333,736.833 595,735.5C 605.005,729.417 615.172,723.751 625.5,718.5 Z"/></g>
<g><path style="opacity:1" fill="#fbfcfd" d="M 471.5,749.5 C 489.138,751.584 506.805,753.084 524.5,754C 530.053,758.618 531.886,764.451 530,771.5C 528.01,775.49 524.843,777.99 520.5,779C 511.167,779.667 501.833,779.667 492.5,779C 484.857,777.559 477.19,776.226 469.5,775C 464.558,772.118 462.224,767.785 462.5,762C 462.562,755.533 465.562,751.366 471.5,749.5 Z"/></g>
<g><path style="opacity:1" fill="#fcfcfd" d="M 1005.5,903.5 C 1014.56,903.154 1023.56,903.654 1032.5,905C 1038.54,907.889 1042.04,912.723 1043,919.5C 1043.33,995.167 1043.67,1070.83 1044,1146.5C 1044.57,1151.4 1047.07,1154.9 1051.5,1157C 1058.75,1158.39 1066.08,1158.89 1073.5,1158.5C 1076.58,1167.98 1077.25,1177.65 1075.5,1187.5C 1059.5,1189.75 1043.5,1189.91 1027.5,1188C 1011.35,1181.91 1003.52,1170.07 1004,1152.5C 1003.33,1070.17 1003.33,987.833 1004,905.5C 1004.72,904.956 1005.22,904.289 1005.5,903.5 Z"/></g>
<g><path style="opacity:1" fill="#fefefe" d="M 248.5,958.5 C 247.081,957.549 245.415,957.216 243.5,957.5C 243.5,1034.5 243.5,1111.5 243.5,1188.5C 229.828,1189.79 216.162,1189.79 202.5,1188.5C 202.5,1111.83 202.5,1035.17 202.5,958.5C 179.443,958.146 156.443,957.146 133.5,955.5C 132.167,944.833 132.167,934.167 133.5,923.5C 193.167,923.5 252.833,923.5 312.5,923.5C 314.863,932.121 315.03,940.787 313,949.5C 309.241,954.798 304.075,957.631 297.5,958C 281.17,958.5 264.837,958.667 248.5,958.5 Z"/></g>
<g><path style="opacity:1" fill="#fdfefe" d="M 574.5,939.5 C 574.5,958.833 574.5,978.167 574.5,997.5C 583.017,997.826 591.35,997.493 599.5,996.5C 607.42,996.185 615.253,996.518 623,997.5C 625.16,1006.93 624.993,1016.26 622.5,1025.5C 606.5,1025.5 590.5,1025.5 574.5,1025.5C 574.333,1065.83 574.5,1106.17 575,1146.5C 576.343,1152.38 579.843,1156.22 585.5,1158C 596.167,1158.33 606.833,1158.67 617.5,1159C 620.591,1168.15 621.258,1177.49 619.5,1187C 601.555,1189.21 583.555,1189.87 565.5,1189C 549.004,1185.84 539.171,1176 536,1159.5C 535.5,1114.83 535.333,1070.17 535.5,1025.5C 525.833,1025.5 516.167,1025.5 506.5,1025.5C 505.2,1015.83 505.2,1006.16 506.5,996.5C 516.167,996.5 525.833,996.5 535.5,996.5C 535.333,982.163 535.5,967.829 536,953.5C 536.972,945.708 541.138,940.542 548.5,938C 556.5,937.333 564.5,937.333 572.5,938C 573.044,938.717 573.711,939.217 574.5,939.5 Z"/></g>
<g><path style="opacity:1" fill="#748cae" d="M 574.5,939.5 C 575.497,958.326 575.83,977.326 575.5,996.5C 583.5,996.5 591.5,996.5 599.5,996.5C 591.35,997.493 583.017,997.826 574.5,997.5C 574.5,978.167 574.5,958.833 574.5,939.5 Z"/></g>
<g><path style="opacity:1" fill="#bac5d7" d="M 133.5,955.5 C 156.443,957.146 179.443,958.146 202.5,958.5C 179.5,958.5 156.5,958.5 133.5,958.5C 133.5,957.5 133.5,956.5 133.5,955.5 Z"/></g>
<g><path style="opacity:1" fill="#fdfdfe" d="M 718.5,991.5 C 772.127,989.292 803.627,1014.62 813,1067.5C 816.828,1094.24 814.162,1120.24 805,1145.5C 786.045,1183.06 755.545,1198.56 713.5,1192C 682.216,1184.05 662.05,1164.55 653,1133.5C 645.107,1103.61 645.774,1073.95 655,1044.5C 666.377,1014.95 687.543,997.279 718.5,991.5 Z"/></g>
<g><path style="opacity:1" fill="#fdfefe" d="M 324.5,994.5 C 339.459,990.979 349.292,996.312 354,1010.5C 354.045,1052.53 354.712,1094.53 356,1136.5C 359.489,1151.83 368.989,1158 384.5,1155C 400.958,1151.94 414.958,1144.44 426.5,1132.5C 427.333,1087.17 427.833,1041.84 428,996.5C 441.11,995.274 454.277,995.274 467.5,996.5C 467.333,1046.5 467.5,1096.5 468,1146.5C 468.904,1155.74 472.404,1163.74 478.5,1170.5C 475.904,1178.54 471.237,1185.04 464.5,1190C 447.859,1188.21 436.526,1179.38 430.5,1163.5C 414.904,1177.96 396.57,1187.13 375.5,1191C 343.946,1194.76 324.446,1181.26 317,1150.5C 316.114,1145.53 315.448,1140.53 315,1135.5C 314.667,1097.5 314.333,1059.5 314,1021.5C 313.092,1015.2 311.259,1009.2 308.5,1003.5C 309.313,1002.19 310.313,1001.02 311.5,1000C 315.741,997.651 320.075,995.818 324.5,994.5 Z"/></g>
<g><path style="opacity:1" fill="#fdfdfe" d="M 865.5,993.5 C 883.671,998.171 895.505,1009.5 901,1027.5C 916.338,998.424 940.171,987.757 972.5,995.5C 972.597,1008.59 969.597,1020.92 963.5,1032.5C 937.388,1027.81 918.221,1037.14 906,1060.5C 905.5,1103.17 905.333,1145.83 905.5,1188.5C 892.149,1189.72 878.816,1189.72 865.5,1188.5C 865.667,1140.17 865.5,1091.83 865,1043.5C 863.176,1032.52 858.676,1022.85 851.5,1014.5C 853.841,1005.85 858.508,998.848 865.5,993.5 Z"/></g>
<g><path style="opacity:1" fill="#fdfdfe" d="M 1107.5,993.5 C 1120.63,991.814 1129.47,997.147 1134,1009.5C 1149.49,1058.32 1163.16,1107.65 1175,1157.5C 1175.37,1158.91 1176.2,1159.91 1177.5,1160.5C 1179.63,1155.32 1181.47,1149.98 1183,1144.5C 1195.77,1095.15 1208.6,1045.82 1221.5,996.5C 1231.45,995.359 1241.45,995.192 1251.5,996C 1254.51,996.332 1257.34,997.166 1260,998.5C 1243.91,1057.8 1227.57,1117.13 1211,1176.5C 1205.02,1200.12 1196.02,1222.45 1184,1243.5C 1168.23,1264.63 1147.06,1274.3 1120.5,1272.5C 1109.7,1271.98 1099.03,1270.48 1088.5,1268C 1086.12,1266.49 1085.12,1264.32 1085.5,1261.5C 1086.28,1254.06 1088.44,1247.06 1092,1240.5C 1092.8,1239.2 1093.97,1238.53 1095.5,1238.5C 1130.43,1251.16 1153.93,1240.16 1166,1205.5C 1168.02,1200.27 1169.52,1194.93 1170.5,1189.5C 1154.96,1190.45 1145.12,1183.45 1141,1168.5C 1124.17,1112.67 1107.33,1056.83 1090.5,1001C 1090.64,1000.23 1090.98,999.561 1091.5,999C 1096.85,996.83 1102.18,994.997 1107.5,993.5 Z"/></g>
<g><path style="opacity:1" fill="#284d83" d="M 722.5,1022.5 C 746.632,1019.98 762.132,1030.31 769,1053.5C 774.983,1079.14 774.983,1104.81 769,1130.5C 761.885,1155.81 745.385,1165.98 719.5,1161C 708.092,1157.26 700.259,1149.76 696,1138.5C 686.558,1108.58 686.225,1078.58 695,1048.5C 699.878,1035.12 709.045,1026.45 722.5,1022.5 Z"/></g>
<g><path style="opacity:1" fill="#617ca4" d="M 248.5,958.5 C 247.167,958.5 245.833,958.5 244.5,958.5C 244.833,1035.34 244.499,1112 243.5,1188.5C 243.5,1111.5 243.5,1034.5 243.5,957.5C 245.415,957.216 247.081,957.549 248.5,958.5 Z"/></g>
</svg>
