<?xml version="1.0" encoding="UTF-8"?>
<svg version="1.1" xmlns="http://www.w3.org/2000/svg" width="2126" height="678">
<path d="M0 0 C701.58 0 1403.16 0 2126 0 C2126 223.74 2126 447.48 2126 678 C1424.42 678 722.84 678 0 678 C0 454.26 0 230.52 0 0 Z " fill="#082BA2" transform="translate(0,0)"/>
<path d="M0 0 C1.12744629 0.12600586 2.25489258 0.25201172 3.41650391 0.38183594 C11.8996846 1.41722034 11.8996846 1.41722034 16 3.625 C18.33163378 4.29758667 20.6652039 4.96347444 23 5.625 C25.69388677 6.5583151 28.34918288 7.57615307 31 8.625 C31.63421875 8.87378906 32.2684375 9.12257812 32.921875 9.37890625 C36.35922329 10.78175566 39.05405818 12.41135112 42 14.625 C43.38353501 15.39745167 44.78009624 16.14694414 46.1875 16.875 C53.30461055 20.76771944 59.41983329 25.7511403 65 31.625 C65.4846875 32.05425781 65.969375 32.48351562 66.46875 32.92578125 C79.76412897 45.06095026 89.55949791 63.69252824 95 80.625 C95.350625 81.594375 95.70125 82.56375 96.0625 83.5625 C97.29342458 87.58352031 98.27853286 91.65314251 99.2734375 95.73828125 C99.82422994 97.92664477 100.45614135 100.0947888 101.125 102.25 C102.09958323 106.00910675 102.46393679 109.62399443 102.75390625 113.48828125 C102.88232638 115.67460167 102.88232638 115.67460167 104 117.625 C105.49847388 127.60310069 105.15296404 137.85053677 105.13037109 147.91308594 C105.12505043 150.72336319 105.13032282 153.53347784 105.13671875 156.34375 C105.14115647 165.12947395 105.03853305 173.90310615 104.6171875 182.6796875 C104.5716423 183.77810471 104.5716423 183.77810471 104.525177 184.89871216 C104.30382511 188.86462456 103.67631533 192.02584027 102 195.625 C101.65247452 197.01252765 101.33896996 198.40908584 101.0625 199.8125 C100.36541857 203.12775341 99.51161436 206.32940085 98.5 209.5625 C97.47095486 212.86868959 96.70375294 216.08754162 96.125 219.5 C92.75226248 236.68237145 81.5901072 253.81072475 70 266.625 C69.17113281 267.59566406 68.34226562 268.56632812 67.48828125 269.56640625 C56.84562412 281.86730122 45.07020088 290.53651167 30 296.625 C28.88109375 297.10839844 27.7621875 297.59179688 26.609375 298.08984375 C20.20759793 300.6579985 14.22231616 302.06757985 7.390625 302.75 C6.1618866 302.87517754 6.1618866 302.87517754 4.9083252 303.00288391 C-3.98145597 303.83001724 -12.85168502 303.89267789 -21.7734375 303.83081055 C-24.52613464 303.81232449 -27.27849657 303.81030353 -30.03125 303.81054688 C-54.64596791 303.76504704 -54.64596791 303.76504704 -62 300.3125 C-65.8202525 298.58722468 -69.59188956 297.03174649 -73.5625 295.6875 C-88.66098317 290.30303366 -88.66098317 290.30303366 -91 285.625 C-91.99 285.295 -92.98 284.965 -94 284.625 C-94 283.965 -94 283.305 -94 282.625 C-94.73428223 282.3767749 -95.46856445 282.1285498 -96.22509766 281.87280273 C-101.18790143 279.64115659 -104.58536432 275.50940038 -108.375 271.6875 C-109.2 270.88248047 -110.025 270.07746094 -110.875 269.24804688 C-116.58491483 263.53360037 -120.89256365 257.56015857 -125 250.625 C-125.91117782 249.20479678 -126.82675128 247.78738593 -127.75 246.375 C-130.58380701 241.81303527 -132.56978069 237.184545 -134 232 C-134.80166896 228.71384183 -134.80166896 228.71384183 -136.37109375 226.5 C-138.58782231 222.58750067 -139.78754346 218.54805354 -141.0625 214.25 C-141.32635498 213.37037598 -141.59020996 212.49075195 -141.86206055 211.58447266 C-143.79972641 204.88011232 -144.97632863 198.33279572 -145.67578125 191.3984375 C-145.83514437 188.67109778 -145.83514437 188.67109778 -147 186.625 C-148.00848825 178.81259742 -148.14913563 170.95971259 -148.1328125 163.09375 C-148.13376923 162.05480591 -148.13472595 161.01586182 -148.13571167 159.94543457 C-148.13638608 157.7741693 -148.13458399 155.60290192 -148.13037109 153.43164062 C-148.1249682 150.10542334 -148.13036355 146.7793384 -148.13671875 143.453125 C-148.13605869 141.33333304 -148.13477903 139.21354115 -148.1328125 137.09375 C-148.13483673 136.10209839 -148.13686096 135.11044678 -148.13894653 134.08874512 C-148.13579437 133.16678345 -148.13264221 132.24482178 -148.12939453 131.29492188 C-148.12859894 130.48728394 -148.12780334 129.679646 -148.12698364 128.84753418 C-148.00119038 126.64583459 -147.5489367 124.75345362 -147 122.625 C-147 121.573125 -147 120.52125 -147 119.4375 C-147 116.625 -147 116.625 -146 115.625 C-145.69167348 114.11093672 -145.43589316 112.58609886 -145.203125 111.05859375 C-139.84735787 77.28353719 -126.15406783 43.02559984 -98 21.625 C-91.05063576 16.64227598 -84.0303178 12.16850296 -75.890625 9.37890625 C-73.8019987 8.69026654 -73.8019987 8.69026654 -72 6.625 C-69.31231772 5.86487641 -66.65674919 5.18384017 -63.9375 4.5625 C-59.08163065 3.81400534 -59.08163065 3.81400534 -55 1.625 C-52.22830872 1.24797929 -49.46826527 0.91747161 -46.6875 0.625 C-45.14947349 0.46080701 -43.61170077 0.29421556 -42.07421875 0.125 C-41.38932373 0.0528125 -40.70442871 -0.019375 -39.9987793 -0.09375 C-37.98256565 -0.33940966 -37.98256565 -0.33940966 -35.98608398 -0.89355469 C-24.81110306 -3.60247446 -11.22734554 -1.2755142 0 0 Z " fill="#FCFCFC" transform="translate(954,227.375)"/>
<path d="M0 0 C0.85529297 -0.00773438 1.71058594 -0.01546875 2.59179688 -0.0234375 C12.41837062 0.00654442 18.57316707 1.80782043 25.796875 8.765625 C31.32188539 14.82408467 33.47736407 20.99644727 35.2578125 28.8984375 C36.15486664 32.63471155 37.26840927 36.27996709 38.4375 39.9375 C40.25452466 45.64824732 42.00646982 51.3726651 43.6875 57.125 C43.89874512 57.84776123 44.10999023 58.57052246 44.32763672 59.31518555 C44.53146973 60.01297119 44.73530273 60.71075684 44.9453125 61.4296875 C45.80619973 64.37356062 46.67660548 67.31360806 47.5625 70.25 C50.7109647 80.72129832 53.79251313 91.20570221 56.6875 101.75 C58.11627453 106.95207807 59.61378214 112.093021 61.3828125 117.19140625 C62.80123725 121.48743983 63.9005635 125.87919222 65.0625 130.25 C65.83142015 133.08850127 66.60462439 135.92574454 67.3828125 138.76171875 C67.93293102 140.77565839 68.46868873 142.79351719 69 144.8125 C69.85605417 147.58208701 70.83001904 150.09053303 71.96484375 152.74609375 C74.20570581 158.30085677 75.48820105 163.89552752 76.6875 169.75 C77.08958033 171.69932616 77.49811636 173.64733538 77.9140625 175.59375 C78.08760254 176.44130859 78.26114258 177.28886719 78.43994141 178.16210938 C78.94043504 180.44498396 78.94043504 180.44498396 81.0625 182.25 C81.62175326 184.42497545 82.08536953 186.62491458 82.5 188.83203125 C82.62560303 189.48322433 82.75120605 190.13441742 82.88061523 190.80534363 C83.28191581 192.88974034 83.67301419 194.97586582 84.0625 197.0625 C84.45291639 199.13821381 84.84565068 201.21338855 85.24438477 203.28752136 C85.60729877 205.17735414 85.96206277 207.06874659 86.31640625 208.96020508 C86.98588828 211.91219144 87.8889061 214.47150432 89.0625 217.25 C89.63060742 220.06686595 90.06427604 222.88657599 90.5 225.7265625 C90.95422586 228.47800339 90.95422586 228.47800339 93.0625 231.25 C93.60913086 233.28710938 93.60913086 233.28710938 94.02734375 235.59375 C94.18783203 236.42777344 94.34832031 237.26179687 94.51367188 238.12109375 C94.83776212 239.87300327 95.15807909 241.62561505 95.47460938 243.37890625 C95.71727539 244.62994141 95.71727539 244.62994141 95.96484375 245.90625 C96.10398193 246.66744141 96.24312012 247.42863281 96.38647461 248.21289062 C97.19557352 250.6509987 98.03080734 251.69001876 100.0625 253.25 C102.16582891 253.96447643 102.16582891 253.96447643 104.0625 254.25 C103.9711377 253.42109253 103.9711377 253.42109253 103.87792969 252.57543945 C103.28484853 242.14507853 106.58353807 232.38687642 109.3125 222.4375 C109.80982038 220.5830108 110.30592278 218.72819453 110.80078125 216.87304688 C112.19702683 211.65856922 113.62207614 206.4524329 115.0625 201.25 C115.26367432 200.52218323 115.46484863 199.79436646 115.67211914 199.04449463 C118.68875386 188.17244269 118.68875386 188.17244269 120.14160156 184.58666992 C121.34856452 181.52414542 121.61335986 178.50626605 122.0625 175.25 C123.2422224 170.69964217 124.70895852 166.27790481 126.28125 161.8515625 C127.42834895 158.03172301 128.22129889 154.14706571 129.0625 150.25 C130.02872075 145.85120823 131.01168912 141.45637583 132 137.0625 C132.25201172 135.91330078 132.50402344 134.76410156 132.76367188 133.58007812 C134.01279073 128.06287029 135.26716817 123.21947881 138.0625 118.25 C139.1932335 113.93907854 140.00574297 109.63892206 140.7109375 105.2421875 C141.9026855 97.91665898 143.13094321 91.19876916 146.15234375 84.36328125 C148.72307652 78.39432662 149.46707187 71.96827017 150.3046875 65.5703125 C150.96759181 62.66583484 151.8240563 60.30572301 152.9765625 57.578125 C155.23470349 52.12035464 156.43021268 46.6555486 157.5625 40.875 C159.04769352 33.62515373 160.74071779 26.71624046 163.296875 19.7578125 C164.11979352 17.06233448 164.38241189 14.62023742 164.5625 11.8125 C164.84552486 7.51880575 165.83911327 5.27802996 169.0625 2.25 C172.45320492 0.55464754 176.29992623 1.19025987 180.0234375 1.265625 C181.37485336 1.29036896 181.37485336 1.29036896 182.75357056 1.31561279 C184.66861788 1.35317692 186.5836085 1.39373111 188.49853516 1.43701172 C191.39088535 1.49900095 194.28306943 1.54094019 197.17578125 1.58203125 C221.86365699 2.05115699 221.86365699 2.05115699 226.0625 6.25 C225.93376863 13.22546466 224.35962972 19.96644199 222.625 26.6875 C222.40779297 27.57115234 222.19058594 28.45480469 221.96679688 29.36523438 C220.99813491 33.19043101 220.27840943 35.92613586 218.0625 39.25 C217.42343665 41.54772323 216.85032659 43.86399476 216.3125 46.1875 C214.16637364 55.1792995 211.50625123 63.99299603 208.80249023 72.83007812 C206.0225685 81.86172575 206.0225685 81.86172575 203.625 91 C202.55578788 95.36594947 201.38057577 99.68395828 200.125 104 C198.71890957 108.84829785 197.43898134 113.70298476 196.24609375 118.609375 C193.89571314 128.13783926 191.15867378 137.54658286 188.41699219 146.96826172 C187.77562032 149.17607975 187.13695183 151.3846529 186.5 153.59375 C186.29270264 154.31103271 186.08540527 155.02831543 185.87182617 155.76733398 C184.07339522 162.06077646 182.53181564 168.40346281 181.0546875 174.77929688 C180.07118711 178.21961222 178.70853741 181.08471455 177.0625 184.25 C176.54856301 186.17726371 176.038199 188.10631687 175.59375 190.05078125 C175.01068538 192.46449727 174.29787695 194.81590933 173.5625 197.1875 C172.56024838 200.4611862 171.70668088 203.71272134 171 207.0625 C170.31345992 210.30796219 169.3233428 213.17669566 168.0625 216.25 C167.57799742 218.15041962 167.0957659 220.05146824 166.62890625 221.95629883 C165.65019983 225.91963798 164.60219604 229.86480564 163.5625 233.8125 C163.34980469 234.62396484 163.13710937 235.43542969 162.91796875 236.27148438 C161.12673315 243.07927856 159.21009739 249.83827026 157.125 256.5625 C155.67614332 261.25123547 154.2493671 265.94542952 152.84765625 270.6484375 C151.60460811 274.76719404 150.31471029 278.87146598 149.02734375 282.9765625 C148.13292776 286.01105884 147.34612991 289.05850465 146.59155273 292.13037109 C145.66234949 295.85318724 144.64441873 299.5510565 143.625 303.25 C143.42068359 304.00539063 143.21636719 304.76078125 143.00585938 305.5390625 C141.80693685 309.88655727 140.41931513 314.0833944 138.79272461 318.28857422 C138.06999146 320.2298775 137.44395513 322.1778319 136.84375 324.16015625 C133.13780724 336.28045959 127.93471026 347.44764585 122.28564453 358.77587891 C121.28432401 360.80130449 120.31404622 362.83377651 119.37109375 364.88671875 C109.03504432 386.94284701 89.90955551 407.20522136 67.0625 416.25 C63.2181668 417.46943902 59.33144766 418.45050466 55.41015625 419.390625 C52.14324354 420.13632371 52.14324354 420.13632371 49.515625 421.3515625 C46.47504249 422.46515164 43.9774161 422.44593222 40.75 422.375 C39.68136719 422.35695313 38.61273437 422.33890625 37.51171875 422.3203125 C36.29935547 422.28550781 36.29935547 422.28550781 35.0625 422.25 C35.0625 422.91 35.0625 423.57 35.0625 424.25 C24.1725 424.25 13.2825 424.25 2.0625 424.25 C2.0625 423.59 2.0625 422.93 2.0625 422.25 C0.97453125 422.27320313 -0.1134375 422.29640625 -1.234375 422.3203125 C-13.7285412 422.50862375 -26.59267929 422.23104056 -37.9375 416.25 C-42.35263217 403.00460349 -36.21538868 387.30176445 -30.58984375 375.3984375 C-28.9375 373.25 -28.9375 373.25 -26.5625 372.69140625 C-25.69625 372.73136719 -24.83 372.77132813 -23.9375 372.8125 C-22.638125 372.84537109 -22.638125 372.84537109 -21.3125 372.87890625 C-18.9375 373.25 -18.9375 373.25 -15.9375 375.25 C-4.50420379 379.07436183 7.68676561 379.64104607 19.625 379.3125 C20.77669678 379.29147217 21.92839355 379.27044434 23.11499023 379.2487793 C31.31272125 378.88321518 37.71779384 376.83787123 45.0625 373.25 C46.76792969 372.47462891 46.76792969 372.47462891 48.5078125 371.68359375 C56.82066642 367.01873536 62.35900288 359.94824531 67.2734375 351.94921875 C69.0625 349.25 69.0625 349.25 71.01049805 347.4621582 C73.44740316 344.83505562 74.41465894 342.50132752 75.68359375 339.15625 C76.14443359 337.96 76.60527344 336.76375 77.08007812 335.53125 C77.55381534 334.27099486 78.02712102 333.01057742 78.5 331.75 C79.43499907 329.30162518 80.37118742 326.85370417 81.30859375 324.40625 C81.76347168 323.20871094 82.21834961 322.01117187 82.68701172 320.77734375 C84.37293518 316.45391063 86.19625005 312.19768866 88.06665039 307.95117188 C89.13376251 305.05670547 89.64750336 302.30096788 90.0625 299.25 C88.75796875 299.10304688 87.4534375 298.95609375 86.109375 298.8046875 C62.75695673 295.914415 62.75695673 295.914415 55.125 287.375 C54.444375 286.34375 53.76375 285.3125 53.0625 284.25 C52.49426514 283.42302612 52.49426514 283.42302612 51.91455078 282.5793457 C48.29714124 277.11701383 46.0389189 271.4752398 43.875 265.3125 C43.53275391 264.37470703 43.19050781 263.43691406 42.83789062 262.47070312 C40.80168484 256.78118833 39.26986969 251.16388187 38.0625 245.25 C37.42131238 242.47279061 36.74437713 239.70496228 36.0625 236.9375 C35.8975 236.24849609 35.7325 235.55949219 35.5625 234.84960938 C34.71272749 231.40736684 33.72528819 228.37465613 32.0625 225.25 C31.68918353 223.9693171 31.35520143 222.67647599 31.0625 221.375 C30.04092135 217.09222797 28.70777964 212.99624001 27.1809082 208.86425781 C24.97761332 202.89390131 22.95137239 196.90784897 21.125 190.8125 C20.83906982 189.86697266 20.55313965 188.92144531 20.25854492 187.94726562 C18.19231189 181.08605007 16.1645625 174.21362679 14.140625 167.33984375 C13.87872879 166.45051147 13.61683258 165.5611792 13.34700012 164.64489746 C13.07949448 163.73647095 12.81198883 162.82804443 12.53637695 161.89208984 C12.26379059 160.96644226 11.99120422 160.04079468 11.71035767 159.08709717 C11.1527015 157.19314829 10.59522722 155.29914585 10.03793335 153.40509033 C5.45803582 137.84834702 0.75070627 122.33427921 -4.06713867 106.84960938 C-4.53724502 105.33603015 -5.0070634 103.82236145 -5.4765625 102.30859375 C-5.69692169 101.59835556 -5.91728088 100.88811737 -6.14431763 100.15635681 C-7.65293206 95.26010805 -9.04152902 90.34156325 -10.31762695 85.37890625 C-10.96051245 82.98219521 -10.96051245 82.98219521 -12.5 79.8125 C-14.22059538 75.54841579 -14.80503686 71.46315193 -15.41015625 66.921875 C-15.80207886 64.03811805 -15.80207886 64.03811805 -17.9375 61.25 C-18.82665765 57.9813557 -19.60103321 54.70861068 -20.34960938 51.40625 C-21.14288289 48.04352881 -22.01025871 45.08416433 -23.40625 41.90234375 C-25.36769769 37.22389071 -26.40828882 32.5044733 -27.5 27.5625 C-27.91328025 25.70337863 -28.3310834 23.84525558 -28.75390625 21.98828125 C-28.93381104 21.17399658 -29.11371582 20.35971191 -29.29907227 19.52075195 C-29.94004163 17.24095995 -30.86249543 15.35183352 -31.9375 13.25 C-32.375 10.6875 -32.375 10.6875 -31.9375 8.25 C-27.82846654 4.68883767 -22.0815651 3.67393686 -16.9375 2.25 C-15.35388672 1.71826172 -15.35388672 1.71826172 -13.73828125 1.17578125 C-9.07266315 0.03934601 -4.78022985 -0.04303283 0 0 Z " fill="#FCFCFC" transform="translate(1513.9375,229.75)"/>
<path d="M0 0 C1.02416016 -0.01224609 2.04832031 -0.02449219 3.10351562 -0.03710938 C11.917489 -0.05422389 18.60453656 1.65256486 25.5625 7.1875 C32.23873684 14.33594162 33.57779485 20.43447603 33.47314453 29.99902344 C33.49504947 31.87842936 33.49504947 31.87842936 33.51739693 33.79580307 C33.54575864 36.51133611 33.56209415 39.22387652 33.55875397 41.93925476 C33.55596709 46.2257486 33.61345256 50.51014309 33.68157959 54.79602051 C33.80037203 62.59057386 33.87830204 70.38507705 33.94692612 78.18021393 C33.9924708 83.33722695 34.04595285 88.49414123 34.1008606 93.65106201 C34.11977966 95.43643562 34.13869097 97.22180931 34.15759468 99.00718307 C34.16704243 99.89919591 34.17649018 100.79120875 34.18622422 101.71025229 C34.31218684 113.66206123 34.43166887 125.61390537 34.53662109 137.56591797 C34.60817948 145.7078048 34.68989584 153.84952386 34.78283894 161.99119544 C34.83127592 166.27088108 34.87473566 170.55047763 34.90548325 174.8303299 C34.93436422 178.84619829 34.97669502 182.86171413 35.02866745 186.87734795 C35.04523999 188.33438613 35.05715568 189.79148751 35.063591 191.24860573 C35.10097826 199.06323072 35.59369037 206.55952705 36.9067688 214.25408936 C37.02252569 214.94431915 37.13828258 215.63454894 37.25754726 216.34569478 C38.86502562 224.96928519 42.50213276 233.18768877 49.51953125 238.734375 C59.77144075 245.39909628 71.48901252 245.43317281 83.25 243.375 C85.02362628 242.99187529 86.79439107 242.59533028 88.5625 242.1875 C89.66851562 241.96964844 90.77453125 241.75179687 91.9140625 241.52734375 C98.0731562 240.25520589 102.42704729 238.9223747 107.5625 235.1875 C109.82726206 234.38723072 112.09346986 233.71257471 114.4140625 233.09375 C117.11062687 231.95629012 118.5334601 230.27586855 120.5625 228.1875 C122.01571054 227.3096859 123.49751408 226.47801536 125 225.6875 C126.85986642 224.52994135 128.71340587 223.36218977 130.5625 222.1875 C131.41183105 221.71981201 131.41183105 221.71981201 132.27832031 221.24267578 C137.17038819 218.45806276 141.01098671 215.29267884 143.5625 210.1875 C145.20439056 203.33055302 144.82778527 196.25004804 144.67431641 189.24707031 C144.49732082 179.11991463 144.71089677 169.00974405 144.93890572 158.88492393 C145.41887295 137.29323814 145.70638016 115.7014707 145.87890625 94.10546875 C145.88430247 93.43397207 145.88969869 92.76247538 145.89525843 92.07063031 C145.9605688 83.90980445 146.02129391 75.74894831 146.07990849 67.58807188 C146.13069359 60.53508283 146.18505324 53.48212238 146.23958123 46.42916143 C146.35094456 32.01530142 146.45823817 17.60141312 146.5625 3.1875 C148.2640625 2.9709375 148.2640625 2.9709375 150 2.75 C153.37027201 2.57578522 153.37027201 2.57578522 154.5625 1.1875 C157.64422548 1.07370203 160.70264198 1.0232995 163.78515625 1.01953125 C164.71919785 1.01620285 165.65323944 1.01287445 166.61558533 1.00944519 C168.60040798 1.00436881 170.58523922 1.00203708 172.57006836 1.00219727 C175.5878747 1.0000267 178.60530608 0.98192298 181.62304688 0.96289062 C183.55208209 0.95995355 185.48111903 0.95797086 187.41015625 0.95703125 C188.30630142 0.94984573 189.20244659 0.94266022 190.12574768 0.93525696 C190.98280807 0.93833359 191.83986847 0.94141022 192.72290039 0.94458008 C193.83756432 0.94244255 193.83756432 0.94244255 194.9747467 0.94026184 C198.6280971 1.28930888 202.01665145 2.24308077 205.5625 3.1875 C205.56673194 3.79476173 205.57096388 4.40202347 205.57532406 5.02768707 C205.82208227 40.39736166 206.07933621 75.76694312 206.35386658 111.13641357 C206.35983402 111.90549364 206.36580146 112.67457371 206.37194973 113.46695924 C206.38086873 114.61641357 206.38086873 114.61641357 206.38996792 115.7890892 C206.39588951 116.55229839 206.4018111 117.31550757 206.40791214 118.10184431 C206.41979856 119.63342148 206.43169251 121.16499859 206.4435941 122.69657564 C206.52449764 133.11605331 206.60166849 143.53554964 206.67578125 153.95507812 C206.7496975 164.32857742 206.8302637 174.701995 206.92080784 185.07536316 C206.96592865 190.26075131 207.00774282 195.44611431 207.04122925 200.6315918 C207.07229468 205.42517256 207.11239046 210.21858677 207.15994263 215.01203156 C207.17550495 216.74163349 207.18771253 218.47126942 207.19628906 220.2009201 C207.20830128 222.52638929 207.2323043 224.85142444 207.25952148 227.17675781 C207.27498268 229.11412811 207.27498268 229.11412811 207.29075623 231.09063721 C207.32762301 234.35501723 207.32762301 234.35501723 209.5625 237.1875 C209.624375 238.425 209.68625 239.6625 209.75 240.9375 C210.17644594 245.73896539 211.85405982 249.62321604 213.875 253.9375 C214.31912231 254.89414551 214.31912231 254.89414551 214.7722168 255.87011719 C216.20210916 258.82030851 217.61169452 261.24298384 219.79296875 263.703125 C222.24131092 267.14053255 222.10913526 269.02869891 221.5625 273.1875 C220.56074609 276.15834212 219.2316533 278.86581445 217.75 281.625 C217.35055176 282.37128662 216.95110352 283.11757324 216.53955078 283.88647461 C212.77323215 290.50178667 208.57873201 294.89394766 201.5625 298.1875 C192.65291066 300.09669772 182.43666598 293.96845535 174.859375 289.6875 C172.08043254 287.87268043 170.47334323 285.88903698 168.5625 283.1875 C167.26690588 282.06354442 165.95225655 280.96138406 164.625 279.875 C157.83101359 274.05338711 154.35497951 266.56493853 151.5625 258.1875 C147.19513147 260.23166209 143.46018078 262.58203722 139.625 265.5 C138.05105469 266.69496094 138.05105469 266.69496094 136.4453125 267.9140625 C134.21398408 269.673728 132.09568219 271.46155104 130 273.375 C126.41965335 276.54290476 122.34571875 278.61038587 118.125 280.8125 C115.41328349 282.20493212 115.41328349 282.20493212 112.5 284.3125 C106.40047841 288.20581165 99.51284889 290.31625222 92.5625 292.1875 C91.2321875 292.6515625 91.2321875 292.6515625 89.875 293.125 C85.65847697 294.47746965 81.38129211 295.48143988 77.07421875 296.50390625 C74.64184642 296.94262159 74.64184642 296.94262159 73.5625 298.1875 C72.04321962 298.25929964 70.52082518 298.27142007 69 298.25 C68.17371094 298.24097656 67.34742188 298.23195313 66.49609375 298.22265625 C65.85800781 298.21105469 65.21992188 298.19945312 64.5625 298.1875 C64.5625 298.5175 64.5625 298.8475 64.5625 299.1875 C60.37501481 299.21670143 56.18755609 299.23436646 52 299.25 C50.81857422 299.25837891 49.63714844 299.26675781 48.41992188 299.27539062 C39.41541964 299.30061332 32.88815853 298.77614592 24.5625 295.1875 C23.04652311 294.87156086 21.52513948 294.58074061 20 294.3125 C15.43369845 293.38533217 13.01696736 291.34157889 9.5625 288.1875 C8.4075 287.56875 7.2525 286.95 6.0625 286.3125 C2.6434086 284.45233353 0.50401748 282.10996756 -1.8828125 279.06640625 C-3.50313947 277.03222297 -3.50313947 277.03222297 -5.89453125 274.8515625 C-12.44935508 267.9846042 -16.38289927 258.10595274 -19.4375 249.1875 C-19.87191406 248.03378906 -20.30632812 246.88007813 -20.75390625 245.69140625 C-23.92888846 236.55096891 -24.84335071 227.69085122 -25.05078125 218.0546875 C-25.08651139 216.68792095 -25.12249271 215.32116096 -25.15869141 213.95440674 C-25.7419445 190.28934187 -25.77392412 166.60811777 -25.9375 142.9375 C-26.06358477 124.80550564 -26.20893806 106.67397445 -26.40325928 88.54257202 C-26.43684053 85.25211773 -26.46535159 81.96165416 -26.49267578 78.67114258 C-26.53634355 73.61321549 -26.60003594 68.55591287 -26.67921448 63.49842072 C-26.70493932 61.67958713 -26.72450268 59.86065247 -26.73692322 58.04167938 C-26.83269158 44.97434723 -27.6779005 31.54161478 -33.02844238 19.41998291 C-34.5331389 15.96809726 -35.05682413 12.91812353 -35.4375 9.1875 C-32.37830952 7.86718946 -29.31461716 6.5576594 -26.25 5.25 C-25.38568359 4.87681641 -24.52136719 4.50363281 -23.63085938 4.11914062 C-22.78974609 3.76142578 -21.94863281 3.40371094 -21.08203125 3.03515625 C-20.31221924 2.70523682 -19.54240723 2.37531738 -18.74926758 2.03540039 C-12.59475121 -0.22192724 -6.47022825 0.00405657 0 0 Z " fill="#FCFCFC" transform="translate(323.4375,230.8125)"/>
<path d="M0 0 C89.76 0 179.52 0 272 0 C272.66 2.64 273.32 5.28 274 8 C274.33 8.99 274.66 9.98 275 11 C275.31086124 14.86963223 275.32400007 18.74436881 275.375 22.625 C275.41238281 23.68074219 275.44976562 24.73648438 275.48828125 25.82421875 C275.58444515 34.44691543 273.31553651 39.68980254 268.125 46.4375 C265.27855226 48.53047628 262.40400526 49.16505531 259 50 C258.67 50.33 258.34 50.66 258 51 C248.13317976 52.30860704 238.12507276 52.14796418 228.19140625 52.1328125 C226.61010218 52.13348809 225.02879822 52.13446022 223.44749451 52.13571167 C220.16070551 52.13717365 216.87394397 52.13508085 213.5871582 52.13037109 C209.38546121 52.12464155 205.18382765 52.12798258 200.98213291 52.13394356 C197.72813948 52.13756181 194.47416105 52.13640533 191.22016716 52.13381577 C189.67049082 52.13315171 188.1208131 52.13395659 186.57113838 52.13629532 C184.40879841 52.13884634 182.24656089 52.13494834 180.08422852 52.12939453 C178.24442162 52.12820114 178.24442162 52.12820114 176.3674469 52.12698364 C173 52 173 52 167 51 C167 167.16 167 283.32 167 403 C159.96477721 404.27913142 154.00626441 405.30392962 147.03515625 405.265625 C146.23573105 405.26753845 145.43630585 405.2694519 144.61265564 405.27142334 C142.93976523 405.27277041 141.26686382 405.26917873 139.59399414 405.26074219 C137.07088102 405.25003556 134.548482 405.26068099 132.02539062 405.2734375 C130.38281097 405.27211537 128.74023175 405.26955186 127.09765625 405.265625 C126.36289566 405.26967346 125.62813507 405.27372192 124.87110901 405.27789307 C120.38724562 405.23886961 116.1295687 404.7460002 111.70774841 403.98382568 C110.63619224 403.80053585 109.56463606 403.61724602 108.46060848 403.42840195 C107.64860768 403.2870293 106.83660688 403.14565666 106 403 C105.8314853 367.32278412 105.66791952 331.64554631 105.50904435 295.96828622 C105.50002695 293.94355195 105.49100063 291.91881772 105.48197412 289.8940835 C104.96326659 173.47432666 104.96326659 173.47432666 104.93359375 128.03125 C104.93311389 127.3358568 104.93263403 126.6404636 104.93213964 125.92399788 C104.91580796 100.94929261 104.96526469 75.97468896 105 51 C70.35 51 35.7 51 0 51 C-1.12697167 37.47633995 -1.12697167 37.47633995 -1.1328125 32.08984375 C-1.13410156 30.91486328 -1.13539062 29.73988281 -1.13671875 28.52929688 C-1.13285156 27.34400391 -1.12898438 26.15871094 -1.125 24.9375 C-1.13080078 23.15375977 -1.13080078 23.15375977 -1.13671875 21.33398438 C-1.13542969 20.16029297 -1.13414063 18.98660156 -1.1328125 17.77734375 C-1.13168457 16.73827881 -1.13055664 15.69921387 -1.12939453 14.62866211 C-0.95510662 9.74103714 -0.44278602 4.87064623 0 0 Z " fill="#FCFDFD" transform="translate(21,122)"/>
<path d="M0 0 C1.69349575 1.29360199 1.69349575 1.29360199 3 3 C3.56768564 10.19889153 2.333219 16.96948145 1.03491211 24.03710938 C0.71951304 25.80658463 0.71951304 25.80658463 0.39774227 27.61180687 C-0.18032849 30.84564292 -0.765346 34.07812728 -1.35355043 37.3101325 C-1.97983605 40.7607023 -2.59723353 44.21286333 -3.21578979 47.66482544 C-4.40941687 54.31769477 -5.61151355 60.96900579 -6.8167541 67.61977994 C-7.78503954 72.96411642 -8.74980929 78.30907693 -9.71218872 83.65447998 C-9.91646188 84.78903624 -9.91646188 84.78903624 -10.12486178 85.94651282 C-10.26110396 86.70322504 -10.39734614 87.45993726 -10.53771687 88.23958015 C-16.92503393 123.71579468 -23.37006184 159.1816527 -29.9375 194.625 C-30.17268278 195.89451004 -30.17268278 195.89451004 -30.41261673 197.18966675 C-31.29520589 201.9517403 -32.17991916 206.71341122 -33.06805801 211.47445297 C-33.32797678 212.86783894 -33.5875886 214.26128221 -33.84685898 215.65478897 C-34.19339482 217.51570823 -34.54183208 219.37627312 -34.89038086 221.23681641 C-35.08224472 222.26271881 -35.27410858 223.28862122 -35.4717865 224.34561157 C-35.64609695 225.22155975 -35.82040741 226.09750793 -36 227 C-36.14663589 227.75824066 -36.29327179 228.51648132 -36.4443512 229.29769897 C-36.6277153 229.85945831 -36.81107941 230.42121765 -37 231 C-40.97780932 232.98890466 -45.07702954 232.2999654 -49.18359375 230.96533203 C-50.25738281 230.48435059 -51.33117188 230.00336914 -52.4375 229.5078125 C-53.03194916 229.246017 -53.62639832 228.9842215 -54.23886108 228.7144928 C-56.16475599 227.86316515 -58.0821557 226.99429098 -60 226.125 C-61.33097271 225.53297735 -62.66252221 224.94224983 -63.99462891 224.3527832 C-66.69210061 223.1575282 -69.38665709 221.95604648 -72.07910156 220.74951172 C-77.82307297 218.17989607 -83.59999507 215.68637122 -89.375 213.1875 C-91.25801159 212.36894743 -93.14084565 211.54998623 -95.0234375 210.73046875 C-95.79606934 210.39426514 -96.56870117 210.05806152 -97.36474609 209.71166992 C-97.90437988 209.47681885 -98.44401367 209.24196777 -99 209 C-106.51007078 218.60627662 -113.9786321 228.24333295 -121.375 237.9375 C-122.05409424 238.82638916 -122.73318848 239.71527832 -123.43286133 240.63110352 C-127.53095137 246.01340625 -131.52728304 251.43880888 -135.32421875 257.0390625 C-137.90839448 260.06296976 -140.66447121 261.73940902 -144.5625 262.5 C-148.11263302 261.77176758 -148.95322723 259.92451641 -151 257 C-152.25134277 254.13244629 -152.25134277 254.13244629 -153.31835938 250.94726562 C-153.92919373 249.14884216 -153.92919373 249.14884216 -154.55236816 247.31408691 C-154.98309244 246.01156177 -155.41354608 244.7089471 -155.84375 243.40625 C-156.29841791 242.05419528 -156.7539592 240.70243399 -157.21032715 239.35095215 C-158.40829627 235.79489554 -159.59349748 232.23470689 -160.77630615 228.67358398 C-161.73295129 225.80034063 -162.6984625 222.93011778 -163.66454315 220.06003571 C-164.83138213 216.59309097 -165.99445854 213.12488909 -167.15625 209.65625 C-167.37206223 209.01194534 -167.58787445 208.36764069 -167.81022644 207.70381165 C-170.36938067 200.04999661 -172.81442902 192.39062324 -175.00231934 184.62145996 C-176.05627724 181.85212851 -176.60926829 180.70710774 -179 179 C-181.29859821 178.06701029 -183.52838063 177.26491094 -185.88647461 176.51977539 C-186.5827446 176.29167679 -187.27901459 176.06357819 -187.99638367 175.8285675 C-189.50597639 175.33519936 -191.01692154 174.84595445 -192.52903557 174.36036873 C-194.9235327 173.59084674 -197.31390338 172.80958682 -199.70350647 172.02500916 C-206.49740507 169.7970617 -213.29898874 167.59291617 -220.10131836 165.39086914 C-224.26428295 164.04233771 -228.42327778 162.68209122 -232.5802021 161.31506157 C-234.93258887 160.54570532 -237.2892211 159.79048594 -239.64622498 159.03541565 C-241.09244067 158.5609025 -242.53842218 158.0856748 -243.98413086 157.60961914 C-244.63828979 157.40429565 -245.29244873 157.19897217 -245.96643066 156.98742676 C-249.86827651 155.68182666 -252.48803081 154.29900864 -255 151 C-255.25 147.25 -255.25 147.25 -255 144 C-254.14341797 143.51926025 -254.14341797 143.51926025 -253.26953125 143.02880859 C-239.10697856 135.07222345 -225.0316199 126.97866067 -211.01611328 118.76611328 C-206.01461371 115.83743853 -201.00701587 112.91923011 -196 110 C-193.99997048 108.83338394 -191.99997049 107.66671726 -190 106.5 C-129.99999999 71.5 -129.99999999 71.5 -127.0012207 69.75073242 C-124.99712809 68.58166481 -122.99305915 67.41255661 -120.98901367 66.2434082 C-116.05182205 63.36314604 -111.11424845 60.48354335 -106.17578125 57.60546875 C-94.65405397 50.88959563 -83.14236208 44.15688616 -71.63961792 37.40856934 C-65.3553082 33.72179634 -59.06974271 30.03736083 -52.7734375 26.37109375 C-51.79117187 25.79891113 -50.80890625 25.22672852 -49.796875 24.63720703 C-47.86321334 23.5123614 -45.92833345 22.38960711 -43.9921875 21.26904297 C-39.17288844 18.47154999 -34.38268523 15.63618226 -29.63870239 12.71308899 C-27.19372671 11.20765539 -24.74124944 9.71465761 -22.28863525 8.22171021 C-21.11092118 7.49958923 -19.93707667 6.7711129 -18.76751709 6.03585815 C-7.07234497 -1.31389895 -7.07234497 -1.31389895 0 0 Z " fill="#F6F8F9" transform="translate(2098,19)"/>
<path d="M0 0 C2.32571017 0.03718756 4.64984962 0.04101349 6.97583008 0.04052734 C8.45956788 0.05033735 9.94329495 0.061985 11.42700195 0.07568359 C12.11960617 0.07790924 12.81221039 0.08013489 13.52580261 0.08242798 C18.37038938 0.17922727 18.37038938 0.17922727 20.6027832 2.41162109 C20.7909572 5.24335205 20.854517 7.97652861 20.82983398 10.80859375 C20.83012604 11.67695358 20.83041809 12.54531342 20.83071899 13.43998718 C20.82932238 16.31865327 20.81374563 19.19706256 20.7980957 22.07568359 C20.79436675 24.06822569 20.79151922 26.06076962 20.78952026 28.05331421 C20.78187452 33.30425049 20.76221797 38.55507657 20.7401123 43.80596924 C20.71967411 49.16148386 20.71052289 54.51701624 20.70043945 59.87255859 C20.67897296 70.38562791 20.64482569 80.89861535 20.6027832 91.41162109 C21.86271591 91.30503929 21.86271591 91.30503929 23.14810181 91.19630432 C31.89151727 90.50731778 40.54180736 90.27809098 49.3137207 90.31396484 C50.66134589 90.31583696 52.00897178 90.31725709 53.3565979 90.31825256 C56.85154196 90.32201543 60.34644243 90.33179 63.84136963 90.34295654 C67.42850149 90.35330709 71.01564061 90.35777898 74.6027832 90.36279297 C81.60280071 90.37341992 88.60278906 90.39041831 95.6027832 90.41162109 C96.3409392 94.62033299 96.73117317 98.56472353 96.7355957 102.84130859 C96.73688477 104.04916016 96.73817383 105.25701172 96.73950195 106.50146484 C96.73563477 107.75056641 96.73176758 108.99966797 96.7277832 110.28662109 C96.73165039 111.52798828 96.73551758 112.76935547 96.73950195 114.04833984 C96.72113675 131.29326755 96.72113675 131.29326755 94.6027832 133.41162109 C92.36420964 133.53573692 90.12172836 133.58965133 87.87988281 133.61694336 C87.17747971 133.62684296 86.4750766 133.63674255 85.75138855 133.64694214 C83.41933616 133.67864231 81.08726336 133.70334798 78.75512695 133.72802734 C77.14229286 133.74858954 75.52946424 133.7695858 73.91664124 133.79100037 C69.66369045 133.84629701 65.41069043 133.89567265 61.15765381 133.94384766 C56.82095945 133.9940074 52.48433694 134.04972225 48.14770508 134.10498047 C39.63279179 134.21265484 31.11781856 134.31407904 22.6027832 134.41162109 C21.62123663 168.78663501 21.48987491 203.15792902 21.47940063 237.54467773 C21.47779557 241.00993134 21.47424292 244.47517813 21.47021484 247.94042969 C21.45646083 261.56901582 21.48001308 275.19667116 21.58390808 288.8249054 C21.60148335 291.23348435 21.6144829 293.64204897 21.62683105 296.05065918 C21.65021402 299.84631942 21.71764877 303.64014421 21.7980957 307.43505859 C21.80332245 308.44637848 21.80854919 309.45769836 21.81393433 310.49966431 C22.05736146 318.4060914 24.43235261 325.2411905 30.1027832 330.91162109 C35.08767615 333.90255686 39.80377496 334.90102727 45.5402832 335.47412109 C46.33281494 335.55645996 47.12534668 335.63879883 47.94189453 335.72363281 C60.77847123 336.93451751 73.71922838 337.09610547 86.6027832 337.41162109 C90.88302372 346.34429696 90.76338038 354.90799586 90.7277832 364.66162109 C90.73165039 365.73669922 90.73551758 366.81177734 90.73950195 367.91943359 C90.73756836 369.47017578 90.73756836 369.47017578 90.7355957 371.05224609 C90.73446777 371.98584961 90.73333984 372.91945313 90.73217773 373.88134766 C90.61329424 376.20608078 90.25994774 378.18626751 89.6027832 380.41162109 C88.71719727 380.46060547 87.83161133 380.50958984 86.91918945 380.56005859 C85.06100586 380.67220703 85.06100586 380.67220703 83.1652832 380.78662109 C81.97032227 380.85623047 80.77536133 380.92583984 79.54418945 380.99755859 C76.03164831 381.24517092 72.56419199 381.68298547 69.07531738 382.1547699 C58.73864819 383.51173117 48.50009413 383.75090454 38.08300781 383.72729492 C35.17190253 383.72412829 32.26181137 383.74772578 29.35083008 383.77294922 C13.55417941 383.82716291 -2.28390443 383.27652865 -16.3972168 375.41162109 C-16.3972168 374.09162109 -16.3972168 372.77162109 -16.3972168 371.41162109 C-17.13842773 371.15509766 -17.87963867 370.89857422 -18.64331055 370.63427734 C-25.41775243 367.62661733 -29.9829605 361.56099605 -32.65893555 354.79443359 C-33.72075413 351.36740008 -34.41857889 347.9177647 -35.00268555 344.38037109 C-35.20689762 342.41714604 -35.20689762 342.41714604 -36.3972168 341.41162109 C-36.55354151 340.08202291 -36.64557085 338.74474409 -36.70963192 337.40752125 C-36.75102293 336.56428183 -36.79241394 335.72104241 -36.83505923 334.85225028 C-36.87385476 333.9344374 -36.9126503 333.01662453 -36.95262146 332.07099915 C-36.99477577 331.12256647 -37.03693007 330.1741338 -37.08036178 329.19696075 C-37.47187607 319.74980721 -37.5315753 310.31530635 -37.51074219 300.86157227 C-37.51045902 299.01613364 -37.51062057 297.17069491 -37.51118469 295.32525635 C-37.51146762 290.39069665 -37.50565369 285.45616206 -37.49861073 280.52160811 C-37.49229203 275.33669781 -37.49176674 270.15178672 -37.49058533 264.96687317 C-37.48749683 255.18213531 -37.47931743 245.39740884 -37.46923584 235.61267596 C-37.45799695 224.45883563 -37.4525448 213.30499471 -37.4475404 202.15115011 C-37.4371323 179.2379675 -37.41958171 156.32479494 -37.3972168 133.41162109 C-37.94623154 133.41384171 -38.49524628 133.41606232 -39.06089783 133.41835022 C-44.75429639 133.44040467 -50.44768289 133.45552836 -56.14111328 133.46655273 C-58.26839694 133.47159408 -60.39567711 133.47842701 -62.52294922 133.48706055 C-65.57349506 133.49913488 -68.62399525 133.50485124 -71.67456055 133.50927734 C-73.11048805 133.51701927 -73.11048805 133.51701927 -74.57542419 133.5249176 C-75.45626175 133.52499313 -76.3370993 133.52506866 -77.24462891 133.52514648 C-78.4137809 133.5284774 -78.4137809 133.5284774 -79.60655212 133.53187561 C-81.3972168 133.41162109 -81.3972168 133.41162109 -82.3972168 132.41162109 C-83.60954296 126.1866272 -83.58078353 119.98631022 -83.5847168 113.66162109 C-83.59696289 112.64068359 -83.60920898 111.61974609 -83.62182617 110.56787109 C-83.62375977 109.55208984 -83.62569336 108.53630859 -83.62768555 107.48974609 C-83.63384888 106.13478027 -83.63384888 106.13478027 -83.64013672 104.75244141 C-83.28925118 99.92679544 -82.26273361 95.17196355 -81.3972168 90.41162109 C-66.8772168 90.41162109 -52.3572168 90.41162109 -37.3972168 90.41162109 C-37.40881836 86.27115234 -37.42041992 82.13068359 -37.43237305 77.86474609 C-37.43880524 74.56070994 -37.44422762 71.25667556 -37.44896698 67.95263672 C-37.45424479 64.46629579 -37.46129647 60.97997922 -37.47265625 57.49365234 C-37.48561225 53.49234788 -37.49045578 49.49106916 -37.49487305 45.48974609 C-37.50003433 44.24171204 -37.50519562 42.99367798 -37.51051331 41.70782471 C-37.51058884 40.54692322 -37.51066437 39.38602173 -37.51074219 38.18994141 C-37.5129628 37.16846008 -37.51518341 36.14697876 -37.51747131 35.09454346 C-37.40975129 32.69127021 -37.02793134 30.71705025 -36.3972168 28.41162109 C-36.47591297 26.88925726 -36.58208705 25.36816532 -36.7097168 23.84912109 C-36.83392563 16.23850693 -32.4759091 10.52965954 -28.3972168 4.41162109 C-19.26160362 0.04726897 -9.90128005 -0.16425694 0 0 Z " fill="#FDFDFD" transform="translate(672.397216796875,143.58837890625)"/>
<path d="M0 0 C4.81972791 -0.04982621 9.6393024 -0.08591929 14.45922852 -0.10986328 C16.09532283 -0.11985617 17.73139959 -0.13345507 19.36743164 -0.15087891 C41.05066904 -0.37584994 41.05066904 -0.37584994 46.25 3.8125 C46.8275 4.534375 47.405 5.25625 48 6 C48.86625 6.845625 49.7325 7.69125 50.625 8.5625 C54.32959534 12.36458469 55.32251458 14.96375717 56.0625 20.125 C56.31773724 23.87916835 56.31773724 23.87916835 58 27 C58.09711803 28.81328453 58.12294811 30.63040305 58.12190533 32.4462862 C58.12367958 33.63568155 58.12545383 34.82507689 58.12728184 36.05051452 C58.12421178 37.38738034 58.12106284 38.72424598 58.11784363 40.06111145 C58.11811361 41.46822887 58.11883731 42.87534627 58.11997873 44.28246325 C58.12150664 47.35414155 58.1198502 50.42579675 58.11583138 53.49747276 C58.10932707 58.49473802 58.10963805 63.4919893 58.11090088 68.48925781 C58.11202286 74.80415294 58.11137343 81.11904368 58.10870007 87.43393835 C58.10358023 99.85162008 58.11191516 112.26926113 58.12532043 124.68693542 C58.1273672 126.64067596 58.12940954 128.59441649 58.13144749 130.54815704 C58.13560396 134.5045885 58.1398192 138.46101989 58.14405501 142.41745126 C58.15486531 152.59885652 58.16466538 162.78026241 58.1730957 172.96166992 C58.17394695 173.98373756 58.1747982 175.0058052 58.17567525 176.05884459 C58.18888026 192.60176496 58.18388723 209.14463707 58.17302414 225.6875569 C58.16238636 242.66952206 58.17460182 259.65136716 58.20710641 276.63330477 C58.22637064 287.10767582 58.22740834 297.581726 58.20495013 308.05609211 C58.19118253 315.24206164 58.19937951 322.42779773 58.22467472 329.61373506 C58.23859294 333.75710277 58.2428927 337.8998806 58.22084999 342.04322624 C58.20084039 345.84311825 58.20884549 349.6419243 58.23832611 353.44174512 C58.24686424 355.45394717 58.22610272 357.46620924 58.20400113 359.47830802 C58.30749261 367.98847282 59.86934902 375.03211431 65 382 C69.02427493 384.87895198 72.93299505 385.84363988 77.75 386.625 C78.48210693 386.74979736 79.21421387 386.87459473 79.96850586 387.00317383 C87.9399683 388.2821043 95.9407272 388.70748572 104 389 C108.13467269 403.58210459 109.07778204 416.98253467 107 432 C105.97060303 432.08302368 105.97060303 432.08302368 104.92041016 432.16772461 C101.82157565 432.42005303 98.72330016 432.67869649 95.625 432.9375 C94.54476563 433.02451172 93.46453125 433.11152344 92.3515625 433.20117188 C91.3203125 433.28818359 90.2890625 433.37519531 89.2265625 433.46484375 C87.79691162 433.58267212 87.79691162 433.58267212 86.33837891 433.70288086 C83.98168205 433.87128174 83.98168205 433.87128174 82 435 C79.47645277 435.12345572 76.98173523 435.18842837 74.45703125 435.203125 C73.69637863 435.20882507 72.93572601 435.21452515 72.15202332 435.22039795 C70.53210847 435.22986249 68.91217425 435.23638768 67.29223633 435.24023438 C64.86698007 435.24978545 62.4426296 435.28072535 60.01757812 435.3125 C36.21234271 435.47489514 36.21234271 435.47489514 28 430 C26.906875 429.71125 25.81375 429.4225 24.6875 429.125 C20.81282631 427.94289616 18.17594655 426.49538657 15 424 C14.505 422.515 14.505 422.515 14 421 C13.40445312 420.75507812 12.80890625 420.51015625 12.1953125 420.2578125 C8.84334841 418.33729215 7.57897568 415.20520343 5.875 411.875 C5.52824219 411.235625 5.18148438 410.59625 4.82421875 409.9375 C-0.2873478 400.18439601 -0.28308845 390.77891838 -0.24050903 380.00427246 C-0.24138175 378.3639464 -0.24313393 376.72362061 -0.24568737 375.0832963 C-0.25015199 370.58631199 -0.24216937 366.08942324 -0.23213124 361.5924511 C-0.2234863 356.73910403 -0.22641764 351.88576227 -0.22793579 347.03240967 C-0.22898398 338.62711818 -0.22271426 330.22185777 -0.21146011 321.8165741 C-0.19519915 309.66398072 -0.18999649 297.51140236 -0.18748413 285.35879928 C-0.18310797 265.64153475 -0.16980099 245.92428679 -0.15087891 226.20703125 C-0.13251808 207.05468834 -0.11836256 187.90234993 -0.10986328 168.75 C-0.10933783 167.56925154 -0.10881239 166.38850308 -0.10827102 165.17197436 C-0.10566092 159.24844725 -0.10313351 153.3249201 -0.10064721 147.40139294 C-0.07991716 98.26758385 -0.04469375 49.13379273 0 0 Z " fill="#FDFDFD" transform="translate(1351,92)"/>
<path d="M0 0 C14.04210148 15.32407678 18.95775303 37.82265926 21.77734375 57.8203125 C21.87523193 58.49980957 21.97312012 59.17930664 22.07397461 59.87939453 C23.17753171 68.9342725 22.97796254 78.08868842 22.96484375 87.1953125 C22.96294037 88.54255905 22.96294037 88.54255905 22.96099854 89.91702271 C22.87179536 122.93509699 19.94939204 157.57384777 -3.99609375 182.6796875 C-5.67006062 184.20433338 -7.36716228 185.52341987 -9.22265625 186.8203125 C-10.31126953 187.58601563 -10.31126953 187.58601563 -11.421875 188.3671875 C-25.75455435 197.69150707 -41.01269027 198.4830401 -57.43261719 195.30371094 C-73.21030517 191.80359422 -82.55855746 182.73468843 -91.08740234 169.66503906 C-93.98969075 164.94897644 -96.1605861 159.9462156 -98.22265625 154.8203125 C-98.60035156 153.90765625 -98.97804688 152.995 -99.3671875 152.0546875 C-107.62730902 130.89392675 -107.40144909 107.76671718 -107.47265625 85.3828125 C-107.47792328 84.5399469 -107.48319031 83.6970813 -107.48861694 82.82867432 C-107.56667143 66.67159177 -106.20299762 51.30088969 -102.28515625 35.5703125 C-102.03314453 34.49652344 -101.78113281 33.42273438 -101.52148438 32.31640625 C-100.28600686 27.24178504 -99.033847 23.25766052 -96.22265625 18.8203125 C-95.17365734 16.59458683 -94.13256841 14.36512303 -93.09765625 12.1328125 C-86.56986272 -1.29795536 -75.77763976 -11.25734449 -61.67578125 -16.2421875 C-38.82569851 -22.44582987 -16.55817505 -16.23806974 0 0 Z " fill="#082AA2" transform="translate(975.22265625,290.1796875)"/>
<path d="M0 0 C3.30859375 1.11328125 3.30859375 1.11328125 6.875 2.625 C7.85557373 3.025979 7.85557373 3.025979 8.85595703 3.43505859 C25.97691212 10.58540756 36.03589654 22.74681151 44.3125 39.0625 C44.66715332 39.76133301 45.02180664 40.46016602 45.38720703 41.18017578 C46.85453078 44.16798191 47.875 46.25307352 47.875 49.625 C52.61611182 45.23508165 56.14309704 40.338341 58.875 34.5 C60.61946713 30.81881834 62.9077842 28.43182575 65.875 25.625 C66.37 24.14 66.37 24.14 66.875 22.625 C68.6953125 21.23046875 68.6953125 21.23046875 71 19.8125 C73.97221532 17.97671995 76.56653174 16.03299392 79.1484375 13.6953125 C82.90183293 10.42692915 86.86360166 8.35836669 91.375 6.3125 C92.09558594 5.96638672 92.81617188 5.62027344 93.55859375 5.26367188 C101.14579776 1.74447146 108.4664543 1.47325849 116.71875 1.4921875 C117.64667358 1.49123077 118.57459717 1.49027405 119.53063965 1.48928833 C121.48380603 1.48861075 123.43697472 1.49043549 125.39013672 1.49462891 C128.36561176 1.49998311 131.34093586 1.49466954 134.31640625 1.48828125 C136.2213545 1.48894211 138.12630265 1.49022342 140.03125 1.4921875 C140.91373413 1.49016327 141.79621826 1.48813904 142.70544434 1.48605347 C147.5348249 1.50422431 152.11262231 1.81326772 156.875 2.625 C157.4374563 22.62344634 154.43522959 41.79093257 144.875 59.625 C138.40958289 59.72054804 132.27917519 59.57376669 125.875 58.625 C119.59991339 58.20586254 113.36775316 58.74992072 107.125 59.375 C106.40393066 59.4366333 105.68286133 59.4982666 104.93994141 59.56176758 C99.93527086 60.11893495 96.98852186 61.56842473 92.875 64.625 C91.13444492 65.53904889 89.38446463 66.43540161 87.625 67.3125 C78.80751347 72.08614603 71.9153203 78.84599291 65.94854832 86.85576057 C64.60281288 88.65300041 63.21519446 90.41989785 61.78118038 92.14752007 C55.07681277 100.88243177 54.74703644 108.44714589 54.89086914 118.94970703 C54.88488786 120.66610729 54.87537788 122.38249828 54.86264038 124.09886169 C54.83802764 128.72987843 54.86202741 133.35949136 54.89485097 137.99040842 C54.92063299 142.86271535 54.90006271 147.7348289 54.88438416 152.60714722 C54.86145108 161.83968817 54.87814435 171.07169674 54.91000694 180.30419433 C54.95130479 192.79317718 54.93759908 205.2820676 54.92453277 217.77109122 C54.92139245 220.79025493 54.9184426 223.80941873 54.91563416 226.82858276 C54.91468528 227.80935441 54.9137364 228.79012605 54.91275877 229.80061805 C54.9084331 235.57609277 54.91381789 241.35145351 54.9286319 247.12691045 C54.93764636 250.74311292 54.94303218 254.359317 54.94816208 257.97552681 C54.95154698 259.63214025 54.95670009 261.28875136 54.96391487 262.94535255 C55.01250911 274.20801064 54.61037187 285.3860221 53.875 296.625 C46.19686567 297.74945108 46.19686567 297.74945108 42.58300781 297.77026367 C41.43581268 297.77983345 41.43581268 297.77983345 40.26544189 297.78959656 C39.46112732 297.79070938 38.65681274 297.7918222 37.828125 297.79296875 C36.97627625 297.79629715 36.12442749 297.79962555 35.24676514 297.80305481 C33.45162491 297.80809457 31.65647541 297.81046405 29.86132812 297.81030273 C27.14697422 297.81248235 24.43303183 297.83065077 21.71875 297.84960938 C19.96354304 297.85254548 18.20833417 297.85452882 16.453125 297.85546875 C15.65690735 297.86265427 14.8606897 297.86983978 14.04034424 297.87724304 C9.60121341 297.85967491 5.44084343 297.4368642 1.07440186 296.6098175 C0.09686321 296.42638448 -0.88067543 296.24295145 -1.88783646 296.05395985 C-2.99523241 295.84162472 -2.99523241 295.84162472 -4.125 295.625 C-4.12923194 294.87117161 -4.13346388 294.11734322 -4.13782406 293.34067154 C-4.24288177 274.66807666 -4.3517138 255.99550689 -4.46433926 237.32295609 C-4.51872898 228.29164778 -4.57198043 219.2603358 -4.62231445 210.22900391 C-4.7288525 191.21413714 -4.8504899 172.19953717 -5.01036644 153.18503571 C-5.08228043 144.56332028 -5.14099807 135.94180414 -5.17632788 127.31985879 C-5.20309985 121.10345791 -5.25475702 114.88749982 -5.31605721 108.67134857 C-5.33665545 106.18646462 -5.34920765 103.70149694 -5.35253716 101.21652985 C-5.3930313 77.39965668 -7.8279278 54.92171191 -23.8125 36.1875 C-25.51796269 34.04740416 -26.11219197 33.11939004 -26.18359375 30.36328125 C-25.26257291 25.3433028 -23.10948179 21.75060718 -20.125 17.625 C-19.57171138 16.38010061 -19.03089418 15.12961314 -18.5 13.875 C-14.68570956 6.32005406 -9.30323129 -1.83753264 0 0 Z " fill="#FBFCFC" transform="translate(1143.125,229.375)"/>
<path d="M0 0 C0.66 0 1.32 0 2 0 C-0.12834905 13.14129722 -2.37998834 26.25660698 -4.77734375 39.3515625 C-4.90132412 40.02943817 -5.02530449 40.70731384 -5.15304184 41.4057312 C-5.67292219 44.24813368 -6.19306671 47.09048771 -6.71348 49.93279266 C-12.78319372 83.09126659 -18.47408577 116.30329288 -23.94897461 149.56494141 C-24.08301602 150.37836061 -24.21705744 151.19177982 -24.35516071 152.0298481 C-24.98476153 155.85061108 -25.61277107 159.67161474 -26.23664856 163.49331665 C-26.4575197 164.8383262 -26.67843862 166.1833279 -26.89941406 167.52832031 C-27.18368256 169.26773895 -27.18368256 169.26773895 -27.47369385 171.04229736 C-27.89336892 173.40076129 -28.37550563 175.68932665 -29 178 C-33.53327257 177.39986965 -37.37448712 176.21098608 -41.6015625 174.48046875 C-42.22787567 174.22573792 -42.85418884 173.97100708 -43.4994812 173.70855713 C-45.54403115 172.87465836 -47.5845906 172.031474 -49.625 171.1875 C-51.04872744 170.60335156 -52.4725569 170.01945169 -53.89648438 169.43579102 C-63.4600933 165.50550488 -72.99098146 161.49793895 -82.5 157.4375 C-83.64291504 156.94983154 -84.78583008 156.46216309 -85.96337891 155.9597168 C-102.60047325 148.7990535 -102.60047325 148.7990535 -104 146 C-97.07878639 135.77310657 -90.0697162 125.62542292 -82.81005859 115.63549805 C-79.14814227 110.59554188 -75.52512298 105.53061195 -71.9375 100.4375 C-71.44556152 99.73923096 -70.95362305 99.04096191 -70.44677734 98.3215332 C-68.96373212 96.21490718 -67.48167163 94.10759232 -66 92 C-59.34512836 82.53382944 -52.64575045 73.10428764 -45.85791016 63.73291016 C-40.16955257 55.87044158 -34.58109803 47.93878961 -29 40 C-22.70958064 31.05224176 -16.39480269 22.12359045 -10 13.25 C-9.18994507 12.12380249 -9.18994507 12.12380249 -8.36352539 10.97485352 C-2.40205776 2.72376192 -2.40205776 2.72376192 0 0 Z " fill="#082AA2" transform="translate(2081,57)"/>
<path d="M0 0 C2.23291016 0.91577148 2.23291016 0.91577148 3.23291016 2.91577148 C2.90291016 3.90577148 2.57291016 4.89577148 2.23291016 5.91577148 C3.03728516 5.73014648 3.84166016 5.54452148 4.67041016 5.35327148 C5.93884766 5.13670898 5.93884766 5.13670898 7.23291016 4.91577148 C7.72791016 5.41077148 7.72791016 5.41077148 8.23291016 5.91577148 C8.23291016 4.92577148 8.23291016 3.93577148 8.23291016 2.91577148 C10.23291016 1.22827148 10.23291016 1.22827148 12.23291016 -0.08422852 C13.23291016 2.91577148 13.23291016 2.91577148 12.34350586 4.74658203 C11.87001709 5.42503174 11.39652832 6.10348145 10.90869141 6.80249023 C10.11664307 7.95044067 10.11664307 7.95044067 9.30859375 9.12158203 C8.72674316 9.94053955 8.14489258 10.75949707 7.54541016 11.60327148 C6.95324707 12.45252197 6.36108398 13.30177246 5.75097656 14.17675781 C1.49837553 20.2364596 -2.90527551 26.17425521 -7.38500977 32.06713867 C-11.78159034 37.86943852 -15.89739786 43.84089545 -19.99365234 49.85717773 C-26.86225883 59.94072104 -33.98199929 69.85052974 -41.14208984 79.72827148 C-45.91657745 86.3215425 -50.64548179 92.94545343 -55.32958984 99.60327148 C-55.91337402 100.42867432 -56.4971582 101.25407715 -57.09863281 102.10449219 C-60.24585762 106.59376717 -63.13372504 111.10617856 -65.76708984 115.91577148 C-60.02102507 119.00700886 -54.26451796 121.76356275 -48.17724609 124.10717773 C-47.1951416 124.4888208 -46.21303711 124.87046387 -45.20117188 125.26367188 C-43.22321958 126.02413765 -41.23848988 126.76723281 -39.24707031 127.49169922 C-32.28152004 130.18268577 -32.28152004 130.18268577 -29.55224609 134.07202148 C-28.76708984 136.91577148 -28.76708984 136.91577148 -29.76708984 138.91577148 C-31.41072118 139.63736573 -33.0775937 140.30928569 -34.76708984 140.91577148 C-34.76708984 141.24577148 -34.76708984 141.57577148 -34.76708984 141.91577148 C-38.23650531 141.4575468 -41.44104033 141.02445466 -44.76708984 139.91577148 C-45.17024414 140.44009766 -45.57339844 140.96442383 -45.98876953 141.50463867 C-47.82858945 143.89397402 -49.67279057 146.27989227 -51.51708984 148.66577148 C-52.15130859 149.49077148 -52.78552734 150.31577148 -53.43896484 151.16577148 C-54.36708984 152.36459961 -54.36708984 152.36459961 -55.31396484 153.58764648 C-56.1623291 154.68737793 -56.1623291 154.68737793 -57.02783203 155.80932617 C-58.82431041 157.98507231 -60.74216178 159.95291018 -62.76708984 161.91577148 C-62.76708984 158.76493568 -62.54741393 156.84198681 -61.76708984 153.91577148 C-61.76708984 153.25577148 -61.76708984 152.59577148 -61.76708984 151.91577148 C-64.67309246 150.65912171 -66.56313569 149.91577148 -69.76708984 149.91577148 C-70.01201172 150.45717773 -70.25693359 150.99858398 -70.50927734 151.55639648 C-72.06062772 154.46638291 -73.93423288 157.01319108 -75.89208984 159.66577148 C-76.61654297 160.65061523 -77.34099609 161.63545898 -78.08740234 162.65014648 C-78.64169922 163.39780273 -79.19599609 164.14545898 -79.76708984 164.91577148 C-81.35387551 159.26127335 -81.18479571 153.58659496 -79.76708984 147.91577148 C-80.42708984 147.91577148 -81.08708984 147.91577148 -81.76708984 147.91577148 C-82.09708984 146.26577148 -82.42708984 144.61577148 -82.76708984 142.91577148 C-83.75708984 142.91577148 -84.74708984 142.91577148 -85.76708984 142.91577148 C-87.02373962 145.8217741 -87.76708984 147.71181733 -87.76708984 150.91577148 C-88.75708984 150.91577148 -89.74708984 150.91577148 -90.76708984 150.91577148 C-91.42708984 152.56577148 -92.08708984 154.21577148 -92.76708984 155.91577148 C-95.54816036 152.64037775 -96.79628455 149.44677604 -98.14208984 145.38452148 C-98.35269043 144.75276001 -98.56329102 144.12099854 -98.78027344 143.47009277 C-99.22412739 142.13318425 -99.66432178 140.79505587 -100.10107422 139.45581055 C-100.75683288 137.44718909 -101.42496608 135.44303531 -102.09521484 133.43920898 C-109.53097218 111.0348282 -109.53097218 111.0348282 -107.76708984 105.91577148 C-106.4922924 104.27462387 -106.4922924 104.27462387 -104.84664917 102.64129639 C-104.22432907 102.01629745 -103.60200897 101.39129852 -102.96083069 100.74736023 C-102.27411789 100.0730043 -101.58740509 99.39864838 -100.87988281 98.70385742 C-99.79925316 97.62498009 -99.79925316 97.62498009 -98.6967926 96.52430725 C-96.30784047 94.14255558 -93.90854704 91.77150055 -91.50927734 89.40014648 C-89.84523176 87.74423886 -88.18192188 86.0875916 -86.51931763 84.43023682 C-82.13237702 80.06043925 -77.73696073 75.69927123 -73.33929443 71.340271 C-66.31961882 64.37968704 -59.31238934 57.40658118 -52.30594254 50.43268585 C-49.8631953 48.00382893 -47.41662695 45.57887465 -44.9694519 43.15447998 C-43.45643444 41.65149664 -41.94350083 40.14842889 -40.43066406 38.64526367 C-39.75609665 37.97900467 -39.08152924 37.31274567 -38.38652039 36.626297 C-34.52391183 32.7815792 -30.85676614 28.824543 -27.30495834 24.69045734 C-23.61613393 20.43358848 -19.63733827 16.44326487 -15.68701172 12.43066406 C-14.64723789 11.36903658 -13.61379181 10.30117848 -12.58642578 9.22753906 C-11.08531254 7.65980977 -9.56567432 6.11242869 -8.04052734 4.56811523 C-7.14769043 3.65022217 -6.25485352 2.7323291 -5.33496094 1.78662109 C-2.76708984 -0.08422852 -2.76708984 -0.08422852 0 0 Z " fill="#F5F8F9" transform="translate(2043.76708984375,88.084228515625)"/>
<path d="M0 0 C1.70692348 1.28603363 1.70692348 1.28603363 3 3 C3.56768564 10.19889153 2.333219 16.96948145 1.03491211 24.03710938 C0.82464606 25.21675955 0.61438002 26.39640972 0.39774227 27.61180687 C-0.18032849 30.84564292 -0.765346 34.07812728 -1.35355043 37.3101325 C-1.97983605 40.7607023 -2.59723353 44.21286333 -3.21578979 47.66482544 C-4.40941687 54.31769477 -5.61151355 60.96900579 -6.8167541 67.61977994 C-7.78503954 72.96411642 -8.74980929 78.30907693 -9.71218872 83.65447998 C-9.84837083 84.41085082 -9.98455294 85.16722165 -10.12486178 85.94651282 C-10.32922505 87.08158115 -10.32922505 87.08158115 -10.53771687 88.23958015 C-16.92503393 123.71579468 -23.37006184 159.1816527 -29.9375 194.625 C-30.09428852 195.47134003 -30.25107704 196.31768005 -30.41261673 197.18966675 C-31.29520589 201.9517403 -32.17991916 206.71341122 -33.06805801 211.47445297 C-33.32797678 212.86783894 -33.5875886 214.26128221 -33.84685898 215.65478897 C-34.19339482 217.51570823 -34.54183208 219.37627312 -34.89038086 221.23681641 C-35.08224472 222.26271881 -35.27410858 223.28862122 -35.4717865 224.34561157 C-35.64609695 225.22155975 -35.82040741 226.09750793 -36 227 C-36.14663589 227.75824066 -36.29327179 228.51648132 -36.4443512 229.29769897 C-36.6277153 229.85945831 -36.81107941 230.42121765 -37 231 C-41.03247798 233.01623899 -45.14236444 232.28172645 -49.29467773 230.91772461 C-50.41302002 230.41764893 -51.5313623 229.91757324 -52.68359375 229.40234375 C-53.29718246 229.13234558 -53.91077118 228.86234741 -54.54295349 228.58416748 C-56.51335489 227.71387222 -58.47525257 226.82600549 -60.4375 225.9375 C-61.78672973 225.33772691 -63.13650433 224.73917805 -64.48681641 224.1418457 C-67.13102751 222.97015396 -69.77220403 221.79204956 -72.41064453 220.60742188 C-76.88559851 218.60340222 -81.3783657 216.64221056 -85.875 214.6875 C-87.91735393 213.79322238 -89.95872052 212.89672821 -92 212 C-91.34 211.01 -90.68 210.02 -90 209 C-87.375 208.8125 -87.375 208.8125 -85 209 C-83.90341064 205.71023192 -84.20046862 204.28696233 -85 201 C-72 206 -59 211 -46 216 C-45.88263489 215.01444626 -45.76526978 214.02889252 -45.64434814 213.01347351 C-44.52667926 203.76905931 -43.20100596 194.58125264 -41.671875 185.39453125 C-41.44381122 184.01312418 -41.21588503 182.63169438 -40.98808289 181.25024414 C-40.37507789 177.54138698 -39.7569035 173.83341112 -39.13679123 170.12573624 C-38.74693777 167.79418607 -38.35817252 165.46245623 -37.96951294 163.13070679 C-33.80406935 138.16908108 -29.42410539 113.24823392 -24.89851379 88.34948349 C-24.44016352 85.82715749 -23.982795 83.30465482 -23.5255127 80.78213501 C-22.80164596 76.79254078 -22.07378347 72.80369487 -21.34263039 68.81542969 C-21.07571336 67.3580246 -20.80966044 65.90046092 -20.5445919 64.44271851 C-18.92913703 55.57018642 -17.1125419 46.76900997 -15 38 C-19.44499082 42.13929442 -22.86985888 46.74129939 -26.375 51.6875 C-26.94718262 52.48462402 -27.51936523 53.28174805 -28.10888672 54.10302734 C-30.54735234 57.50829161 -32.96712156 60.92160661 -35.296875 64.40234375 C-35.90015625 65.30082031 -36.5034375 66.19929688 -37.125 67.125 C-37.62257813 67.89070313 -38.12015625 68.65640625 -38.6328125 69.4453125 C-39.08398438 69.95835938 -39.53515625 70.47140625 -40 71 C-40.99 71 -41.98 71 -43 71 C-43.99 71.33 -44.98 71.66 -46 72 C-45.67 73.32 -45.34 74.64 -45 76 C-45.99 76.33 -46.98 76.66 -48 77 C-48.33 76.01 -48.66 75.02 -49 74 C-49.495 75.485 -49.495 75.485 -50 77 C-50 76.34 -50 75.68 -50 75 C-50.66 75 -51.32 75 -52 75 C-52.144375 74.38125 -52.28875 73.7625 -52.4375 73.125 C-52.93152225 70.96741678 -52.93152225 70.96741678 -54 69 C-57.86669782 71.12743608 -60.76719625 73.53193427 -63.86328125 76.66796875 C-64.74951172 77.56064453 -65.63574219 78.45332031 -66.54882812 79.37304688 C-67.46083984 80.30181641 -68.37285156 81.23058594 -69.3125 82.1875 C-70.2527888 83.1378315 -71.19353971 84.087706 -72.13476562 85.03710938 C-74.42775959 87.35362123 -76.71594652 89.67467801 -79 92 C-79.99 91.34 -80.98 90.68 -82 90 C-82.1875 86.875 -82.1875 86.875 -82 84 C-83.65 84 -85.3 84 -87 84 C-85.49622732 80.47552204 -83.46154914 78.22424627 -80.74975586 75.53857422 C-79.87222153 74.66441864 -78.99468719 73.79026306 -78.09056091 72.88961792 C-77.13201992 71.94460927 -76.17344676 70.99963324 -75.21484375 70.0546875 C-74.23309878 69.07921603 -73.25186924 68.10322556 -72.27113342 67.1267395 C-69.69305471 64.56194141 -67.1094626 62.00277627 -64.52423096 59.44519043 C-60.38159008 55.3457336 -56.24570853 51.23948429 -52.1130085 47.1300087 C-50.66786343 45.69509728 -49.21936031 44.2636402 -47.77049255 42.83248901 C-46.89611038 41.96463776 -46.02172821 41.0967865 -45.12084961 40.20263672 C-44.34744736 39.43748749 -43.5740451 38.67233826 -42.77720642 37.88400269 C-40.93731726 36.11499476 -40.93731726 36.11499476 -40 34 C-40.556875 34.350625 -41.11375 34.70125 -41.6875 35.0625 C-44.59885163 36.24277769 -46.02993989 35.91386465 -49 35 C-49.99 34.34 -50.98 33.68 -52 33 C-51.34 32.34 -50.68 31.68 -50 31 C-50.33 30.67 -50.66 30.34 -51 30 C-51.04063832 28.33382885 -51.042721 26.66611905 -51 25 C-50.40799805 24.6690332 -49.81599609 24.33806641 -49.20605469 23.99707031 C-46.38560743 22.41783722 -43.56768606 20.83415433 -40.75 19.25 C-39.71544678 18.67032471 -38.68089355 18.09064941 -37.61499023 17.4934082 C-32.445711 14.57974268 -27.32760937 11.61887997 -22.30078125 8.46484375 C-21.41616211 7.91344727 -20.53154297 7.36205078 -19.62011719 6.79394531 C-17.95362299 5.74721643 -16.29612103 4.68598855 -14.64941406 3.60839844 C-9.49611638 0.38348793 -6.10052014 -0.86210155 0 0 Z " fill="#F7F8FA" transform="translate(2098,19)"/>
<path d="M0 0 C-1.58209752 3.85168227 -4.18080673 6.48812842 -7.07055664 9.39181519 C-7.59198809 9.92342227 -8.11341953 10.45502936 -8.65065193 11.00274575 C-10.39902055 12.7825038 -12.15449632 14.55507295 -13.91015625 16.32763672 C-15.16549057 17.60205212 -16.42047157 18.87681563 -17.67512512 20.15190125 C-21.79627042 24.33574689 -25.92849391 28.50855406 -30.0625 32.6796875 C-30.76569618 33.38947833 -31.46889236 34.09926915 -32.19339752 34.83056879 C-38.82450864 41.52321868 -45.45968661 48.21181084 -52.10467529 54.89068413 C-60.60485244 63.43471718 -69.08430153 71.99822177 -77.53667355 80.58955753 C-83.48189798 86.62918641 -89.44986658 92.64573151 -95.43520451 98.64560711 C-99.00991292 102.23023639 -102.57375674 105.82431292 -106.11355591 109.44344711 C-109.44311014 112.84663487 -112.79988903 116.22036821 -116.17972374 119.57360268 C-117.41486889 120.80885588 -118.63978733 122.05443341 -119.85343361 123.31081581 C-129.03063375 132.79361009 -129.03063375 132.79361009 -133.87528706 133.30133057 C-136.48134741 132.81128611 -138.5886038 132.08492378 -141 131 C-142.396154 130.57389913 -143.79626067 130.16026885 -145.2019043 129.76660156 C-146.57810666 129.31427529 -147.95218081 128.8554302 -149.32421875 128.390625 C-150.07355179 128.1413324 -150.82288483 127.89203979 -151.59492493 127.63519287 C-153.16801377 127.11028139 -154.74012799 126.58244053 -156.3112793 126.05175781 C-158.66264504 125.25838628 -161.01749276 124.47614829 -163.37304688 123.6953125 C-173.05966384 120.46123539 -182.56578463 116.90887235 -192 113 C-189.43984097 110.28761336 -187.04732147 108.25021108 -183.7890625 106.44140625 C-182.96857422 105.98032471 -182.14808594 105.51924316 -181.30273438 105.04418945 C-180.41908203 104.55523193 -179.53542969 104.06627441 -178.625 103.5625 C-176.71013457 102.48580174 -174.79609644 101.40763107 -172.8828125 100.328125 C-171.9021582 99.77576172 -170.92150391 99.22339844 -169.91113281 98.65429688 C-165.40800276 96.0953226 -160.95279932 93.45780485 -156.5 90.8125 C-147.9933888 85.76721537 -139.4714426 80.74886085 -130.9375 75.75 C-130.32769287 75.39273834 -129.71788574 75.03547668 -129.08959961 74.66738892 C-125.97246136 72.84118723 -122.85517573 71.01523737 -119.73779297 69.18945312 C-114.25942013 65.98070463 -108.78247753 62.7695165 -103.30545044 59.55847168 C-100.2870278 57.78887734 -97.26850895 56.01944712 -94.25 54.25 C-93.04166621 53.54166745 -91.83333287 52.83333412 -90.625 52.125 C-88.20833333 50.70833333 -85.79166667 49.29166667 -83.375 47.875 C-82.77688507 47.52438004 -82.17877014 47.17376007 -81.56253052 46.81251526 C-80.35409852 46.10412584 -79.14566346 45.39574165 -77.93722534 44.68736267 C-74.91787646 42.91743021 -71.89858069 41.14740728 -68.87939453 39.37719727 C-63.4243742 36.17892737 -57.96898319 32.9812992 -52.51158142 29.78709412 C-50.07112867 28.35864003 -47.63095597 26.929708 -45.19082642 25.5007019 C-43.98730742 24.79601798 -42.78367511 24.09152754 -41.57992554 23.38723755 C-34.78501647 19.41124465 -28.00401626 15.41358323 -21.24609375 11.375 C-19.98585362 10.62310517 -18.72559993 9.87123306 -17.46533203 9.11938477 C-15.07399745 7.69249469 -12.68623426 6.25986031 -10.30029297 4.82397461 C-9.2382666 4.18983643 -8.17624023 3.55569824 -7.08203125 2.90234375 C-5.67787964 2.05917603 -5.67787964 2.05917603 -4.24536133 1.19897461 C-2 0 -2 0 0 0 Z " fill="#082AA2" transform="translate(2058,53)"/>
<path d="M0 0 C0.99 0.99 0.99 0.99 2 2 C-27.25 42.5 -27.25 42.5 -28.875 44.74975586 C-29.95864236 46.25034655 -31.04197556 47.75116054 -32.125 49.25219727 C-34.82611897 52.99504887 -37.5324371 56.73391079 -40.25 60.46484375 C-45.78045999 68.06922623 -51.21531374 75.72241722 -56.5 83.5 C-60.93993388 90.022333 -65.42129804 96.51161885 -70 102.9375 C-70.79180664 104.06478516 -70.79180664 104.06478516 -71.59960938 105.21484375 C-72.10298828 105.91609375 -72.60636719 106.61734375 -73.125 107.33984375 C-73.56070312 107.95206787 -73.99640625 108.56429199 -74.4453125 109.19506836 C-76 111 -76 111 -78.54418945 112.69140625 C-82.0071527 115.9467776 -82.35338361 119.03111739 -83.16796875 123.59765625 C-83.41659416 124.84366859 -83.41659416 124.84366859 -83.67024231 126.11485291 C-84.19504204 128.76076288 -84.69249988 131.41086835 -85.1875 134.0625 C-85.69782755 136.71653979 -86.21385235 139.36929516 -86.7368927 142.02085876 C-87.06035812 143.66860545 -87.37567626 145.3179772 -87.68193054 146.9690094 C-88.36800111 150.53416082 -88.96131368 152.94197052 -91 156 C-95.18577646 145.92360195 -98.81690913 135.79094659 -101.875 125.3125 C-102.172854 124.29800781 -102.47070801 123.28351563 -102.77758789 122.23828125 C-104.34462315 116.75570835 -104.34462315 116.75570835 -105 114 C-105.31756256 112.94672516 -105.63512512 111.89345032 -105.96231079 110.80825806 C-106.00321602 106.67504179 -105.83827119 106.25265517 -103.28210449 103.32679749 C-101.95798134 101.98253335 -100.61135614 100.66021894 -99.24804688 99.35571289 C-98.51816559 98.62626968 -97.7882843 97.89682648 -97.0362854 97.14527893 C-94.61542514 94.73510029 -92.16756207 92.35440212 -89.71875 89.97265625 C-88.02833951 88.29971597 -86.33976516 86.6249185 -84.6529541 84.948349 C-80.20118566 80.53281873 -75.72639838 76.14136791 -71.24597168 71.75494385 C-65.82690333 66.4415106 -60.43408116 61.10147262 -55.03839874 55.76431179 C-50.83474385 51.60697472 -46.62705978 47.45402571 -42.40612793 43.31422424 C-41.23556351 42.16344894 -41.23556351 42.16344894 -40.04135132 40.98942566 C-38.59817235 39.57089329 -37.15294679 38.15443823 -35.70510864 36.74066162 C-31.79899486 32.8957122 -28.10648012 28.93533724 -24.54127407 24.7715826 C-22.23498281 22.1206683 -19.77714941 19.6654141 -17.28515625 17.1875 C-16.78455185 16.68831055 -16.28394745 16.18912109 -15.76817322 15.67480469 C-14.20199236 14.1141263 -12.63233529 12.55700153 -11.0625 11 C-9.98609346 9.92862113 -8.90991986 8.85700818 -7.83398438 7.78515625 C-5.22533255 5.18740362 -2.61355529 2.59282038 0 0 Z " fill="#092AA2" transform="translate(2041,88)"/>
<path d="M0 0 C0.82757812 0.28101563 1.65515625 0.56203125 2.5078125 0.8515625 C8.47658526 3.05866497 8.47658526 3.05866497 10.0078125 5.8125 C10.5625 7.75 10.5625 7.75 11 11 C9.02 11.66 7.04 12.32 5 13 C5 13.33 5 13.66 5 14 C1.53058454 13.54177532 -1.67395049 13.10868317 -5 12 C-5.60473145 12.78648926 -5.60473145 12.78648926 -6.22167969 13.58886719 C-8.06149961 15.97820254 -9.90570073 18.36412078 -11.75 20.75 C-12.38421875 21.575 -13.0184375 22.4 -13.671875 23.25 C-14.290625 24.04921875 -14.909375 24.8484375 -15.546875 25.671875 C-16.11245117 26.4050293 -16.67802734 27.13818359 -17.26074219 27.89355469 C-19.05722057 30.06930083 -20.97507193 32.03713869 -23 34 C-23 30.8491642 -22.78032409 28.92621532 -22 26 C-22 25.34 -22 24.68 -22 24 C-24.90600261 22.74335022 -26.79604584 22 -30 22 C-30.24492188 22.54140625 -30.48984375 23.0828125 -30.7421875 23.640625 C-32.29353788 26.55061143 -34.16714304 29.0974196 -36.125 31.75 C-36.84945313 32.73484375 -37.57390625 33.7196875 -38.3203125 34.734375 C-39.15175781 35.85585937 -39.15175781 35.85585937 -40 37 C-41.49754868 33.03616194 -40.56720878 29.41079477 -39.78515625 25.390625 C-39.65056503 24.66381531 -39.51597382 23.93700562 -39.37730408 23.18817139 C-38.94688172 20.87389876 -38.50486362 18.56201668 -38.0625 16.25 C-37.7681122 14.6785291 -37.47448355 13.10691577 -37.18164062 11.53515625 C-36.4632161 7.68839791 -35.73438626 3.84374163 -35 0 C-30.11438797 0.74995674 -26.44338728 2.05771622 -22.05078125 4.2578125 C-19.84924893 5.29430245 -19.84924893 5.29430245 -17 4 C-16.731875 3.195625 -16.46375 2.39125 -16.1875 1.5625 C-15 -1 -15 -1 -12.4375 -2.5 C-7.62210853 -3.20042058 -4.42362577 -1.81296138 0 0 Z " fill="#F6F8F9" transform="translate(2004,216)"/>
<path d="M0 0 C5.00796883 0.62316354 8.44839426 3.04596773 12.640625 5.7421875 C13.85008789 6.49145508 13.85008789 6.49145508 15.08398438 7.25585938 C22.16820004 11.70189664 22.16820004 11.70189664 24.453125 14.4296875 C24.84678068 17.57893298 24.98167031 19.54877866 23.328125 22.3046875 C20.54670097 23.97354192 18.67313034 23.72517034 15.453125 23.4296875 C12.96816855 22.26627607 10.77031306 21.10642775 8.453125 19.6796875 C7.86273437 19.33164062 7.27234375 18.98359375 6.6640625 18.625 C4.91180921 17.58291104 3.18205623 16.50992947 1.453125 15.4296875 C0.34066406 14.75421875 -0.77179688 14.07875 -1.91796875 13.3828125 C-4.546875 11.4296875 -4.546875 11.4296875 -5.609375 7.9296875 C-5.546875 4.4296875 -5.546875 4.4296875 -4.484375 1.9921875 C-2.546875 0.4296875 -2.546875 0.4296875 0 0 Z " fill="#F3F4F5" transform="translate(1784.546875,279.5703125)"/>
<path d="M0 0 C1.24136719 0.0309375 2.48273438 0.061875 3.76171875 0.09375 C5.61216797 0.17109375 5.61216797 0.17109375 7.5 0.25 C8.6446875 0.29640625 9.789375 0.3428125 10.96875 0.390625 C14.55620559 1.11181453 15.79898395 2.12379304 18 5 C18.55156953 8.76905843 18.16551116 9.75173326 16 13 C13.86450195 13.37231445 13.86450195 13.37231445 11.23828125 13.36328125 C10.28373047 13.36263672 9.32917969 13.36199219 8.34570312 13.36132812 C7.34474609 13.34521484 6.34378906 13.32910156 5.3125 13.3125 C4.33087891 13.31572266 3.34925781 13.31894531 2.33789062 13.32226562 C-3.11703007 13.28202141 -7.90785522 13.03822127 -13 11 C-15.15502531 7.76746204 -15.46856135 6.74849077 -15 3 C-11.44250684 -1.91495766 -5.43360027 -0.24393267 0 0 Z " fill="#F4F4F6" transform="translate(1841,302)"/>
<path d="M0 0 C4.27620664 0.64375783 7.53933009 1.54099829 11.375 3.5625 C12.68597656 4.24505859 12.68597656 4.24505859 14.0234375 4.94140625 C14.67570312 5.29074219 15.32796875 5.64007813 16 6 C14.74478703 9.41684456 13.3210999 12.21081831 11.171875 15.14453125 C10.61886719 15.90443359 10.06585937 16.66433594 9.49609375 17.44726562 C8.91988281 18.22779297 8.34367187 19.00832031 7.75 19.8125 C7.18925781 20.58142578 6.62851563 21.35035156 6.05078125 22.14257812 C2.40874813 27.12619157 -1.28556343 32.07019034 -5 37 C-6.49754868 33.03616194 -5.56720878 29.41079477 -4.78515625 25.390625 C-4.65056503 24.66381531 -4.51597382 23.93700562 -4.37730408 23.18817139 C-3.94688172 20.87389876 -3.50486362 18.56201668 -3.0625 16.25 C-2.7681122 14.6785291 -2.47448355 13.10691577 -2.18164062 11.53515625 C-1.4632161 7.68839791 -0.73438626 3.84374163 0 0 Z " fill="#082AA2" transform="translate(1969,216)"/>
<path d="M0 0 C0.33 0 0.66 0 1 0 C2.66040326 57.31861555 3.21981167 114.6595587 3 172 C2.34 171.67 1.68 171.34 1 171 C-0.13809718 153.19734054 -0.13335456 135.41069216 -0.10139394 117.58136344 C-0.09505209 113.43346054 -0.09454818 109.28555654 -0.09336853 105.13764954 C-0.09028663 97.31849646 -0.08211654 89.49935771 -0.07201904 81.68021089 C-0.06075913 72.76332964 -0.05532281 63.84644763 -0.05032361 54.92956102 C-0.03993052 36.61969928 -0.02239332 18.3098508 0 0 Z " fill="#D1D4E2" transform="translate(635,314)"/>
<path d="M0 0 C1.9375 1.0625 1.9375 1.0625 3 3 C3.04278317 5.33294107 3.04584856 7.66711716 3 10 C0.80040031 11.34989131 -1.407838 12.6795172 -3.625 14 C-4.24246094 14.3815625 -4.85992188 14.763125 -5.49609375 15.15625 C-9.47568975 17.50211712 -12.24909911 18.56591613 -17 18 C-18.875 16.9375 -18.875 16.9375 -20 15 C-20.44921875 11.65625 -20.44921875 11.65625 -20 8 C-17.89826117 6.03100257 -16.38971499 4.90812947 -13.9375 3.5625 C-12.81214844 2.88316406 -11.68679688 2.20382812 -10.52734375 1.50390625 C-6.68505778 -0.13427769 -4.1323322 -0.37474581 0 0 Z " fill="#F3F5F7" transform="translate(1910,287)"/>
<path d="M0 0 C0.33 0 0.66 0 1 0 C1 75.24 1 150.48 1 228 C0.67 228 0.34 228 0 228 C0 162 0 96 0 28 C-0.66 28 -1.32 28 -2 28 C-2 25.36 -2 22.72 -2 20 C-1.34 20 -0.68 20 0 20 C0 13.4 0 6.8 0 0 Z " fill="#0B2AA7" transform="translate(126,292)"/>
<path d="M0 0 C2.59847505 -0.30395006 4.90639107 -0.4186308 7.5 -0.375 C8.18964844 -0.38660156 8.87929687 -0.39820313 9.58984375 -0.41015625 C11.59375 -0.3984375 11.59375 -0.3984375 15 0 C15.66 0.99 16.32 1.98 17 3 C17.99 3.33 18.98 3.66 20 4 C20 4.66 20 5.32 20 6 C11.09 6 2.18 6 -7 6 C-4 4 -4 4 -2 3 C-1.34 2.01 -0.68 1.02 0 0 Z " fill="#2842B0" transform="translate(1265,225)"/>
<path d="M0 0 C0 0.66 0 1.32 0 2 C1.32 2.33 2.64 2.66 4 3 C1.56926513 3.81024496 0.21076786 4.05126786 -2.3125 3.4375 C-5.07039258 2.77098188 -5.07039258 2.77098188 -7.87109375 3.98828125 C-13.39314635 5.65941924 -19.05695816 5.03170403 -24.75 4.75 C-26.45349609 4.69005859 -26.45349609 4.69005859 -28.19140625 4.62890625 C-36.61095238 4.25936508 -36.61095238 4.25936508 -40 2 C-38.72153198 1.96241577 -38.72153198 1.96241577 -37.41723633 1.92407227 C-34.23955034 1.82864431 -31.06201106 1.72942876 -27.88452148 1.62768555 C-26.51217224 1.5845116 -25.13977533 1.54282499 -23.76733398 1.50268555 C-21.78877932 1.44455608 -19.8104003 1.3805429 -17.83203125 1.31640625 C-16.64327393 1.27974854 -15.4545166 1.24309082 -14.22973633 1.20532227 C-9.37376008 0.89661594 -4.90628531 -0.11409966 0 0 Z " fill="#2944B2" transform="translate(957,530)"/>
<path d="M0 0 C0.93065133 2.60582371 1.14917407 3.64198224 0.0625 6.25 C-0.288125 6.8275 -0.63875 7.405 -1 8 C-1.66 8 -2.32 8 -3 8 C-2.67 8.99 -2.34 9.98 -2 11 C-2.721875 11.391875 -3.44375 11.78375 -4.1875 12.1875 C-7.22801329 14.1469419 -9.48374365 16.41573672 -12 19 C-12.66 19.33 -13.32 19.66 -14 20 C-12.56975694 15.74019498 -10.45598596 12.85361889 -7.5625 9.4375 C-4.95783804 6.34365935 -2.38878658 3.26441896 0 0 Z " fill="#F2F6F5" transform="translate(844,260)"/>
<path d="M0 0 C0.33 0.66 0.66 1.32 1 2 C-0.75 4 -0.75 4 -3 6 C-4.32 6 -5.64 6 -7 6 C-7.33 6.99 -7.66 7.98 -8 9 C-9.32 8.67 -10.64 8.34 -12 8 C-12.33 9.65 -12.66 11.3 -13 13 C-15 10 -15 10 -15 6 C-10.05 4.02 -5.1 2.04 0 0 Z " fill="#F4F7F7" transform="translate(303,234)"/>
<path d="M0 0 C2.05078125 0.03255208 4.1015625 0.06510417 6.15234375 0.09765625 C5.49234375 0.75765625 4.83234375 1.41765625 4.15234375 2.09765625 C2.83234375 2.09765625 1.51234375 2.09765625 0.15234375 2.09765625 C-0.50765625 3.74765625 -1.16765625 5.39765625 -1.84765625 7.09765625 C-4.48765625 7.09765625 -7.12765625 7.09765625 -9.84765625 7.09765625 C-9.84765625 5.44765625 -9.84765625 3.79765625 -9.84765625 2.09765625 C-8.71328125 1.95328125 -7.57890625 1.80890625 -6.41015625 1.66015625 C-3.51115113 1.2024186 -2.54328457 0.13442307 0 0 Z " fill="#EEEFF3" transform="translate(479.84765625,231.90234375)"/>
<path d="M0 0 C0.33 0 0.66 0 1 0 C1 9.24 1 18.48 1 28 C0.01 28 -0.98 28 -2 28 C-2 25.36 -2 22.72 -2 20 C-1.34 20 -0.68 20 0 20 C0 13.4 0 6.8 0 0 Z " fill="#344BB3" transform="translate(126,292)"/>
<path d="M0 0 C4.29 1.65 8.58 3.3 13 5 C11 7 11 7 8 8 C7.34 7.67 6.68 7.34 6 7 C6 6.34 6 5.68 6 5 C5.01 5.495 5.01 5.495 4 6 C3.01 6 2.02 6 1 6 C0.67 4.02 0.34 2.04 0 0 Z " fill="#EFF5F4" transform="translate(1999,214)"/>
<path d="M0 0 C0.99 0.33 1.98 0.66 3 1 C2.01 5.95 1.02 10.9 0 16 C-0.33 14.68 -0.66 13.36 -1 12 C-1.66 12 -2.32 12 -3 12 C-3 11.01 -3 10.02 -3 9 C-2.34 9 -1.68 9 -1 9 C-1.020625 7.700625 -1.04125 6.40125 -1.0625 5.0625 C-1.08399454 3.70834367 -1.07148199 2.35243917 -1 1 C-0.67 0.67 -0.34 0.34 0 0 Z " fill="#F5F7F7" transform="translate(1717,309)"/>
<path d="M0 0 C0 0.66 0 1.32 0 2 C0.99 1.67 1.98 1.34 3 1 C2.67 2.32 2.34 3.64 2 5 C-2.455 4.01 -2.455 4.01 -7 3 C-7 2.01 -7 1.02 -7 0 C-4.3333581 -1.33332095 -2.83319697 -0.67102033 0 0 Z " fill="#F2F5F6" transform="translate(518,524)"/>
<path d="M0 0 C0.99 0.33 1.98 0.66 3 1 C3.94921875 3.72265625 3.94921875 3.72265625 4.6875 7.0625 C4.93886719 8.16722656 5.19023437 9.27195312 5.44921875 10.41015625 C5.63097656 11.26480469 5.81273437 12.11945313 6 13 C5.01 13 4.02 13 3 13 C2.01 10.03 1.02 7.06 0 4 C0.66 4 1.32 4 2 4 C2 3.34 2 2.68 2 2 C1.34 2 0.68 2 0 2 C0 1.34 0 0.68 0 0 Z " fill="#1231A5" transform="translate(296,459)"/>
<path d="M0 0 C0.99 0.33 1.98 0.66 3 1 C0.03 3.97 -2.94 6.94 -6 10 C-6.33 9.01 -6.66 8.02 -7 7 C-6.34 7 -5.68 7 -5 7 C-5.66 5.35 -6.32 3.7 -7 2 C-6.34 1.67 -5.68 1.34 -5 1 C-4.34 1.66 -3.68 2.32 -3 3 C-2.01 2.01 -1.02 1.02 0 0 Z " fill="#E5E9F2" transform="translate(2007,120)"/>
<path d="M0 0 C0.33 0 0.66 0 1 0 C1.80744585 5.47820952 2.44274192 10.56197276 1 16 C-0.98 16.99 -0.98 16.99 -3 18 C-2.01 12.06 -1.02 6.12 0 0 Z " fill="#F1F4F4" transform="translate(2077,86)"/>
<path d="M0 0 C1.18414294 3.55242882 0.69535532 4.69830562 -0.4375 8.1875 C-0.72496094 9.08855469 -1.01242187 9.98960937 -1.30859375 10.91796875 C-1.53675781 11.60503906 -1.76492188 12.29210937 -2 13 C-2.99 12.67 -3.98 12.34 -5 12 C-4.64989059 3.64989059 -4.64989059 3.64989059 -1.9375 0.9375 C-1.298125 0.628125 -0.65875 0.31875 0 0 Z " fill="#F4F5F8" transform="translate(1663,508)"/>
<path d="M0 0 C0.66 0.33 1.32 0.66 2 1 C1.360625 1.4125 0.72125 1.825 0.0625 2.25 C-2.28272484 4.23988774 -2.32996702 5.12843008 -3 8 C-3.99 8.33 -4.98 8.66 -6 9 C-6.66 8.34 -7.32 7.68 -8 7 C-8.66 6.67 -9.32 6.34 -10 6 C-8.3811004 4.96951963 -6.75467511 3.95085322 -5.125 2.9375 C-4.22007812 2.36902344 -3.31515625 1.80054688 -2.3828125 1.21484375 C-1.20332031 0.61349609 -1.20332031 0.61349609 0 0 Z " fill="#F3F6F8" transform="translate(872,239)"/>
<path d="M0 0 C0.33 0.99 0.66 1.98 1 3 C-0.25 4.5 -0.25 4.5 -2 6 C-3.32 6 -4.64 6 -6 6 C-5.67 6.66 -5.34 7.32 -5 8 C-7.375 8.625 -7.375 8.625 -10 9 C-10.66 8.34 -11.32 7.68 -12 7 C-8.04 4.69 -4.08 2.38 0 0 Z " fill="#EDF4F3" transform="translate(2042,47)"/>
<path d="M0 0 C0.99 0.33 1.98 0.66 3 1 C3 2.32 3 3.64 3 5 C3.99 5.33 4.98 5.66 6 6 C5.67 6.99 5.34 7.98 5 9 C2.5625 8.375 2.5625 8.375 0 7 C-0.875 3.9375 -0.875 3.9375 -1 1 C-0.67 0.67 -0.34 0.34 0 0 Z " fill="#F5F9F5" transform="translate(1476,639)"/>
<path d="M0 0 C0.99 0 1.98 0 3 0 C2.67 0.928125 2.34 1.85625 2 2.8125 C0.85032996 5.92029291 0.85032996 5.92029291 1 9 C0.34 8.67 -0.32 8.34 -1 8 C-1.66 9.32 -2.32 10.64 -3 12 C-3.99 12 -4.98 12 -6 12 C-4.02 8.04 -2.04 4.08 0 0 Z " fill="#F5F7F5" transform="translate(988,445)"/>
<path d="M0 0 C0.33 1.32 0.66 2.64 1 4 C1.66 4.33 2.32 4.66 3 5 C2.01 5.66 1.02 6.32 0 7 C-0.66 7.66 -1.32 8.32 -2 9 C-2.66 9 -3.32 9 -4 9 C-5.63676257 10.9600281 -5.63676257 10.9600281 -7 13 C-7.66 12.67 -8.32 12.34 -9 12 C-6.03 8.04 -3.06 4.08 0 0 Z " fill="#EDF2F4" transform="translate(1974,238)"/>
<path d="M0 0 C4.0042343 3.49087093 5.62671065 5.64951939 6 11 C3 11 3 11 1.3125 9.4375 C-0.43416783 6.19368832 -0.20922503 3.62656715 0 0 Z M3 6 C4 8 4 8 4 8 Z " fill="#F5F7F6" transform="translate(1401,101)"/>
<path d="M0 0 C0.66 0.33 1.32 0.66 2 1 C2.4140625 3.06640625 2.4140625 3.06640625 2.625 5.5625 C2.69976563 6.38878906 2.77453125 7.21507812 2.8515625 8.06640625 C2.90054687 8.70449219 2.94953125 9.34257812 3 10 C2.01 10.66 1.02 11.32 0 12 C-0.66 8.37 -1.32 4.74 -2 1 C-1.34 0.67 -0.68 0.34 0 0 Z " fill="#F5F6F7" transform="translate(1507,315)"/>
<path d="M0 0 C0.99 0.33 1.98 0.66 3 1 C2.67 1.66 2.34 2.32 2 3 C2.66 3.66 3.32 4.32 4 5 C2.35 6.32 0.7 7.64 -1 9 C-1 8.34 -1 7.68 -1 7 C-1.66 7 -2.32 7 -3 7 C-2.38722388 4.03824877 -1.74627478 2.61941217 0 0 Z " fill="#102FA8" transform="translate(1623,610)"/>
<path d="M0 0 C2.67868487 1.33934244 2.74954078 2.51692397 3.6875 5.3125 C3.95949219 6.09238281 4.23148438 6.87226563 4.51171875 7.67578125 C5.03839183 10.18274511 4.8178554 11.60132343 4 14 C2 12.375 2 12.375 0 10 C-0.1875 6.9375 -0.1875 6.9375 0 4 C-0.33 3.01 -0.66 2.02 -1 1 C-0.67 0.67 -0.34 0.34 0 0 Z " fill="#F4F6F5" transform="translate(1050,317)"/>
<path d="M0 0 C1.65 0 3.3 0 5 0 C5.66 2.31 6.32 4.62 7 7 C6.34 7 5.68 7 5 7 C4.67 6.34 4.34 5.68 4 5 C3.34 5 2.68 5 2 5 C1.67 5.66 1.34 6.32 1 7 C0.67 4.69 0.34 2.38 0 0 Z " fill="#F3F5F6" transform="translate(289,128)"/>
<path d="M0 0 C0.66 0.33 1.32 0.66 2 1 C1.45276317 4.37462715 0.9451 6.08235 -1 9 C-1.66 9 -2.32 9 -3 9 C-3.33 9.66 -3.66 10.32 -4 11 C-4.33 10.34 -4.66 9.68 -5 9 C-4.2578125 7.08984375 -4.2578125 7.08984375 -3.125 4.9375 C-2.75632812 4.22464844 -2.38765625 3.51179688 -2.0078125 2.77734375 C-1 1 -1 1 0 0 Z " fill="#EFF5F5" transform="translate(1205,259)"/>
<path d="M0 0 C-0.75 2.9375 -0.75 2.9375 -2 6 C-4.125 6.875 -4.125 6.875 -6 7 C-7 4 -7 4 -6 1 C-4 0 -4 0 0 0 Z " fill="#F4F6F5" transform="translate(1216,251)"/>
<path d="M0 0 C0 0.66 0 1.32 0 2 C1.32 2.33 2.64 2.66 4 3 C0.46905698 4.20220203 -2.12898982 3.79532349 -5.75 3.0625 C-6.73484375 2.86785156 -7.7196875 2.67320312 -8.734375 2.47265625 C-9.48203125 2.31667969 -10.2296875 2.16070313 -11 2 C-11 1.67 -11 1.34 -11 1 C-7.26562152 0.12132271 -3.83225427 -0.08912219 0 0 Z " fill="#2942B0" transform="translate(957,530)"/>
<path d="M0 0 C0.928125 0.7425 0.928125 0.7425 1.875 1.5 C3.83880904 3.19222773 3.83880904 3.19222773 6 3 C6 3.66 6 4.32 6 5 C3.5 6.625 3.5 6.625 1 8 C0.01 6.02 -0.98 4.04 -2 2 C-1.34 2 -0.68 2 0 2 C0 1.34 0 0.68 0 0 Z " fill="#F6F7F4" transform="translate(523,521)"/>
<path d="M0 0 C3.67033927 3.27708863 5.69281189 6.71522208 8 11 C6.25 10.875 6.25 10.875 4 10 C1.06644827 6.33306034 0 4.76869466 0 0 Z " fill="#F3F8F5" transform="translate(362,457)"/>
<path d="M0 0 C1.65 0 3.3 0 5 0 C3.02 2.97 1.04 5.94 -1 9 C-2.10107995 5.69676014 -1.86709271 4.29495231 -1 1 C-0.67 0.67 -0.34 0.34 0 0 Z " fill="#F4F7F5" transform="translate(1206,313)"/>
<path d="M0 0 C2.79872437 2.52788007 4.45773019 4.20411134 5 8 C3 8 1 8 -1 8 C-1.33 6.68 -1.66 5.36 -2 4 C-1.01 4.495 -1.01 4.495 0 5 C0 3.35 0 1.7 0 0 Z " fill="#F4F7F3" transform="translate(349,239)"/>
<path d="M0 0 C-0.928125 0.268125 -1.85625 0.53625 -2.8125 0.8125 C-5.76240366 1.91148371 -7.05615186 2.62418561 -9 5 C-11.475 4.01 -11.475 4.01 -14 3 C-9.7368213 0.15788087 -5.03577274 -2.0143091 0 0 Z " fill="#EBEFF3" transform="translate(661,145)"/>
<path d="M0 0 C1.18414294 3.55242882 0.69535532 4.69830562 -0.4375 8.1875 C-0.72496094 9.08855469 -1.01242187 9.98960937 -1.30859375 10.91796875 C-1.53675781 11.60503906 -1.76492188 12.29210937 -2 13 C-4.0234375 9.3125 -4.0234375 9.3125 -3.8125 6.5 C-2.9447977 3.83014678 -1.81067772 2.12557819 0 0 Z " fill="#F4F7F6" transform="translate(1680,449)"/>
<path d="M0 0 C0.66 0 1.32 0 2 0 C1.70703125 2.01822917 1.4140625 4.03645833 1.12109375 6.0546875 C0.8315703 8.08140667 0.8315703 8.08140667 2 10 C0.02 10.99 0.02 10.99 -2 12 C-3.40907283 9.18185434 -2.50872691 7.82722796 -1.5625 4.875 C-1.27503906 3.96492188 -0.98757813 3.05484375 -0.69140625 2.1171875 C-0.46324219 1.41851562 -0.23507812 0.71984375 0 0 Z " fill="#2D43B1" transform="translate(1053,432)"/>
<path d="M0 0 C0.66 0.33 1.32 0.66 2 1 C1.67 3.31 1.34 5.62 1 8 C0.01 8 -0.98 8 -2 8 C-2.33 6.02 -2.66 4.04 -3 2 C-2.01 1.34 -1.02 0.68 0 0 Z " fill="#F4F6F6" transform="translate(1733,258)"/>
<path d="M0 0 C2.97 0.495 2.97 0.495 6 1 C6 2.65 6 4.3 6 6 C5.01 5.34 4.02 4.68 3 4 C2.34 4.66 1.68 5.32 1 6 C-0.0625 4.125 -0.0625 4.125 -1 2 C-0.67 1.34 -0.34 0.68 0 0 Z " fill="#F6F8F3" transform="translate(1481,610)"/>
<path d="M0 0 C1.32 0.33 2.64 0.66 4 1 C2.68 1.33 1.36 1.66 0 2 C0 1.34 0 0.68 0 0 Z M-4 1 C-0.66272214 2.17255709 1.77437487 3.18868404 4 6 C4 6.66 4 7.32 4 8 C0.2047869 6.50902342 -1.61042731 4.24299151 -4 1 Z " fill="#F5F8F6" transform="translate(488,505)"/>
<path d="M0 0 C1.33333333 0.66666667 2.66666667 1.33333333 4 2 C5.0828125 2.4640625 5.0828125 2.4640625 6.1875 2.9375 C8 4 8 4 9 7 C8.34 7.66 7.68 8.32 7 9 C7 7.68 7 6.36 7 5 C5.02 5.99 5.02 5.99 3 7 C0 2.25 0 2.25 0 0 Z " fill="#112EAA" transform="translate(352,527)"/>
<path d="M0 0 C0.33 0.99 0.66 1.98 1 3 C-0.46380204 5.30026035 -2.07182111 7.07182111 -4 9 C-4.99 8.34 -5.98 7.68 -7 7 C-4.69 4.69 -2.38 2.38 0 0 Z " fill="#EDEEF0" transform="translate(1946,166)"/>
<path d="M0 0 C0.33 0.99 0.66 1.98 1 3 C-0.46380204 5.30026035 -2.07182111 7.07182111 -4 9 C-4.99 8.34 -5.98 7.68 -7 7 C-4.69 4.69 -2.38 2.38 0 0 Z " fill="#EDEEF0" transform="translate(1962,150)"/>
<path d="M0 0 C0.33 0.99 0.66 1.98 1 3 C-0.46380204 5.30026035 -2.07182111 7.07182111 -4 9 C-4.99 8.34 -5.98 7.68 -7 7 C-4.69 4.69 -2.38 2.38 0 0 Z " fill="#EDEEF0" transform="translate(1970,142)"/>
<path d="M0 0 C0.33 0.99 0.66 1.98 1 3 C-0.46380204 5.30026035 -2.07182111 7.07182111 -4 9 C-4.99 8.34 -5.98 7.68 -7 7 C-4.69 4.69 -2.38 2.38 0 0 Z " fill="#EDEEF0" transform="translate(1978,134)"/>
<path d="M0 0 C0.33 0.99 0.66 1.98 1 3 C-0.46380204 5.30026035 -2.07182111 7.07182111 -4 9 C-4.99 8.34 -5.98 7.68 -7 7 C-4.69 4.69 -2.38 2.38 0 0 Z " fill="#EDEEF0" transform="translate(1986,126)"/>
<path d="M0 0 C0.33 0.99 0.66 1.98 1 3 C-0.46380204 5.30026035 -2.07182111 7.07182111 -4 9 C-4.99 8.34 -5.98 7.68 -7 7 C-4.69 4.69 -2.38 2.38 0 0 Z " fill="#EDEEF0" transform="translate(2026,86)"/>
<path d="M0 0 C0.33 0.66 0.66 1.32 1 2 C0.67 2.99 0.34 3.98 0 5 C-0.66 5 -1.32 5 -2 5 C-1.67 5.99 -1.34 6.98 -1 8 C-2.32 8.33 -3.64 8.66 -5 9 C-5.33 8.01 -5.66 7.02 -6 6 C-4.02 4.02 -2.04 2.04 0 0 Z " fill="#1833AC" transform="translate(1611,624)"/>
<path d="M0 0 C0.93423645 3.01031744 1.04449911 3.86650268 0 7 C-1.98 6.34 -3.96 5.68 -6 5 C-4.625 3.5 -4.625 3.5 -3 2 C-2.34 2 -1.68 2 -1 2 C-0.67 1.34 -0.34 0.68 0 0 Z " fill="#F1F4F2" transform="translate(895,521)"/>
<path d="M0 0 C0.99 0 1.98 0 3 0 C3 0.66 3 1.32 3 2 C3.66 2 4.32 2 5 2 C5.66 3.32 6.32 4.64 7 6 C4 6 4 6 1 4 C0.3125 1.875 0.3125 1.875 0 0 Z M5 1 C7 2 7 2 7 2 Z " fill="#F5F9F5" transform="translate(350,522)"/>
<path d="M0 0 C0.33 0.99 0.66 1.98 1 3 C1.99 3 2.98 3 4 3 C4 3.66 4 4.32 4 5 C3.34 5 2.68 5 2 5 C1.67 5.66 1.34 6.32 1 7 C-1.0625 7.625 -1.0625 7.625 -3 8 C-2.690625 7.236875 -2.38125 6.47375 -2.0625 5.6875 C-1.32106407 3.81210323 -0.63771783 1.91315348 0 0 Z " fill="#F1F4F4" transform="translate(1652,348)"/>
<path d="M0 0 C-0.639375 0.12375 -1.27875 0.2475 -1.9375 0.375 C-2.618125 0.58125 -3.29875 0.7875 -4 1 C-4.33 1.66 -4.66 2.32 -5 3 C-7.5625 3.625 -7.5625 3.625 -10 4 C-9.25 1.5625 -9.25 1.5625 -8 -1 C-4.76989336 -2.61505332 -2.97559797 -1.80661305 0 0 Z " fill="#F6FAF3" transform="translate(890,235)"/>
<path d="M0 0 C1.32 0.33 2.64 0.66 4 1 C3.01 1.33 2.02 1.66 1 2 C1.33 2.99 1.66 3.98 2 5 C1.34 5.66 0.68 6.32 0 7 C-0.99 6.34 -1.98 5.68 -3 5 C-2.01 3.35 -1.02 1.7 0 0 Z " fill="#EEF4F2" transform="translate(1485,603)"/>
<path d="M0 0 C0.66 0.33 1.32 0.66 2 1 C1.01 2.485 1.01 2.485 0 4 C-0.68177416 5.32567199 -1.35191436 6.65753688 -2 8 C-2.66 8 -3.32 8 -4 8 C-3.50168276 4.31245243 -2.89932357 2.39509338 0 0 Z " fill="#F0F4F6" transform="translate(1586,576)"/>
<path d="M0 0 C1.32 0.33 2.64 0.66 4 1 C4.33 3.31 4.66 5.62 5 8 C4.34 8 3.68 8 3 8 C0.95830515 5.09451118 0 3.59857954 0 0 Z " fill="#F2F5F6" transform="translate(1562,503)"/>
<path d="M0 0 C2.46278801 2.46278801 2.99771255 4.70676982 4 8 C3.01 8.495 3.01 8.495 2 9 C0.02 5.535 0.02 5.535 -2 2 C-1.34 1.34 -0.68 0.68 0 0 Z " fill="#F1F5F6" transform="translate(308,484)"/>
<path d="M0 0 C0.33 0 0.66 0 1 0 C0.979375 1.11375 0.95875 2.2275 0.9375 3.375 C0.73619282 6.83215921 0.73619282 6.83215921 2 9 C1.67 9.66 1.34 10.32 1 11 C0.34 11 -0.32 11 -1 11 C-2.0257259 6.58937864 -2.03684712 4.07369424 0 0 Z " fill="#F4F8F6" transform="translate(812,424)"/>
<path d="M0 0 C0.66 1.32 1.32 2.64 2 4 C1.01 4.495 1.01 4.495 0 5 C-0.65213292 7.02463255 -0.65213292 7.02463255 -1 9 C-1.33 8.34 -1.66 7.68 -2 7 C-2.66 7 -3.32 7 -4 7 C-2.79618552 4.50638429 -1.54571278 2.31856917 0 0 Z " fill="#1732A9" transform="translate(1966,270)"/>
<path d="M0 0 C0.33 0.99 0.66 1.98 1 3 C-0.65 4.65 -2.3 6.3 -4 8 C-4.99 7.67 -5.98 7.34 -7 7 C-4.69 4.69 -2.38 2.38 0 0 Z " fill="#EDEEF1" transform="translate(1938,174)"/>
<path d="M0 0 C1.65 0.33 3.3 0.66 5 1 C4.01 2.98 3.02 4.96 2 7 C0.4375 5.75 0.4375 5.75 -1 4 C-0.6875 1.8125 -0.6875 1.8125 0 0 Z " fill="#F5F8F3" transform="translate(289,159)"/>
<path d="M0 0 C0.33 0.99 0.66 1.98 1 3 C-0.65 4.65 -2.3 6.3 -4 8 C-4.99 7.67 -5.98 7.34 -7 7 C-4.69 4.69 -2.38 2.38 0 0 Z " fill="#EDEDF0" transform="translate(1954,158)"/>
<path d="M0 0 C0.33 0.99 0.66 1.98 1 3 C-0.65 4.65 -2.3 6.3 -4 8 C-4.99 7.67 -5.98 7.34 -7 7 C-4.69 4.69 -2.38 2.38 0 0 Z " fill="#EDEDF0" transform="translate(2002,110)"/>
<path d="M0 0 C0.33 0.99 0.66 1.98 1 3 C-0.65 4.65 -2.3 6.3 -4 8 C-4.99 7.67 -5.98 7.34 -7 7 C-4.69 4.69 -2.38 2.38 0 0 Z " fill="#EDEDF0" transform="translate(2018,94)"/>
<path d="M0 0 C1.890625 0.18359375 1.890625 0.18359375 4 1 C5.046875 3.28515625 5.046875 3.28515625 5.75 6.0625 C5.99234375 6.98160156 6.2346875 7.90070313 6.484375 8.84765625 C6.65453125 9.55792969 6.8246875 10.26820313 7 11 C4.59424393 8.81482901 3.20464419 6.74080329 1.8125 3.8125 C1.46832031 3.09707031 1.12414063 2.38164062 0.76953125 1.64453125 C0.51558594 1.10183594 0.26164062 0.55914062 0 0 Z " fill="#F1F7F4" transform="translate(1127,276)"/>
<path d="M0 0 C-0.33 1.98 -0.66 3.96 -1 6 C-2.32 5.67 -3.64 5.34 -5 5 C-4.625 3.0625 -4.625 3.0625 -4 1 C-2 0 -2 0 0 0 Z " fill="#F5F7F7" transform="translate(1293,275)"/>
<path d="M0 0 C0.99 1.32 1.98 2.64 3 4 C2.3125 6.6875 2.3125 6.6875 1 9 C0.01 9.495 0.01 9.495 -1 10 C-0.67 6.7 -0.34 3.4 0 0 Z " fill="#102FA4" transform="translate(1964,243)"/>
<path d="M0 0 C0.66 0.33 1.32 0.66 2 1 C1.34 1.66 0.68 2.32 0 3 C-0.99 3 -1.98 3 -3 3 C-3.66 4.32 -4.32 5.64 -5 7 C-5.66 5.68 -6.32 4.36 -7 3 C-4.69631264 1.93347808 -2.35981813 0.93578995 0 0 Z " fill="#F3F9F6" transform="translate(1499,231)"/>
<path d="M0 0 C-1.36983503 3.16115776 -1.9890638 3.9927092 -5 6 C-5.66 5.34 -6.32 4.68 -7 4 C-3.17391304 0 -3.17391304 0 0 0 Z " fill="#EFF1F2" transform="translate(1992,137)"/>
<path d="M0 0 C0.66 1.32 1.32 2.64 2 4 C1.01 4.33 0.02 4.66 -1 5 C-1.33 4.67 -1.66 4.34 -2 4 C-2.33 4.66 -2.66 5.32 -3 6 C-3.66 5.67 -4.32 5.34 -5 5 C-4.1875 3.0625 -4.1875 3.0625 -3 1 C-2.01 0.67 -1.02 0.34 0 0 Z " fill="#07299D" transform="translate(2015,117)"/>
<path d="M0 0 C2.1875 0.3125 2.1875 0.3125 4 1 C4 1.66 4 2.32 4 3 C2 4.625 2 4.625 0 6 C0 5.34 0 4.68 0 4 C-0.99 3.67 -1.98 3.34 -3 3 C-1.75 1.4375 -1.75 1.4375 0 0 Z " fill="#F3F7F4" transform="translate(431,466)"/>
<path d="M0 0 C0.99 0 1.98 0 3 0 C3 1.65 3 3.3 3 5 C2.34 5 1.68 5 1 5 C0.67 5.99 0.34 6.98 0 8 C-1.43088528 5.13822943 -0.59991697 3.06624227 0 0 Z " fill="#F4F6F7" transform="translate(810,330)"/>
<path d="M0 0 C1.5 1.3125 1.5 1.3125 3 3 C3 3.99 3 4.98 3 6 C2.01 6 1.02 6 0 6 C-0.33 6.99 -0.66 7.98 -1 9 C-1.80967438 6.08517222 -2.21845993 4.53886783 -1.0625 1.6875 C-0.711875 1.130625 -0.36125 0.57375 0 0 Z " fill="#F4F1F7" transform="translate(820,297)"/>
<path d="M0 0 C0.66 0 1.32 0 2 0 C2.33 1.32 2.66 2.64 3 4 C2.01 4 1.02 4 0 4 C-0.33 4.99 -0.66 5.98 -1 7 C-1.625 4.625 -1.625 4.625 -2 2 C-1.34 1.34 -0.68 0.68 0 0 Z " fill="#F0F5F5" transform="translate(1187,271)"/>
<path d="M0 0 C0 0.99 0 1.98 0 3 C-0.66 3.66 -1.32 4.32 -2 5 C-1.67 5.66 -1.34 6.32 -1 7 C-1.99 7.33 -2.98 7.66 -4 8 C-4.33 6.68 -4.66 5.36 -5 4 C-3.35 2.68 -1.7 1.36 0 0 Z " fill="#F2F6F2" transform="translate(859,247)"/>
<path d="M0 0 C1.88391785 3.26545761 2.49287967 6.28111761 3 10 C2.34 10 1.68 10 1 10 C1 9.34 1 8.68 1 8 C0.34 8 -0.32 8 -1 8 C-0.67 5.36 -0.34 2.72 0 0 Z " fill="#1130A5" transform="translate(1925,210)"/>
<path d="M0 0 C0.33 0.99 0.66 1.98 1 3 C-1.97 5.475 -1.97 5.475 -5 8 C-5.66 7.67 -6.32 7.34 -7 7 C-4.69 4.69 -2.38 2.38 0 0 Z " fill="#EBECEF" transform="translate(1994,118)"/>
<path d="M0 0 C0.33 0.99 0.66 1.98 1 3 C-1.97 5.475 -1.97 5.475 -5 8 C-5.66 7.67 -6.32 7.34 -7 7 C-4.69 4.69 -2.38 2.38 0 0 Z " fill="#EBECEF" transform="translate(2010,102)"/>
<path d="M0 0 C0.33 0.99 0.66 1.98 1 3 C-1.97 5.475 -1.97 5.475 -5 8 C-5.66 7.67 -6.32 7.34 -7 7 C-4.69 4.69 -2.38 2.38 0 0 Z " fill="#EBECEF" transform="translate(2034,78)"/>
<path d="M0 0 C0.33 0.99 0.66 1.98 1 3 C-1.97 5.475 -1.97 5.475 -5 8 C-5.66 7.67 -6.32 7.34 -7 7 C-4.69 4.69 -2.38 2.38 0 0 Z " fill="#EBECEF" transform="translate(2042,70)"/>
<path d="M0 0 C0.99 0 1.98 0 3 0 C4.6875 2 4.6875 2 6 4 C5.67 4.66 5.34 5.32 5 6 C4.01 6 3.02 6 2 6 C1.34 5.34 0.68 4.68 0 4 C0 2.66666667 0 1.33333333 0 0 Z " fill="#0D27A7" transform="translate(472,489)"/>
<path d="M0 0 C0.66 0.33 1.32 0.66 2 1 C1.67 3.64 1.34 6.28 1 9 C0.67 9 0.34 9 0 9 C0 7.35 0 5.7 0 4 C-0.66 4 -1.32 4 -2 4 C-1.34 2.68 -0.68 1.36 0 0 Z " fill="#F2F1F6" transform="translate(357,435)"/>
<path d="M0 0 C0.99 0.33 1.98 0.66 3 1 C3 2.32 3 3.64 3 5 C2.01 5.66 1.02 6.32 0 7 C-0.66 5.35 -1.32 3.7 -2 2 C-1.34 1.34 -0.68 0.68 0 0 Z " fill="#F4F5F6" transform="translate(996,421)"/>
<path d="M0 0 C0.99 0.33 1.98 0.66 3 1 C2.67 2.32 2.34 3.64 2 5 C0.35 4.67 -1.3 4.34 -3 4 C-3 3.34 -3 2.68 -3 2 C-2.01 1.34 -1.02 0.68 0 0 Z " fill="#F3F5F6" transform="translate(886,289)"/>
<path d="M0 0 C0.66 0 1.32 0 2 0 C2.33 1.32 2.66 2.64 3 4 C1.35 4.66 -0.3 5.32 -2 6 C-2.33 5.01 -2.66 4.02 -3 3 C-2.34 3 -1.68 3 -1 3 C-0.67 2.01 -0.34 1.02 0 0 Z " fill="#F4F7F6" transform="translate(1180,258)"/>
<path d="M0 0 C0.33 0.66 0.66 1.32 1 2 C2.32 1.67 3.64 1.34 5 1 C5 1.66 5 2.32 5 3 C3.02 3.99 1.04 4.98 -1 6 C-1.33 4.68 -1.66 3.36 -2 2 C-1.34 2 -0.68 2 0 2 C0 1.34 0 0.68 0 0 Z " fill="#ECF0F7" transform="translate(2002,80)"/>
<path d="M0 0 C0.66 0.99 1.32 1.98 2 3 C1.01 4.98 0.02 6.96 -1 9 C-1.66 9 -2.32 9 -3 9 C-2.01 6.03 -1.02 3.06 0 0 Z " fill="#EFF5F3" transform="translate(1594,557)"/>
<path d="M0 0 C2.31 1.98 4.62 3.96 7 6 C5.68 6.33 4.36 6.66 3 7 C0 3.375 0 3.375 0 0 Z " fill="#EDF0F4" transform="translate(891,469)"/>
<path d="M0 0 C0.66 0.33 1.32 0.66 2 1 C0.68 3.64 -0.64 6.28 -2 9 C-2.99 8.34 -3.98 7.68 -5 7 C-3.35 4.69 -1.7 2.38 0 0 Z " fill="#E9EBF0" transform="translate(980,460)"/>
<path d="M0 0 C1.42944945 2.35438733 2.08661261 3.48032433 1.625 6.25 C1.41875 6.8275 1.2125 7.405 1 8 C0.01 8 -0.98 8 -2 8 C-1.33333333 5.33333333 -0.66666667 2.66666667 0 0 Z " fill="#0F2CAA" transform="translate(1652,337)"/>
<path d="M0 0 C1.65 1.65 3.3 3.3 5 5 C4.67 5.66 4.34 6.32 4 7 C2.35 5.68 0.7 4.36 -1 3 C-0.67 2.01 -0.34 1.02 0 0 Z " fill="#F0F5F8" transform="translate(969,282)"/>
<path d="M0 0 C0.99 0 1.98 0 3 0 C3.625 2.3125 3.625 2.3125 4 5 C3.01 6.485 3.01 6.485 2 8 C1.34 5.36 0.68 2.72 0 0 Z " fill="#EDF1F4" transform="translate(1928,218)"/>
<path d="M0 0 C0.99 0.33 1.98 0.66 3 1 C1.68 2.32 0.36 3.64 -1 5 C-1.66 4.67 -2.32 4.34 -3 4 C-2.67 3.01 -2.34 2.02 -2 1 C-1.34 0.67 -0.68 0.34 0 0 Z " fill="#F0F3F1" transform="translate(1956,170)"/>
<path d="M0 0 C0.33 0.66 0.66 1.32 1 2 C1.66 2.33 2.32 2.66 3 3 C2.67 4.32 2.34 5.64 2 7 C1.34 6.34 0.68 5.68 0 5 C-0.99 4.34 -1.98 3.68 -3 3 C-2.01 2.01 -1.02 1.02 0 0 Z " fill="#223CAF" transform="translate(2015,114)"/>
<path d="M0 0 C0.99 0.33 1.98 0.66 3 1 C-1.75 5 -1.75 5 -4 5 C-2.25 1.125 -2.25 1.125 0 0 Z " fill="#EBF2F5" transform="translate(1956,109)"/>
</svg>
