<?xml version="1.0" encoding="UTF-8"?>
<!DOCTYPE svg PUBLIC "-//W3C//DTD SVG 1.1//EN" "http://www.w3.org/Graphics/SVG/1.1/DTD/svg11.dtd">
<svg xmlns="http://www.w3.org/2000/svg" version="1.1" width="1420px" height="1384px" style="shape-rendering:geometricPrecision; text-rendering:geometricPrecision; image-rendering:optimizeQuality; fill-rule:evenodd; clip-rule:evenodd" xmlns:xlink="http://www.w3.org/1999/xlink">
<g><path style="opacity:1" fill="#fbfbfe" d="M -0.5,-0.5 C 472.833,-0.5 946.167,-0.5 1419.5,-0.5C 1419.5,460.833 1419.5,922.167 1419.5,1383.5C 946.167,1383.5 472.833,1383.5 -0.5,1383.5C -0.5,922.167 -0.5,460.833 -0.5,-0.5 Z"/></g>
<g><path style="opacity:1" fill="#0a1854" d="M 1099.5,13.5 C 1108.61,12.0917 1115.44,15.425 1120,23.5C 1121.22,33.0872 1120.22,42.4206 1117,51.5C 1085.22,233.331 1052.88,414.998 1020,596.5C 1015.5,602.994 1009.34,605.494 1001.5,604C 954.261,584.312 907.261,564.145 860.5,543.5C 827.192,586.77 794.359,630.437 762,674.5C 752.968,683.765 743.968,683.765 735,674.5C 733.25,671.754 732.25,668.754 732,665.5C 730.171,663.844 728.837,661.844 728,659.5C 706.768,598.137 686.101,536.47 666,474.5C 664.615,473.449 663.615,472.116 663,470.5C 600.772,448.757 538.272,427.59 475.5,407C 464.888,401.623 461.721,393.456 466,382.5C 467.833,380.667 469.667,378.833 471.5,377C 680.765,255.54 890.098,134.374 1099.5,13.5 Z"/></g>
<g><path style="opacity:1" fill="#fbfbfe" d="M 1013.5,100.5 C 1014.24,100.369 1014.91,100.536 1015.5,101C 902.833,213.667 790.167,326.333 677.5,439C 624.808,422.103 572.141,404.77 519.5,387C 684.393,291.726 849.06,196.226 1013.5,100.5 Z"/></g>
<g><path style="opacity:1" fill="#fbfbfe" d="M 1073.5,105.5 C 1074.14,106.097 1074.47,106.93 1074.5,108C 1047.22,257.706 1020.72,407.206 995,556.5C 994.229,559.19 993.396,561.856 992.5,564.5C 929.57,538.033 866.904,511.033 804.5,483.5C 894.677,357.793 984.344,231.793 1073.5,105.5 Z"/></g>
<g><path style="opacity:1" fill="#f9f9fd" d="M 974.5,187.5 C 975.525,187.897 975.692,188.563 975,189.5C 906.956,284.422 838.789,379.255 770.5,474C 765.667,476.167 762.167,479.667 760,484.5C 753.257,519.549 746.257,554.549 739,589.5C 724.965,548.396 711.132,507.23 697.5,466C 789.652,373.014 881.985,280.181 974.5,187.5 Z"/></g>
<g><path style="opacity:1" fill="#f6f6fa" d="M 787.5,513.5 C 801.167,518.833 814.833,524.167 828.5,529.5C 828.649,530.552 828.483,531.552 828,532.5C 808.333,558.5 788.667,584.5 769,610.5C 774.705,578.138 780.872,545.805 787.5,513.5 Z"/></g>
<g><path style="opacity:1" fill="#0d1956" d="M 725.5,537.5 C 729.733,539.062 732.067,542.062 732.5,546.5C 726.64,545.996 724.307,542.996 725.5,537.5 Z"/></g>
<g><path style="opacity:1" fill="#091754" d="M 315.5,676.5 C 320.412,676.063 325.078,676.896 329.5,679C 344.167,689.338 359.5,698.671 375.5,707C 382.872,714.753 383.372,722.92 377,731.5C 371.465,736.093 365.299,737.26 358.5,735C 342.843,726.173 327.509,716.839 312.5,707C 304.17,700.739 302.337,692.906 307,683.5C 309.441,680.546 312.275,678.213 315.5,676.5 Z"/></g>
<g><path style="opacity:1" fill="#0b1855" d="M 625.5,692.5 C 636.615,692.283 643.282,697.616 645.5,708.5C 645.192,715.29 642.192,720.456 636.5,724C 626.779,729.527 616.779,734.527 606.5,739C 597.721,741.639 590.554,739.139 585,731.5C 582.362,724.568 583.362,718.234 588,712.5C 600.8,706.186 613.3,699.52 625.5,692.5 Z"/></g>
<g><path style="opacity:1" fill="#0c1955" d="M 434.5,730.5 C 445.509,731.429 456.509,732.596 467.5,734C 476.833,734.333 486.167,734.667 495.5,735C 506.11,739.158 509.61,746.658 506,757.5C 504.073,762.428 500.573,765.594 495.5,767C 474.218,768.679 453.218,767.013 432.5,762C 418.5,750.528 419.167,740.028 434.5,730.5 Z"/></g>
<g><path style="opacity:1" fill="#081754" d="M 1094.5,920.5 C 1103.51,920.334 1112.51,920.5 1121.5,921C 1130.11,922.618 1135.94,927.451 1139,935.5C 1140.32,1030.13 1140.99,1124.8 1141,1219.5C 1142.05,1225.78 1145.22,1230.62 1150.5,1234C 1159.67,1235.1 1168.84,1235.93 1178,1236.5C 1181.64,1247.95 1182.47,1259.61 1180.5,1271.5C 1167.88,1273.03 1155.22,1274.03 1142.5,1274.5C 1130.35,1274.8 1119.02,1271.96 1108.5,1266C 1100.8,1259.96 1095.96,1252.13 1094,1242.5C 1092.84,1188.37 1092.34,1134.2 1092.5,1080C 1092.67,1027.5 1092.83,975 1093,922.5C 1093.72,921.956 1094.22,921.289 1094.5,920.5 Z"/></g>
<g><path style="opacity:1" fill="#081754" d="M 173.5,988.5 C 166.687,987.509 159.687,987.175 152.5,987.5C 152.5,1082.5 152.5,1177.5 152.5,1272.5C 135.826,1275.12 119.159,1275.12 102.5,1272.5C 102.5,1177.83 102.5,1083.17 102.5,988.5C 74.1667,988.5 45.8333,988.5 17.5,988.5C 16.1904,974.165 16.1904,959.832 17.5,945.5C 91.1667,945.5 164.833,945.5 238.5,945.5C 240.346,954.744 240.846,964.077 240,973.5C 236.461,982.863 229.628,987.696 219.5,988C 204.17,988.5 188.837,988.667 173.5,988.5 Z"/></g>
<g><path style="opacity:1" fill="#0a1854" d="M 514.5,1231.5 C 514.5,1178.17 514.5,1124.83 514.5,1071.5C 502.5,1071.5 490.5,1071.5 478.5,1071.5C 476.07,1060.22 475.904,1048.89 478,1037.5C 482.518,1035.59 487.352,1034.93 492.5,1035.5C 499.648,1036.49 506.981,1036.82 514.5,1036.5C 514.5,1019.17 514.5,1001.83 514.5,984.5C 514.884,972.617 520.884,965.45 532.5,963C 541.5,962.333 550.5,962.333 559.5,963C 560.333,963.833 561.167,964.667 562,965.5C 562.5,989.164 562.667,1012.83 562.5,1036.5C 582.17,1036.34 601.837,1036.01 621.5,1035.5C 624.052,1047.48 624.052,1059.48 621.5,1071.5C 601.833,1071.5 582.167,1071.5 562.5,1071.5C 562.333,1122.17 562.5,1172.83 563,1223.5C 564.963,1229.73 569.13,1233.56 575.5,1235C 588.829,1235.5 602.163,1235.67 615.5,1235.5C 618.584,1247.35 619.251,1259.35 617.5,1271.5C 596.216,1273.69 574.883,1274.52 553.5,1274C 528.828,1270.5 515.828,1256.33 514.5,1231.5 Z"/></g>
<g><path style="opacity:1" fill="#606891" d="M 514.5,984.5 C 514.5,1001.83 514.5,1019.17 514.5,1036.5C 506.981,1036.82 499.648,1036.49 492.5,1035.5C 499.5,1035.5 506.5,1035.5 513.5,1035.5C 513.17,1018.33 513.503,1001.33 514.5,984.5 Z"/></g>
<g><path style="opacity:1" fill="#091754" d="M 740.5,1029.5 C 802.707,1026.34 840.874,1055 855,1115.5C 862.076,1151.42 859.076,1186.42 846,1220.5C 830.731,1255.09 804.231,1274.26 766.5,1278C 707.166,1280.74 670.333,1253.24 656,1195.5C 648.384,1160.87 650.384,1126.87 662,1093.5C 676.079,1057.25 702.246,1035.91 740.5,1029.5 Z"/></g>
<g><path style="opacity:1" fill="#091754" d="M 921.5,1032.5 C 938.023,1036 950.523,1045 959,1059.5C 960.91,1064.32 963.076,1068.98 965.5,1073.5C 984.467,1037.88 1013.63,1025.22 1053,1035.5C 1053.36,1052.04 1049.53,1067.54 1041.5,1082C 1009.29,1074.69 985.79,1085.85 971,1115.5C 970.5,1167.83 970.333,1220.17 970.5,1272.5C 954.167,1273.83 937.833,1273.83 921.5,1272.5C 921.667,1214.17 921.5,1155.83 921,1097.5C 919.692,1082.39 913.858,1069.39 903.5,1058.5C 906.553,1047.7 912.553,1039.04 921.5,1032.5 Z"/></g>
<g><path style="opacity:1" fill="#091754" d="M 1219.5,1032.5 C 1234.84,1029.98 1245.68,1035.64 1252,1049.5C 1271.43,1111.68 1289.09,1174.35 1305,1237.5C 1306.01,1238.34 1307.18,1238.67 1308.5,1238.5C 1325.99,1170.87 1343.32,1103.2 1360.5,1035.5C 1376.63,1033.71 1392.63,1034.38 1408.5,1037.5C 1387.28,1117.69 1365.11,1197.69 1342,1277.5C 1335.27,1301.39 1325.27,1323.73 1312,1344.5C 1293.08,1367.12 1268.75,1377.79 1239,1376.5C 1224.6,1376.35 1210.44,1374.51 1196.5,1371C 1194,1368.78 1193,1365.95 1193.5,1362.5C 1193.98,1353.56 1196.48,1345.23 1201,1337.5C 1202.12,1335.88 1203.62,1334.88 1205.5,1334.5C 1247.72,1350.29 1276.56,1337.29 1292,1295.5C 1294.48,1288.57 1296.64,1281.57 1298.5,1274.5C 1278.27,1275.47 1265.77,1266.14 1261,1246.5C 1240.36,1177.58 1219.53,1108.75 1198.5,1040C 1205.44,1036.97 1212.44,1034.47 1219.5,1032.5 Z"/></g>
<g><path style="opacity:1" fill="#0a1854" d="M 379.5,1203.5 C 380.171,1147.6 380.837,1091.6 381.5,1035.5C 397.496,1034.21 413.496,1034.21 429.5,1035.5C 429.333,1096.83 429.5,1158.17 430,1219.5C 431.051,1231.33 435.217,1241.83 442.5,1251C 439.617,1261.97 433.284,1270.14 423.5,1275.5C 403.706,1271.87 390.539,1260.54 384,1241.5C 364.808,1260.01 341.975,1271.51 315.5,1276C 282.205,1280.45 259.371,1267.28 247,1236.5C 244.249,1226.99 242.249,1217.33 241,1207.5C 240.667,1160.5 240.333,1113.5 240,1066.5C 238.847,1058.71 236.68,1051.21 233.5,1044C 241.63,1036.46 251.296,1032.96 262.5,1033.5C 278.474,1032.97 287.641,1040.64 290,1056.5C 290.333,1104.17 290.667,1151.83 291,1199.5C 291.727,1225.56 304.894,1236.06 330.5,1231C 349.529,1226.49 365.862,1217.32 379.5,1203.5 Z"/></g>
<g><path style="opacity:1" fill="#424e7d" d="M 381.5,1035.5 C 380.837,1091.6 380.171,1147.6 379.5,1203.5C 378.837,1147.16 379.504,1091.16 381.5,1035.5 Z"/></g>
<g><path style="opacity:1" fill="#fafafe" d="M 745.5,1067.5 C 773.103,1064.88 791.603,1076.54 801,1102.5C 803.826,1111.65 805.826,1120.98 807,1130.5C 807.667,1145.5 807.667,1160.5 807,1175.5C 805.818,1193.24 800.485,1209.58 791,1224.5C 778.104,1238.24 762.27,1243.41 743.5,1240C 731.739,1236.56 722.573,1229.73 716,1219.5C 709.141,1206.69 705.141,1193.03 704,1178.5C 700.606,1152.38 702.606,1126.72 710,1101.5C 716.238,1084.09 728.071,1072.76 745.5,1067.5 Z"/></g>
<g><path style="opacity:1" fill="#5b648e" d="M 478.5,1071.5 C 490.5,1071.5 502.5,1071.5 514.5,1071.5C 514.5,1124.83 514.5,1178.17 514.5,1231.5C 513.501,1178.67 513.168,1125.67 513.5,1072.5C 501.655,1072.83 489.988,1072.49 478.5,1071.5 Z"/></g>
<g><path style="opacity:1" fill="#3f4a7a" d="M 173.5,988.5 C 166.833,988.5 160.167,988.5 153.5,988.5C 153.833,1083.33 153.499,1178 152.5,1272.5C 152.5,1177.5 152.5,1082.5 152.5,987.5C 159.687,987.175 166.687,987.509 173.5,988.5 Z"/></g>
</svg>
