<?xml version="1.0" encoding="UTF-8"?>
<!DOCTYPE svg PUBLIC "-//W3C//DTD SVG 1.1//EN" "http://www.w3.org/Graphics/SVG/1.1/DTD/svg11.dtd">
<svg xmlns="http://www.w3.org/2000/svg" version="1.1" width="2126px" height="678px" style="shape-rendering:geometricPrecision; text-rendering:geometricPrecision; image-rendering:optimizeQuality; fill-rule:evenodd; clip-rule:evenodd" xmlns:xlink="http://www.w3.org/1999/xlink">
<g><path style="opacity:1" fill="#071754" d="M -0.5,-0.5 C 708.167,-0.5 1416.83,-0.5 2125.5,-0.5C 2125.5,225.5 2125.5,451.5 2125.5,677.5C 1416.83,677.5 708.167,677.5 -0.5,677.5C -0.5,451.5 -0.5,225.5 -0.5,-0.5 Z"/></g>
<g><path style="opacity:1" fill="#f9fafb" d="M 2091.5,18.5 C 2099.83,17.6636 2103,21.3302 2101,29.5C 2088.1,102.93 2074.77,176.263 2061,249.5C 2058.42,251.347 2055.59,251.847 2052.5,251C 2034.57,243.357 2016.73,235.524 1999,227.5C 1986.42,243.654 1974.09,259.987 1962,276.5C 1954.42,284.179 1949.09,282.846 1946,272.5C 1937.69,248.608 1929.69,224.608 1922,200.5C 1921.17,199.667 1920.33,198.833 1919.5,198C 1895.5,190 1871.5,182 1847.5,174C 1842.86,171.928 1841.36,168.428 1843,163.5C 1925.98,115.266 2008.81,66.9329 2091.5,18.5 Z"/></g>
<g><path style="opacity:1" fill="#0a1855" d="M 2056.5,53.5 C 2057.24,53.369 2057.91,53.5357 2058.5,54C 2014.5,98 1970.5,142 1926.5,186C 1905.93,180.089 1885.6,173.255 1865.5,165.5C 1929.21,128.104 1992.87,90.7705 2056.5,53.5 Z"/></g>
<g><path style="opacity:1" fill="#091854" d="M 2081.5,56.5 C 2082.1,56.7352 2082.43,57.2352 2082.5,58C 2071.33,117.015 2061,176.181 2051.5,235.5C 2027.67,226.164 2004,216.331 1980.5,206C 1978.82,205.653 1977.82,204.653 1977.5,203C 2012.05,154.067 2046.71,105.233 2081.5,56.5 Z"/></g>
<g><path style="opacity:1" fill="#7d85a4" d="M 1351.5,91.5 C 1362.99,90.3405 1374.66,90.1739 1386.5,91C 1387.42,91.2784 1388.08,91.7784 1388.5,92.5C 1376.2,91.56 1363.87,91.2266 1351.5,91.5 Z"/></g>
<g><path style="opacity:1" fill="#fefefe" d="M 1351.5,91.5 C 1363.87,91.2266 1376.2,91.56 1388.5,92.5C 1391.66,92.9769 1394.66,93.9769 1397.5,95.5C 1398.57,98.6843 1400.57,101.018 1403.5,102.5C 1405.45,104.346 1406.45,106.679 1406.5,109.5C 1406.99,111.806 1407.33,114.139 1407.5,116.5C 1408.15,229.325 1408.81,341.992 1409.5,454.5C 1409.34,457.518 1409.5,460.518 1410,463.5C 1410.28,464.416 1410.78,465.082 1411.5,465.5C 1413.57,473.348 1418.57,477.681 1426.5,478.5C 1435.78,480.473 1445.44,481.14 1455.5,480.5C 1455.21,482.735 1455.54,484.735 1456.5,486.5C 1456.03,489.082 1456.69,491.082 1458.5,492.5C 1458.5,493.5 1458.5,494.5 1458.5,495.5C 1459.8,503.154 1459.8,510.82 1458.5,518.5C 1458.5,520.5 1458.5,522.5 1458.5,524.5C 1455.5,524.5 1452.5,524.5 1449.5,524.5C 1445.31,524.544 1441.15,524.877 1437,525.5C 1435.01,525.569 1433.51,526.235 1432.5,527.5C 1421.83,527.5 1411.17,527.5 1400.5,527.5C 1395.6,526.588 1390.6,525.588 1385.5,524.5C 1384.5,524.5 1383.5,524.5 1382.5,524.5C 1381.34,522.75 1379.67,521.75 1377.5,521.5C 1375.94,521.481 1374.44,521.148 1373,520.5C 1370.56,518.526 1368.06,516.859 1365.5,515.5C 1365.5,514.5 1365.5,513.5 1365.5,512.5C 1364.5,512.5 1363.5,512.5 1362.5,512.5C 1358.53,506.84 1355.2,500.673 1352.5,494C 1351.67,490.522 1351,487.022 1350.5,483.5C 1350.5,479.5 1350.5,475.5 1350.5,471.5C 1350.5,345.167 1350.5,218.833 1350.5,92.5C 1351.17,92.5 1351.5,92.1667 1351.5,91.5 Z"/></g>
<g><path style="opacity:1" fill="#b0b4c8" d="M 1350.5,92.5 C 1350.5,218.833 1350.5,345.167 1350.5,471.5C 1349.83,416.833 1349.17,362.167 1348.5,307.5C 1348.33,236.166 1348.5,164.833 1349,93.5C 1349.38,92.944 1349.88,92.6107 1350.5,92.5 Z"/></g>
<g><path style="opacity:1" fill="#101b57" d="M 2041.5,88.5 C 2042.53,88.8966 2042.69,89.5632 2042,90.5C 2015.61,126.555 1989.61,162.888 1964,199.5C 1962.04,200.453 1960.38,201.787 1959,203.5C 1956.33,217.196 1953.49,230.862 1950.5,244.5C 1948.43,239.281 1946.76,233.948 1945.5,228.5C 1946.68,228.719 1947.68,228.386 1948.5,227.5C 1947.15,226.05 1945.48,225.383 1943.5,225.5C 1940.34,215.518 1937.5,205.518 1935,195.5C 1970.57,160.1 2006.07,124.434 2041.5,88.5 Z"/></g>
<g><path style="opacity:1" fill="#aaaec4" d="M 1397.5,95.5 C 1400.43,96.9824 1402.43,99.3157 1403.5,102.5C 1400.57,101.018 1398.57,98.6843 1397.5,95.5 Z"/></g>
<g><path style="opacity:1" fill="#8c92af" d="M 1406.5,109.5 C 1408.44,111.971 1409.44,114.971 1409.5,118.5C 1409.5,119.167 1409.5,119.833 1409.5,120.5C 1408.83,119.167 1408.17,117.833 1407.5,116.5C 1407.33,114.139 1406.99,111.806 1406.5,109.5 Z"/></g>
<g><path style="opacity:1" fill="#2c386d" d="M 293.5,121.5 C 202.5,121.5 111.5,121.5 20.5,121.5C 65.6617,120.167 111.162,119.5 157,119.5C 202.838,119.5 248.338,120.167 293.5,121.5 Z"/></g>
<g><path style="opacity:1" fill="#e7e8ed" d="M 20.5,121.5 C 111.5,121.5 202.5,121.5 293.5,121.5C 293.5,121.833 293.5,122.167 293.5,122.5C 203.167,122.5 112.833,122.5 22.5,122.5C 22.8432,124.483 22.1765,125.817 20.5,126.5C 20.5,124.833 20.5,123.167 20.5,121.5 Z"/></g>
<g><path style="opacity:1" fill="#fefefe" d="M 293.5,122.5 C 293.068,125.877 293.735,128.877 295.5,131.5C 296.781,140.791 296.781,150.124 295.5,159.5C 293.592,160.486 292.592,162.152 292.5,164.5C 290.375,166.086 288.375,167.919 286.5,170C 285.552,170.483 284.552,170.649 283.5,170.5C 281.152,170.592 279.486,171.592 278.5,173.5C 277.167,173.5 275.833,173.5 274.5,173.5C 253.86,174.454 233.193,174.787 212.5,174.5C 204.486,174.432 196.486,174.099 188.5,173.5C 188.5,290.5 188.5,407.5 188.5,524.5C 186.833,525.167 185.167,525.833 183.5,526.5C 183.167,526.5 182.833,526.5 182.5,526.5C 169.189,527.382 155.856,527.715 142.5,527.5C 137.417,525.922 132.084,525.255 126.5,525.5C 126.833,407.999 126.5,290.665 125.5,173.5C 116.5,173.5 107.5,173.5 98.5,173.5C 73.1667,173.5 47.8333,173.5 22.5,173.5C 22.7148,171.821 22.0481,170.821 20.5,170.5C 20.5,168.5 20.5,166.5 20.5,164.5C 19.1667,152.833 19.1667,141.167 20.5,129.5C 20.5,128.5 20.5,127.5 20.5,126.5C 22.1765,125.817 22.8432,124.483 22.5,122.5C 112.833,122.5 203.167,122.5 293.5,122.5 Z"/></g>
<g><path style="opacity:1" fill="#263269" d="M 1409.5,118.5 C 1410.18,234.01 1410.85,349.677 1411.5,465.5C 1410.78,465.082 1410.28,464.416 1410,463.5C 1409.5,460.518 1409.34,457.518 1409.5,454.5C 1409.5,343.167 1409.5,231.833 1409.5,120.5C 1409.5,119.833 1409.5,119.167 1409.5,118.5 Z"/></g>
<g><path style="opacity:1" fill="#e7e8ef" d="M 1407.5,116.5 C 1408.17,117.833 1408.83,119.167 1409.5,120.5C 1409.5,231.833 1409.5,343.167 1409.5,454.5C 1408.81,341.992 1408.15,229.325 1407.5,116.5 Z"/></g>
<g><path style="opacity:1" fill="#9ea3bb" d="M 293.5,121.5 C 294.222,121.918 294.722,122.584 295,123.5C 295.497,126.146 295.664,128.813 295.5,131.5C 293.735,128.877 293.068,125.877 293.5,122.5C 293.5,122.167 293.5,121.833 293.5,121.5 Z"/></g>
<g><path style="opacity:1" fill="#9ba2ba" d="M 690.5,143.5 C 678.783,143.209 667.116,143.542 655.5,144.5C 660.96,143.171 666.793,142.504 673,142.5C 679.01,142.501 684.843,142.834 690.5,143.5 Z"/></g>
<g><path style="opacity:1" fill="#fefefe" d="M 690.5,143.5 C 690.842,144.338 691.508,144.672 692.5,144.5C 692.328,145.492 692.662,146.158 693.5,146.5C 693.5,175.833 693.5,205.167 693.5,234.5C 717.828,233.869 742.162,233.536 766.5,233.5C 767.117,233.611 767.617,233.944 768,234.5C 770.164,248.886 769.997,263.22 767.5,277.5C 743.167,277.5 718.833,277.5 694.5,277.5C 693.335,338.332 693.168,399.332 694,460.5C 694.278,461.416 694.778,462.082 695.5,462.5C 697.083,471.082 702.083,476.415 710.5,478.5C 726.466,480.485 742.799,481.152 759.5,480.5C 759.557,484.029 760.557,487.029 762.5,489.5C 762.5,490.5 762.5,491.5 762.5,492.5C 763.809,502.846 763.809,513.179 762.5,523.5C 759.713,524.477 756.713,524.81 753.5,524.5C 748.586,524.362 743.919,525.028 739.5,526.5C 738.5,526.5 737.5,526.5 736.5,526.5C 717.153,527.793 697.82,527.793 678.5,526.5C 676.786,525.262 674.786,524.595 672.5,524.5C 670.801,524.66 669.134,524.494 667.5,524C 663.605,521.871 659.605,520.038 655.5,518.5C 655.5,517.5 655.5,516.5 655.5,515.5C 644.268,509.309 638.268,499.643 637.5,486.5C 637.178,416.521 636.178,346.854 634.5,277.5C 619.833,277.5 605.167,277.5 590.5,277.5C 588.761,268.059 588.095,258.393 588.5,248.5C 589.889,243.731 590.556,238.731 590.5,233.5C 605.344,233.857 620.011,233.857 634.5,233.5C 635.033,208.958 636.033,184.292 637.5,159.5C 639.165,155.35 641.498,151.517 644.5,148C 648.215,146.705 651.882,145.538 655.5,144.5C 667.116,143.542 678.783,143.209 690.5,143.5 Z"/></g>
<g><path style="opacity:1" fill="#666f95" d="M 20.5,129.5 C 19.1667,141.167 19.1667,152.833 20.5,164.5C 19.1712,159.208 18.5045,153.542 18.5,147.5C 18.6667,141.833 18.8333,136.167 19,130.5C 19.3826,129.944 19.8826,129.611 20.5,129.5 Z"/></g>
<g><path style="opacity:1" fill="#666d94" d="M 295.5,159.5 C 295.25,161.674 294.25,163.341 292.5,164.5C 292.592,162.152 293.592,160.486 295.5,159.5 Z"/></g>
<g><path style="opacity:1" fill="#6c7499" d="M 283.5,170.5 C 282.514,172.408 280.848,173.408 278.5,173.5C 279.486,171.592 281.152,170.592 283.5,170.5 Z"/></g>
<g><path style="opacity:1" fill="#c0c4d4" d="M 20.5,170.5 C 22.0481,170.821 22.7148,171.821 22.5,173.5C 47.8333,173.5 73.1667,173.5 98.5,173.5C 72.5977,174.827 46.5977,174.827 20.5,173.5C 20.5,172.5 20.5,171.5 20.5,170.5 Z"/></g>
<g><path style="opacity:1" fill="#727b9d" d="M 20.5,173.5 C 46.5977,174.827 72.5977,174.827 98.5,173.5C 107.5,173.5 116.5,173.5 125.5,173.5C 125.5,174.167 125.5,174.833 125.5,175.5C 90.1507,176.16 55.1507,175.493 20.5,173.5 Z"/></g>
<g><path style="opacity:1" fill="#737c9e" d="M 274.5,173.5 C 274.082,174.222 273.416,174.722 272.5,175C 252.503,175.5 232.503,175.667 212.5,175.5C 212.5,175.167 212.5,174.833 212.5,174.5C 233.193,174.787 253.86,174.454 274.5,173.5 Z"/></g>
<g><path style="opacity:1" fill="#2a376b" d="M 190.5,175.5 C 190.667,292.167 190.5,408.834 190,525.5C 187.959,526.423 185.792,526.756 183.5,526.5C 185.167,525.833 186.833,525.167 188.5,524.5C 189.167,408.167 189.833,291.833 190.5,175.5 Z"/></g>
<g><path style="opacity:1" fill="#747c9e" d="M 693.5,146.5 C 694.498,175.329 694.831,204.329 694.5,233.5C 702.684,233.826 710.684,233.492 718.5,232.5C 734.675,232.17 750.675,232.504 766.5,233.5C 742.162,233.536 717.828,233.869 693.5,234.5C 693.5,205.167 693.5,175.833 693.5,146.5 Z"/></g>
<g><path style="opacity:1" fill="#5c668e" d="M 635.5,167.5 C 634.532,189.467 634.199,211.467 634.5,233.5C 620.011,233.857 605.344,233.857 590.5,233.5C 604.657,232.504 618.99,232.171 633.5,232.5C 632.844,210.474 633.511,188.808 635.5,167.5 Z"/></g>
<g><path style="opacity:1" fill="#d5d8e2" d="M 637.5,159.5 C 636.033,184.292 635.033,208.958 634.5,233.5C 634.199,211.467 634.532,189.467 635.5,167.5C 635.111,164.447 635.777,161.78 637.5,159.5 Z"/></g>
<g><path style="opacity:1" fill="#3d4778" d="M 692.5,144.5 C 693.15,144.804 693.817,145.137 694.5,145.5C 695.5,174.492 695.833,203.492 695.5,232.5C 703.167,232.5 710.833,232.5 718.5,232.5C 710.684,233.492 702.684,233.826 694.5,233.5C 694.831,204.329 694.498,175.329 693.5,146.5C 692.662,146.158 692.328,145.492 692.5,144.5 Z"/></g>
<g><path style="opacity:1" fill="#b1b5c8" d="M 125.5,173.5 C 126.5,290.665 126.833,407.999 126.5,525.5C 132.084,525.255 137.417,525.922 142.5,527.5C 140.5,527.5 138.5,527.5 136.5,527.5C 132.881,526.756 129.215,526.423 125.5,526.5C 125.5,409.5 125.5,292.5 125.5,175.5C 125.5,174.833 125.5,174.167 125.5,173.5 Z"/></g>
<g><path style="opacity:1" fill="#121d58" d="M 1969.5,215.5 C 1974.98,217.441 1980.32,219.774 1985.5,222.5C 1978.19,232.973 1970.69,243.307 1963,253.5C 1965.27,240.901 1967.43,228.234 1969.5,215.5 Z"/></g>
<g><path style="opacity:1" fill="#fdfdfd" d="M 922.5,225.5 C 927.167,225.5 931.833,225.5 936.5,225.5C 944.45,227.334 952.783,228.334 961.5,228.5C 962.833,228.5 964.167,228.5 965.5,228.5C 967.617,230.655 970.284,231.655 973.5,231.5C 973.833,231.5 974.167,231.5 974.5,231.5C 976.792,233.267 979.458,234.267 982.5,234.5C 982.833,234.5 983.167,234.5 983.5,234.5C 984.659,236.25 986.326,237.25 988.5,237.5C 990.199,237.527 991.533,238.194 992.5,239.5C 993.486,241.408 995.152,242.408 997.5,242.5C 1003.55,246.15 1009.22,250.15 1014.5,254.5C 1014.5,256.5 1015.5,257.5 1017.5,257.5C 1017.83,257.5 1018.17,257.5 1018.5,257.5C 1018.29,259.179 1018.95,260.179 1020.5,260.5C 1031.72,272.436 1040.39,286.102 1046.5,301.5C 1046.64,304.385 1047.64,306.718 1049.5,308.5C 1050.33,312.564 1051.33,316.564 1052.5,320.5C 1052.77,323.618 1053.77,326.284 1055.5,328.5C 1055.46,331.881 1055.79,335.214 1056.5,338.5C 1056.11,341.553 1056.78,344.22 1058.5,346.5C 1058.5,348.167 1058.5,349.833 1058.5,351.5C 1059.82,369.502 1059.82,387.502 1058.5,405.5C 1058.65,410.214 1058.31,414.881 1057.5,419.5C 1056.26,421.214 1055.59,423.214 1055.5,425.5C 1055.5,426.5 1055.5,427.5 1055.5,428.5C 1053.89,431.494 1052.56,434.828 1051.5,438.5C 1050.78,440.782 1050.44,443.116 1050.5,445.5C 1050.17,447.5 1049.83,449.5 1049.5,451.5C 1047.62,452.895 1046.62,454.895 1046.5,457.5C 1036.1,481.942 1020.1,501.775 998.5,517C 988.583,522.208 978.25,526.374 967.5,529.5C 963.846,529.942 960.179,530.276 956.5,530.5C 941.191,531.418 925.858,531.751 910.5,531.5C 908.735,530.539 906.735,530.205 904.5,530.5C 902.097,530.552 899.764,530.219 897.5,529.5C 893.555,527.056 889.221,525.39 884.5,524.5C 877.023,522.183 870.023,518.85 863.5,514.5C 863.5,513.167 862.833,512.5 861.5,512.5C 861.167,512.5 860.833,512.5 860.5,512.5C 859.965,510.554 858.632,509.554 856.5,509.5C 849.849,502.909 843.182,496.243 836.5,489.5C 834.122,484.574 831.122,480.074 827.5,476C 824.792,471.001 822.459,465.834 820.5,460.5C 820.614,457.784 819.614,455.784 817.5,454.5C 814.133,445.741 811.466,436.741 809.5,427.5C 809.083,423.165 808.583,418.832 808,414.5C 807.617,413.944 807.117,413.611 806.5,413.5C 806.5,411.833 806.5,410.167 806.5,408.5C 805.658,392.849 805.325,377.182 805.5,361.5C 807.384,355.24 808.384,348.574 808.5,341.5C 809.856,329.597 812.356,317.93 816,306.5C 820.141,296.947 824.807,287.614 830,278.5C 835.721,270.342 841.888,262.676 848.5,255.5C 853.4,251.527 858.4,247.694 863.5,244C 867.635,241.388 871.968,239.221 876.5,237.5C 878.728,237.223 880.395,236.223 881.5,234.5C 885.121,233.306 888.788,232.306 892.5,231.5C 895.636,231.397 898.302,230.397 900.5,228.5C 902.167,228.5 903.833,228.5 905.5,228.5C 911.597,228.433 917.264,227.433 922.5,225.5 Z"/></g>
<g><path style="opacity:1" fill="#acb0c5" d="M 922.5,225.5 C 917.264,227.433 911.597,228.433 905.5,228.5C 905.918,227.778 906.584,227.278 907.5,227C 912.448,225.95 917.448,225.45 922.5,225.5 Z"/></g>
<g><path style="opacity:1" fill="#b3b7ca" d="M 936.5,225.5 C 945.125,225.272 953.458,226.272 961.5,228.5C 952.783,228.334 944.45,227.334 936.5,225.5 Z"/></g>
<g><path style="opacity:1" fill="#8e94b1" d="M 1507.5,229.5 C 1513.32,228.347 1519.32,228.181 1525.5,229C 1527.74,229.05 1529.41,229.883 1530.5,231.5C 1522.94,229.862 1515.28,229.196 1507.5,229.5 Z"/></g>
<g><path style="opacity:1" fill="#7981a2" d="M 336.5,231.5 C 327.833,230.167 319.167,230.167 310.5,231.5C 314.445,230.175 318.778,229.508 323.5,229.5C 328.222,229.508 332.555,230.175 336.5,231.5 Z"/></g>
<g><path style="opacity:1" fill="#9ca2ba" d="M 900.5,228.5 C 898.302,230.397 895.636,231.397 892.5,231.5C 892.611,230.883 892.944,230.383 893.5,230C 895.866,229.56 898.199,229.06 900.5,228.5 Z"/></g>
<g><path style="opacity:1" fill="#8087a7" d="M 965.5,228.5 C 968.542,228.733 971.208,229.733 973.5,231.5C 970.284,231.655 967.617,230.655 965.5,228.5 Z"/></g>
<g><path style="opacity:1" fill="#727a9d" d="M 1264.5,228.5 C 1262.17,229.167 1259.83,229.833 1257.5,230.5C 1254.79,230.575 1252.13,230.908 1249.5,231.5C 1249.97,230.307 1250.97,229.64 1252.5,229.5C 1256.46,228.726 1260.46,228.393 1264.5,228.5 Z"/></g>
<g><path style="opacity:1" fill="#b8bccd" d="M 1264.5,228.5 C 1271.17,228.334 1277.84,228.5 1284.5,229C 1285.74,229.232 1286.74,229.732 1287.5,230.5C 1277.5,230.5 1267.5,230.5 1257.5,230.5C 1259.83,229.833 1262.17,229.167 1264.5,228.5 Z"/></g>
<g><path style="opacity:1" fill="#3a4576" d="M 1719.5,231.5 C 1710.83,231.5 1702.17,231.5 1693.5,231.5C 1693.92,230.778 1694.58,230.278 1695.5,230C 1699.5,229.833 1703.5,229.667 1707.5,229.5C 1711.89,229.509 1715.89,230.176 1719.5,231.5 Z"/></g>
<g><path style="opacity:1" fill="#fdfdfe" d="M 336.5,231.5 C 337.5,231.5 338.5,231.5 339.5,231.5C 340.486,233.408 342.152,234.408 344.5,234.5C 348.763,237.743 352.263,241.743 355,246.5C 356.252,249.014 356.752,251.68 356.5,254.5C 357.155,314.64 357.822,374.64 358.5,434.5C 359.119,441.526 360.452,448.526 362.5,455.5C 362.592,457.848 363.592,459.514 365.5,460.5C 368.218,466.883 372.885,471.217 379.5,473.5C 383.183,475.25 387.183,475.917 391.5,475.5C 392.5,475.5 393.5,475.5 394.5,475.5C 399.874,475.477 405.207,474.977 410.5,474C 411.416,473.722 412.082,473.222 412.5,472.5C 415.127,471.908 417.794,471.575 420.5,471.5C 424.33,471.091 427.33,469.424 429.5,466.5C 430.791,466.737 431.791,466.404 432.5,465.5C 434.927,465.477 437.26,464.977 439.5,464C 440.823,463.184 441.489,462.017 441.5,460.5C 444.589,459.261 447.589,457.761 450.5,456C 456.54,451.301 462.207,446.135 467.5,440.5C 469.497,371.841 470.163,302.841 469.5,233.5C 471.5,233.5 473.5,233.5 475.5,233.5C 491.827,232.247 508.161,232.247 524.5,233.5C 526.167,233.5 527.833,233.5 529.5,233.5C 529.333,310.167 529.5,386.834 530,463.5C 530.278,464.416 530.778,465.082 531.5,465.5C 531.5,466.167 531.833,466.5 532.5,466.5C 533.092,469.127 533.425,471.794 533.5,474.5C 533.595,476.786 534.262,478.786 535.5,480.5C 537.132,484.015 538.632,487.682 540,491.5C 541.468,492.989 542.968,494.323 544.5,495.5C 545.038,497.117 545.371,498.784 545.5,500.5C 545.567,501.959 545.234,503.292 544.5,504.5C 542.842,507.789 541.175,511.123 539.5,514.5C 538.392,516.781 537.058,518.948 535.5,521C 531.789,523.058 528.456,525.558 525.5,528.5C 524.333,528.833 523.167,529.167 522,529.5C 510.663,527.578 500.829,522.912 492.5,515.5C 492.5,514.167 491.833,513.5 490.5,513.5C 485.535,508.911 481.535,503.577 478.5,497.5C 478.379,494.895 477.379,492.895 475.5,491.5C 475.25,490.078 474.417,489.078 473,488.5C 467.012,493.908 460.512,498.741 453.5,503C 452.833,504 452.167,505 451.5,506C 447.551,507.803 443.885,509.97 440.5,512.5C 438.152,512.592 436.486,513.592 435.5,515.5C 430.648,517.756 425.648,519.756 420.5,521.5C 417.784,521.386 415.784,522.386 414.5,524.5C 413.833,524.5 413.167,524.5 412.5,524.5C 410.304,524.59 408.137,524.923 406,525.5C 404.624,525.684 403.791,526.351 403.5,527.5C 402.5,527.5 401.5,527.5 400.5,527.5C 392.847,528.097 385.18,528.597 377.5,529C 376.944,529.383 376.611,529.883 376.5,530.5C 370.788,530.687 365.121,530.354 359.5,529.5C 358.5,529.5 357.5,529.5 356.5,529.5C 352.41,526.814 347.743,525.147 342.5,524.5C 340.053,524.385 338.053,523.385 336.5,521.5C 335.341,519.75 333.674,518.75 331.5,518.5C 329.527,517.205 327.527,515.872 325.5,514.5C 323.12,511.076 320.287,508.076 317,505.5C 314.817,501.793 312.65,498.127 310.5,494.5C 310.408,492.152 309.408,490.486 307.5,489.5C 304.891,481.839 302.391,474.173 300,466.5C 298.95,461.552 298.45,456.552 298.5,451.5C 297.69,391.848 297.19,332.182 297,272.5C 296.617,271.944 296.117,271.611 295.5,271.5C 295.663,269.143 295.497,266.81 295,264.5C 294.617,263.944 294.117,263.611 293.5,263.5C 293.5,262.5 293.5,261.5 293.5,260.5C 293.443,256.971 292.443,253.971 290.5,251.5C 289.306,247.879 288.306,244.212 287.5,240.5C 292.06,238.311 296.727,236.311 301.5,234.5C 304.015,234.231 306.015,233.231 307.5,231.5C 308.5,231.5 309.5,231.5 310.5,231.5C 319.167,230.167 327.833,230.167 336.5,231.5 Z"/></g>
<g><path style="opacity:1" fill="#434e7c" d="M 504.5,231.5 C 498.833,231.5 493.167,231.5 487.5,231.5C 487.918,230.778 488.584,230.278 489.5,230C 492,229.833 494.5,229.667 497,229.5C 499.929,229.525 502.429,230.191 504.5,231.5 Z"/></g>
<g><path style="opacity:1" fill="#fdfdfe" d="M 1197.5,271.5 C 1199.25,270.341 1200.25,268.674 1200.5,266.5C 1202.21,262.266 1205.04,258.932 1209,256.5C 1209.33,255.167 1209.67,253.833 1210,252.5C 1215.23,249.682 1219.73,246.016 1223.5,241.5C 1229.14,238.567 1234.81,235.733 1240.5,233C 1243.39,231.851 1246.39,231.351 1249.5,231.5C 1252.13,230.908 1254.79,230.575 1257.5,230.5C 1267.5,230.5 1277.5,230.5 1287.5,230.5C 1291.47,231.108 1295.47,231.608 1299.5,232C 1300.06,232.383 1300.39,232.883 1300.5,233.5C 1300.17,239.5 1299.83,245.5 1299.5,251.5C 1297.76,264.958 1293.76,277.625 1287.5,289.5C 1284.5,289.5 1281.5,289.5 1278.5,289.5C 1274.05,288.173 1269.22,287.506 1264,287.5C 1258.78,287.506 1253.95,288.173 1249.5,289.5C 1248.5,289.5 1247.5,289.5 1246.5,289.5C 1243.08,289.023 1240.42,290.023 1238.5,292.5C 1226.44,297.233 1216.77,304.9 1209.5,315.5C 1207.68,317.118 1206.35,319.118 1205.5,321.5C 1204.09,321.973 1203.43,322.973 1203.5,324.5C 1201.59,325.486 1200.59,327.152 1200.5,329.5C 1200.5,329.833 1200.5,330.167 1200.5,330.5C 1199.17,330.5 1198.5,331.167 1198.5,332.5C 1197.83,396.335 1197.17,460.335 1196.5,524.5C 1191.62,525.067 1186.96,526.067 1182.5,527.5C 1169.99,527.829 1157.66,527.495 1145.5,526.5C 1143.39,525.532 1141.06,525.198 1138.5,525.5C 1138.67,453.499 1138.5,381.499 1138,309.5C 1137.77,308.263 1137.27,307.263 1136.5,306.5C 1135.56,299.798 1134.23,293.131 1132.5,286.5C 1128.08,277.148 1122.74,268.482 1116.5,260.5C 1118.05,257.676 1119.05,254.676 1119.5,251.5C 1122.45,249.279 1124.11,246.279 1124.5,242.5C 1128.27,237.485 1132.6,232.985 1137.5,229C 1147,230.793 1156,234.126 1164.5,239C 1177.36,249.891 1186.53,263.391 1192,279.5C 1194.11,276.931 1195.94,274.265 1197.5,271.5 Z"/></g>
<g><path style="opacity:1" fill="#fdfdfd" d="M 1507.5,229.5 C 1515.28,229.196 1522.94,229.862 1530.5,231.5C 1540.67,237.084 1546.67,245.751 1548.5,257.5C 1548.59,259.786 1549.26,261.786 1550.5,263.5C 1551.45,264.919 1551.78,266.585 1551.5,268.5C 1551.88,270.698 1552.54,272.698 1553.5,274.5C 1556.47,282.24 1558.8,290.24 1560.5,298.5C 1560.9,301.486 1561.9,304.152 1563.5,306.5C 1565.16,312.455 1566.83,318.455 1568.5,324.5C 1568.66,327.68 1569.66,330.347 1571.5,332.5C 1571.5,333.5 1571.5,334.5 1571.5,335.5C 1571.62,338.105 1572.62,340.105 1574.5,341.5C 1574.5,342.5 1574.5,343.5 1574.5,344.5C 1574.59,346.786 1575.26,348.786 1576.5,350.5C 1577.45,351.919 1577.78,353.585 1577.5,355.5C 1577.59,357.786 1578.26,359.786 1579.5,361.5C 1580.43,362.568 1580.77,363.901 1580.5,365.5C 1580.66,368.68 1581.66,371.347 1583.5,373.5C 1583.5,374.5 1583.5,375.5 1583.5,376.5C 1583.76,379.272 1584.76,381.605 1586.5,383.5C 1587.9,387.716 1588.9,392.049 1589.5,396.5C 1590.37,401.243 1591.54,405.909 1593,410.5C 1593.38,411.056 1593.88,411.389 1594.5,411.5C 1596.5,420.833 1598.5,430.167 1600.5,439.5C 1600.68,442.984 1601.68,445.984 1603.5,448.5C 1603.5,449.5 1603.5,450.5 1603.5,451.5C 1603.56,455.029 1604.56,458.029 1606.5,460.5C 1607.97,466.009 1609.14,471.676 1610,477.5C 1610.2,479.32 1611.03,480.653 1612.5,481.5C 1613.55,483.256 1615.22,483.923 1617.5,483.5C 1617.5,482.5 1617.5,481.5 1617.5,480.5C 1617.56,476.78 1618.06,473.114 1619,469.5C 1623.5,452.506 1628,435.506 1632.5,418.5C 1634.32,415.984 1635.32,412.984 1635.5,409.5C 1635.5,408.167 1635.5,406.833 1635.5,405.5C 1636.69,405.03 1637.36,404.03 1637.5,402.5C 1638,400.182 1638.33,397.848 1638.5,395.5C 1638.5,394.833 1638.5,394.167 1638.5,393.5C 1640.69,391.478 1641.69,388.811 1641.5,385.5C 1641.5,384.833 1641.5,384.167 1641.5,383.5C 1643.24,380.505 1644.24,377.171 1644.5,373.5C 1646.33,366.875 1647.99,360.208 1649.5,353.5C 1651.87,351.044 1652.87,348.044 1652.5,344.5C 1652.5,343.5 1652.5,342.5 1652.5,341.5C 1654.58,339.316 1655.58,336.649 1655.5,333.5C 1655.54,328.263 1656.54,323.263 1658.5,318.5C 1660.44,316.029 1661.44,313.029 1661.5,309.5C 1661.5,308.5 1661.5,307.5 1661.5,306.5C 1663.58,304.316 1664.58,301.649 1664.5,298.5C 1664.22,295.171 1664.88,292.171 1666.5,289.5C 1668.9,284.899 1670.24,279.899 1670.5,274.5C 1671.91,267.755 1673.58,261.088 1675.5,254.5C 1677.57,251.237 1678.57,247.57 1678.5,243.5C 1678.18,233.226 1683.18,229.226 1693.5,231.5C 1702.17,231.5 1710.83,231.5 1719.5,231.5C 1721.5,231.5 1723.5,231.5 1725.5,231.5C 1728.69,233.389 1732.36,234.389 1736.5,234.5C 1737.5,234.5 1738.5,234.5 1739.5,234.5C 1739.52,236.06 1739.85,237.56 1740.5,239C 1737.9,248.097 1735.57,257.264 1733.5,266.5C 1731.69,267.918 1731.03,269.918 1731.5,272.5C 1728.5,282.834 1725.5,293.167 1722.5,303.5C 1720.56,305.971 1719.56,308.971 1719.5,312.5C 1718.09,317.078 1717.09,321.745 1716.5,326.5C 1714.72,327.99 1714.05,329.99 1714.5,332.5C 1713.54,334.265 1713.21,336.265 1713.5,338.5C 1711.69,339.918 1711.03,341.918 1711.5,344.5C 1704.87,365.572 1698.87,386.906 1693.5,408.5C 1691.93,410.509 1690.93,412.843 1690.5,415.5C 1690.5,416.833 1690.5,418.167 1690.5,419.5C 1688.75,421.033 1687.75,423.033 1687.5,425.5C 1685.95,430.349 1684.95,435.349 1684.5,440.5C 1682.52,442.597 1681.52,445.264 1681.5,448.5C 1681.5,449.5 1681.5,450.5 1681.5,451.5C 1679.66,453.653 1678.66,456.32 1678.5,459.5C 1676.72,463.616 1675.72,467.949 1675.5,472.5C 1673.74,473.552 1673.08,475.219 1673.5,477.5C 1671.57,482.31 1670.23,487.31 1669.5,492.5C 1667.93,494.102 1667.26,496.102 1667.5,498.5C 1667.5,499.167 1667.5,499.833 1667.5,500.5C 1665.75,502.033 1664.75,504.033 1664.5,506.5C 1664.5,507.5 1664.5,508.5 1664.5,509.5C 1662.56,511.971 1661.56,514.971 1661.5,518.5C 1661.5,519.5 1661.5,520.5 1661.5,521.5C 1659.6,523.698 1658.6,526.364 1658.5,529.5C 1658.5,530.167 1658.5,530.833 1658.5,531.5C 1656.76,533.395 1655.76,535.728 1655.5,538.5C 1655.5,539.5 1655.5,540.5 1655.5,541.5C 1653.62,542.895 1652.62,544.895 1652.5,547.5C 1650.07,556.358 1647.07,565.025 1643.5,573.5C 1641.54,576.178 1639.88,579.178 1638.5,582.5C 1628.07,610.425 1609.73,631.259 1583.5,645C 1581.56,645.813 1579.56,646.313 1577.5,646.5C 1575.82,646.285 1574.82,646.952 1574.5,648.5C 1573.5,648.5 1572.5,648.5 1571.5,648.5C 1568.32,648.661 1565.65,649.661 1563.5,651.5C 1559.5,651.833 1555.5,652.167 1551.5,652.5C 1538.83,653.786 1526.16,653.786 1513.5,652.5C 1507.77,652.74 1502.11,652.407 1496.5,651.5C 1489.09,650.695 1482.09,648.695 1475.5,645.5C 1474.6,640.877 1474.6,636.21 1475.5,631.5C 1476.28,621.054 1479.62,611.554 1485.5,603C 1488.89,602.341 1492.22,602.508 1495.5,603.5C 1496.99,605.28 1498.99,605.946 1501.5,605.5C 1502.5,605.5 1503.5,605.5 1504.5,605.5C 1505.92,607.308 1507.92,607.975 1510.5,607.5C 1517.41,609.47 1524.75,610.47 1532.5,610.5C 1536.18,610.309 1539.85,609.975 1543.5,609.5C 1545.33,609.415 1546.67,608.748 1547.5,607.5C 1551.94,606.104 1556.27,604.437 1560.5,602.5C 1562.85,602.408 1564.51,601.408 1565.5,599.5C 1567.9,596.754 1570.74,594.421 1574,592.5C 1577.16,587.719 1580.33,583.053 1583.5,578.5C 1586.65,576.883 1588.32,574.216 1588.5,570.5C 1593.39,560.054 1597.72,549.387 1601.5,538.5C 1602.74,536.786 1603.41,534.786 1603.5,532.5C 1603.5,531.5 1603.5,530.5 1603.5,529.5C 1601.01,527.612 1598.01,526.945 1594.5,527.5C 1584.99,526.897 1576.66,523.564 1569.5,517.5C 1567.2,513.853 1564.86,510.186 1562.5,506.5C 1561.06,502.78 1559.73,499.114 1558.5,495.5C 1556.23,490.676 1554.56,485.676 1553.5,480.5C 1553.97,477.918 1553.31,475.918 1551.5,474.5C 1550.43,469.8 1549.43,465.133 1548.5,460.5C 1548.38,457.895 1547.38,455.895 1545.5,454.5C 1545.5,453.5 1545.5,452.5 1545.5,451.5C 1545.6,449.447 1544.93,447.78 1543.5,446.5C 1542.77,445.292 1542.43,443.959 1542.5,442.5C 1541.57,437.355 1539.9,432.689 1537.5,428.5C 1527.43,392.637 1516.77,356.97 1505.5,321.5C 1505.44,317.971 1504.44,314.971 1502.5,312.5C 1500.43,307.756 1499.09,302.756 1498.5,297.5C 1498.92,295.219 1498.26,293.552 1496.5,292.5C 1496.1,288.315 1495.1,284.315 1493.5,280.5C 1493.48,277.264 1492.48,274.597 1490.5,272.5C 1488.49,264.473 1486.49,256.473 1484.5,248.5C 1484.25,246.033 1483.25,244.033 1481.5,242.5C 1481.22,240.585 1481.55,238.919 1482.5,237.5C 1484.85,237.408 1486.51,236.408 1487.5,234.5C 1488.5,234.5 1489.5,234.5 1490.5,234.5C 1493.27,234.241 1495.61,233.241 1497.5,231.5C 1500.83,230.833 1504.17,230.167 1507.5,229.5 Z"/></g>
<g><path style="opacity:1" fill="#dadce5" d="M 478.5,231.5 C 481.5,231.5 484.5,231.5 487.5,231.5C 493.167,231.5 498.833,231.5 504.5,231.5C 509.5,231.5 514.5,231.5 519.5,231.5C 521.167,232.167 522.833,232.833 524.5,233.5C 508.161,232.247 491.827,232.247 475.5,233.5C 476.5,232.833 477.5,232.167 478.5,231.5 Z"/></g>
<g><path style="opacity:1" fill="#5a648d" d="M 519.5,231.5 C 523.489,231.116 527.155,231.783 530.5,233.5C 530.167,233.5 529.833,233.5 529.5,233.5C 527.833,233.5 526.167,233.5 524.5,233.5C 522.833,232.833 521.167,232.167 519.5,231.5 Z"/></g>
<g><path style="opacity:1" fill="#737a9d" d="M 307.5,231.5 C 306.015,233.231 304.015,234.231 301.5,234.5C 302.784,232.386 304.784,231.386 307.5,231.5 Z"/></g>
<g><path style="opacity:1" fill="#6a7297" d="M 974.5,231.5 C 977.542,231.733 980.208,232.733 982.5,234.5C 979.458,234.267 976.792,233.267 974.5,231.5 Z"/></g>
<g><path style="opacity:1" fill="#8389a9" d="M 1497.5,231.5 C 1495.61,233.241 1493.27,234.241 1490.5,234.5C 1492.28,232.643 1494.61,231.643 1497.5,231.5 Z"/></g>
<g><path style="opacity:1" fill="#9197b3" d="M 1725.5,231.5 C 1729.65,231.126 1733.31,232.126 1736.5,234.5C 1732.36,234.389 1728.69,233.389 1725.5,231.5 Z"/></g>
<g><path style="opacity:1" fill="#6b7398" d="M 339.5,231.5 C 341.674,231.75 343.341,232.75 344.5,234.5C 342.152,234.408 340.486,233.408 339.5,231.5 Z"/></g>
<g><path style="opacity:1" fill="#535e87" d="M 478.5,231.5 C 477.5,232.167 476.5,232.833 475.5,233.5C 473.5,233.5 471.5,233.5 469.5,233.5C 468.833,302.167 468.167,370.833 467.5,439.5C 467.5,370.5 467.5,301.5 467.5,232.5C 471.154,232.058 474.821,231.724 478.5,231.5 Z"/></g>
<g><path style="opacity:1" fill="#7c84a4" d="M 469.5,233.5 C 470.163,302.841 469.497,371.841 467.5,440.5C 467.5,440.167 467.5,439.833 467.5,439.5C 468.167,370.833 468.833,302.167 469.5,233.5 Z"/></g>
<g><path style="opacity:1" fill="#d2d4df" d="M 529.5,233.5 C 529.833,233.5 530.167,233.5 530.5,233.5C 530.5,307.167 530.5,380.833 530.5,454.5C 530.724,458.179 531.058,461.846 531.5,465.5C 530.778,465.082 530.278,464.416 530,463.5C 529.5,386.834 529.333,310.167 529.5,233.5 Z"/></g>
<g><path style="opacity:1" fill="#6d7599" d="M 881.5,234.5 C 880.395,236.223 878.728,237.223 876.5,237.5C 877.486,235.592 879.152,234.592 881.5,234.5 Z"/></g>
<g><path style="opacity:1" fill="#697196" d="M 983.5,234.5 C 985.848,234.592 987.514,235.592 988.5,237.5C 986.326,237.25 984.659,236.25 983.5,234.5 Z"/></g>
<g><path style="opacity:1" fill="#71799c" d="M 1487.5,234.5 C 1486.51,236.408 1484.85,237.408 1482.5,237.5C 1483.49,235.592 1485.15,234.592 1487.5,234.5 Z"/></g>
<g><path style="opacity:1" fill="#aaafc4" d="M 590.5,233.5 C 590.556,238.731 589.889,243.731 588.5,248.5C 588.302,243.25 588.969,238.25 590.5,233.5 Z"/></g>
<g><path style="opacity:1" fill="#959ab4" d="M 992.5,239.5 C 994.848,239.592 996.514,240.592 997.5,242.5C 995.152,242.408 993.486,241.408 992.5,239.5 Z"/></g>
<g><path style="opacity:1" fill="#9fa5bc" d="M 1481.5,242.5 C 1483.25,244.033 1484.25,246.033 1484.5,248.5C 1482.62,247.105 1481.62,245.105 1481.5,242.5 Z"/></g>
<g><path style="opacity:1" fill="#757d9f" d="M 1300.5,233.5 C 1301.16,236.314 1301.5,239.314 1301.5,242.5C 1301.48,245.913 1300.82,248.913 1299.5,251.5C 1299.83,245.5 1300.17,239.5 1300.5,233.5 Z"/></g>
<g><path style="opacity:1" fill="#999eb8" d="M 1678.5,243.5 C 1678.57,247.57 1677.57,251.237 1675.5,254.5C 1675.76,250.508 1676.76,246.841 1678.5,243.5 Z"/></g>
<g><path style="opacity:1" fill="#b1b5c9" d="M 1124.5,242.5 C 1124.11,246.279 1122.45,249.279 1119.5,251.5C 1120.4,247.999 1122.06,244.999 1124.5,242.5 Z"/></g>
<g><path style="opacity:1" fill="#757d9f" d="M 1014.5,254.5 C 1016.19,254.856 1017.19,255.856 1017.5,257.5C 1015.5,257.5 1014.5,256.5 1014.5,254.5 Z"/></g>
<g><path style="opacity:1" fill="#4d5582" d="M 290.5,251.5 C 292.443,253.971 293.443,256.971 293.5,260.5C 291.557,258.029 290.557,255.029 290.5,251.5 Z"/></g>
<g><path style="opacity:1" fill="#687096" d="M 1548.5,257.5 C 1550.31,258.918 1550.97,260.918 1550.5,263.5C 1549.26,261.786 1548.59,259.786 1548.5,257.5 Z"/></g>
<g><path style="opacity:1" fill="#787fa1" d="M 1018.5,257.5 C 1019.91,257.973 1020.57,258.973 1020.5,260.5C 1018.95,260.179 1018.29,259.179 1018.5,257.5 Z"/></g>
<g><path style="opacity:1" fill="#7780a0" d="M 356.5,254.5 C 358.496,314.157 359.163,374.157 358.5,434.5C 357.822,374.64 357.155,314.64 356.5,254.5 Z"/></g>
<g><path style="opacity:1" fill="#8d93af" d="M 1200.5,266.5 C 1200.25,268.674 1199.25,270.341 1197.5,271.5C 1197.59,269.152 1198.59,267.486 1200.5,266.5 Z"/></g>
<g><path style="opacity:1" fill="#5e678e" d="M 1733.5,266.5 C 1733.41,268.786 1732.74,270.786 1731.5,272.5C 1731.03,269.918 1731.69,267.918 1733.5,266.5 Z"/></g>
<g><path style="opacity:1" fill="#59618b" d="M 948.5,274.5 C 937.838,273.24 927.171,273.24 916.5,274.5C 916.918,273.778 917.584,273.278 918.5,273C 923.5,272.833 928.5,272.667 933.5,272.5C 938.881,272.506 943.881,273.172 948.5,274.5 Z"/></g>
<g><path style="opacity:1" fill="#081754" d="M 948.5,274.5 C 952.298,275.477 955.964,276.81 959.5,278.5C 959.973,279.906 960.973,280.573 962.5,280.5C 968.399,284.391 973.732,289.058 978.5,294.5C 979.362,295.766 980.029,297.099 980.5,298.5C 980.75,300.674 981.75,302.341 983.5,303.5C 990.145,316.316 994.145,329.982 995.5,344.5C 995.335,348.182 995.501,351.848 996,355.5C 996.232,356.737 996.732,357.737 997.5,358.5C 997.5,371.167 997.5,383.833 997.5,396.5C 995.602,403.768 994.602,411.434 994.5,419.5C 994.5,420.5 994.5,421.5 994.5,422.5C 992.692,423.918 992.025,425.918 992.5,428.5C 992.007,430.806 991.674,433.139 991.5,435.5C 990.883,435.611 990.383,435.944 990,436.5C 989.505,438.473 989.338,440.473 989.5,442.5C 985.233,453.615 979.067,463.615 971,472.5C 966.391,476.033 961.558,479.199 956.5,482C 954.655,483.128 952.655,483.628 950.5,483.5C 947.32,483.661 944.653,484.661 942.5,486.5C 932.288,487.158 922.288,486.158 912.5,483.5C 911.015,481.769 909.015,480.769 906.5,480.5C 902.891,479.026 899.557,477.026 896.5,474.5C 886.114,464.108 879.114,451.774 875.5,437.5C 875.405,435.214 874.738,433.214 873.5,431.5C 873.369,427.044 872.369,423.044 870.5,419.5C 869.946,412.847 869.612,406.18 869.5,399.5C 869.5,384.833 869.5,370.167 869.5,355.5C 869.5,353.833 869.5,352.167 869.5,350.5C 871.327,345.919 872.327,340.919 872.5,335.5C 872.5,333.5 872.5,331.5 872.5,329.5C 874.339,327.347 875.339,324.68 875.5,321.5C 875.5,320.5 875.5,319.5 875.5,318.5C 877.008,316.819 878.008,314.819 878.5,312.5C 882.405,298.633 890.405,287.966 902.5,280.5C 904.848,280.408 906.514,279.408 907.5,277.5C 910.289,275.986 913.289,274.986 916.5,274.5C 927.171,273.24 937.838,273.24 948.5,274.5 Z"/></g>
<g><path style="opacity:1" fill="#9fa5bc" d="M 1551.5,268.5 C 1553.31,269.918 1553.97,271.918 1553.5,274.5C 1552.54,272.698 1551.88,270.698 1551.5,268.5 Z"/></g>
<g><path style="opacity:1" fill="#747b9e" d="M 907.5,277.5 C 906.514,279.408 904.848,280.408 902.5,280.5C 903.486,278.592 905.152,277.592 907.5,277.5 Z"/></g>
<g><path style="opacity:1" fill="#71789c" d="M 1490.5,272.5 C 1492.48,274.597 1493.48,277.264 1493.5,280.5C 1491.66,278.347 1490.66,275.68 1490.5,272.5 Z"/></g>
<g><path style="opacity:1" fill="#2f396d" d="M 293.5,263.5 C 294.117,263.611 294.617,263.944 295,264.5C 295.497,266.81 295.663,269.143 295.5,271.5C 296.053,276.482 296.387,281.482 296.5,286.5C 295.732,285.737 295.232,284.737 295,283.5C 294.757,276.785 294.257,270.119 293.5,263.5 Z"/></g>
<g><path style="opacity:1" fill="#59638c" d="M 590.5,277.5 C 605.167,277.5 619.833,277.5 634.5,277.5C 634.208,345.509 634.542,413.509 635.5,481.5C 634.686,479.369 634.186,477.036 634,474.5C 633.5,409.168 633.333,343.834 633.5,278.5C 618.99,278.829 604.657,278.496 590.5,277.5 Z"/></g>
<g><path style="opacity:1" fill="#ecedf1" d="M 634.5,277.5 C 636.178,346.854 637.178,416.521 637.5,486.5C 635.744,485.448 635.077,483.781 635.5,481.5C 634.542,413.509 634.208,345.509 634.5,277.5 Z"/></g>
<g><path style="opacity:1" fill="#7981a1" d="M 959.5,278.5 C 961.179,278.285 962.179,278.952 962.5,280.5C 960.973,280.573 959.973,279.906 959.5,278.5 Z"/></g>
<g><path style="opacity:1" fill="#f6f6f9" d="M 1783.5,279.5 C 1785.65,279.372 1787.65,279.872 1789.5,281C 1795.17,285.169 1801.17,288.835 1807.5,292C 1809.91,295.043 1810.07,298.209 1808,301.5C 1805.76,303.282 1803.26,303.782 1800.5,303C 1793.5,299.503 1786.84,295.503 1780.5,291C 1777.51,286.141 1778.51,282.308 1783.5,279.5 Z"/></g>
<g><path style="opacity:1" fill="#a6abc1" d="M 1670.5,274.5 C 1670.24,279.899 1668.9,284.899 1666.5,289.5C 1666.88,284.138 1668.22,279.138 1670.5,274.5 Z"/></g>
<g><path style="opacity:1" fill="#f6f7f9" d="M 1904.5,286.5 C 1911.88,286.043 1914.71,289.376 1913,296.5C 1908.55,299.977 1903.71,302.811 1898.5,305C 1891.21,305.962 1888.38,302.795 1890,295.5C 1894.65,292.099 1899.48,289.099 1904.5,286.5 Z"/></g>
<g><path style="opacity:1" fill="#9298b3" d="M 1278.5,289.5 C 1274.8,289.448 1271.14,289.114 1267.5,288.5C 1261.44,288.254 1255.44,288.587 1249.5,289.5C 1253.95,288.173 1258.78,287.506 1264,287.5C 1269.22,287.506 1274.05,288.173 1278.5,289.5 Z"/></g>
<g><path style="opacity:1" fill="#2e376c" d="M 1267.5,288.5 C 1271.14,289.114 1274.8,289.448 1278.5,289.5C 1281.5,289.5 1284.5,289.5 1287.5,289.5C 1287.03,290.693 1286.03,291.36 1284.5,291.5C 1278.42,291.308 1272.75,290.308 1267.5,288.5 Z"/></g>
<g><path style="opacity:1" fill="#898fad" d="M 1246.5,289.5 C 1244.02,290.795 1241.35,291.795 1238.5,292.5C 1240.42,290.023 1243.08,289.023 1246.5,289.5 Z"/></g>
<g><path style="opacity:1" fill="#7c83a4" d="M 694.5,277.5 C 694.185,339.185 694.519,400.852 695.5,462.5C 694.778,462.082 694.278,461.416 694,460.5C 693.168,399.332 693.335,338.332 694.5,277.5 Z"/></g>
<g><path style="opacity:1" fill="#838ba8" d="M 1496.5,292.5 C 1498.26,293.552 1498.92,295.219 1498.5,297.5C 1497.07,296.22 1496.4,294.553 1496.5,292.5 Z"/></g>
<g><path style="opacity:1" fill="#858caa" d="M 295.5,271.5 C 296.117,271.611 296.617,271.944 297,272.5C 297.19,332.182 297.69,391.848 298.5,451.5C 296.504,396.843 295.837,341.843 296.5,286.5C 296.387,281.482 296.053,276.482 295.5,271.5 Z"/></g>
<g><path style="opacity:1" fill="#f6f6f8" d="M 1829.5,301.5 C 1837.82,302.122 1846.15,302.622 1854.5,303C 1860.32,306.098 1860.99,310.098 1856.5,315C 1847.45,315.807 1838.45,315.474 1829.5,314C 1824.26,309.741 1824.26,305.575 1829.5,301.5 Z"/></g>
<g><path style="opacity:1" fill="#616991" d="M 980.5,298.5 C 982.408,299.486 983.408,301.152 983.5,303.5C 981.75,302.341 980.75,300.674 980.5,298.5 Z"/></g>
<g><path style="opacity:1" fill="#9298b3" d="M 1560.5,298.5 C 1562.48,300.597 1563.48,303.264 1563.5,306.5C 1561.9,304.152 1560.9,301.486 1560.5,298.5 Z"/></g>
<g><path style="opacity:1" fill="#949bb5" d="M 1664.5,298.5 C 1664.58,301.649 1663.58,304.316 1661.5,306.5C 1661.73,303.458 1662.73,300.792 1664.5,298.5 Z"/></g>
<g><path style="opacity:1" fill="#a6aac1" d="M 1722.5,303.5 C 1722.44,307.029 1721.44,310.029 1719.5,312.5C 1719.56,308.971 1720.56,305.971 1722.5,303.5 Z"/></g>
<g><path style="opacity:1" fill="#7b81a2" d="M 1046.5,301.5 C 1048.36,303.282 1049.36,305.615 1049.5,308.5C 1047.64,306.718 1046.64,304.385 1046.5,301.5 Z"/></g>
<g><path style="opacity:1" fill="#8c93af" d="M 1348.5,307.5 C 1349.17,362.167 1349.83,416.833 1350.5,471.5C 1350.5,475.5 1350.5,479.5 1350.5,483.5C 1349.69,481.708 1349.19,479.708 1349,477.5C 1348.5,420.834 1348.33,364.168 1348.5,307.5 Z"/></g>
<g><path style="opacity:1" fill="#737b9d" d="M 1661.5,309.5 C 1661.44,313.029 1660.44,316.029 1658.5,318.5C 1658.56,314.971 1659.56,311.971 1661.5,309.5 Z"/></g>
<g><path style="opacity:1" fill="#727a9d" d="M 878.5,312.5 C 878.008,314.819 877.008,316.819 875.5,318.5C 875.386,315.784 876.386,313.784 878.5,312.5 Z"/></g>
<g><path style="opacity:1" fill="#4f5783" d="M 1502.5,312.5 C 1504.44,314.971 1505.44,317.971 1505.5,321.5C 1503.56,319.029 1502.56,316.029 1502.5,312.5 Z"/></g>
<g><path style="opacity:1" fill="#565c88" d="M 1209.5,315.5 C 1209.13,318.267 1207.8,320.267 1205.5,321.5C 1206.35,319.118 1207.68,317.118 1209.5,315.5 Z"/></g>
<g><path style="opacity:1" fill="#a1a7be" d="M 1136.5,306.5 C 1137.27,307.263 1137.77,308.263 1138,309.5C 1138.5,381.499 1138.67,453.499 1138.5,525.5C 1141.06,525.198 1143.39,525.532 1145.5,526.5C 1144.5,526.5 1143.5,526.5 1142.5,526.5C 1140.83,526.5 1139.17,526.5 1137.5,526.5C 1137.81,453.151 1137.48,379.818 1136.5,306.5 Z"/></g>
<g><path style="opacity:1" fill="#9da3bb" d="M 1203.5,324.5 C 1203.25,326.674 1202.25,328.341 1200.5,329.5C 1200.59,327.152 1201.59,325.486 1203.5,324.5 Z"/></g>
<g><path style="opacity:1" fill="#898fad" d="M 1052.5,320.5 C 1054.34,322.653 1055.34,325.32 1055.5,328.5C 1053.77,326.284 1052.77,323.618 1052.5,320.5 Z"/></g>
<g><path style="opacity:1" fill="#5e678f" d="M 875.5,321.5 C 875.339,324.68 874.339,327.347 872.5,329.5C 872.661,326.32 873.661,323.653 875.5,321.5 Z"/></g>
<g><path style="opacity:1" fill="#7e85a5" d="M 1716.5,326.5 C 1716.41,328.786 1715.74,330.786 1714.5,332.5C 1714.05,329.99 1714.72,327.99 1716.5,326.5 Z"/></g>
<g><path style="opacity:1" fill="#7b82a3" d="M 1568.5,324.5 C 1570.48,326.597 1571.48,329.264 1571.5,332.5C 1569.66,330.347 1568.66,327.68 1568.5,324.5 Z"/></g>
<g><path style="opacity:1" fill="#7981a1" d="M 1200.5,330.5 C 1200.17,396.134 1199.17,461.467 1197.5,526.5C 1198.5,461.905 1198.83,397.238 1198.5,332.5C 1198.5,331.167 1199.17,330.5 1200.5,330.5 Z"/></g>
<g><path style="opacity:1" fill="#e7e8ef" d="M 1198.5,332.5 C 1198.83,397.238 1198.5,461.905 1197.5,526.5C 1196.5,526.5 1195.5,526.5 1194.5,526.5C 1190.5,526.833 1186.5,527.167 1182.5,527.5C 1186.96,526.067 1191.62,525.067 1196.5,524.5C 1197.17,460.335 1197.83,396.335 1198.5,332.5 Z"/></g>
<g><path style="opacity:1" fill="#70789c" d="M 1571.5,335.5 C 1573.38,336.895 1574.38,338.895 1574.5,341.5C 1572.62,340.105 1571.62,338.105 1571.5,335.5 Z"/></g>
<g><path style="opacity:1" fill="#9da2bb" d="M 1655.5,333.5 C 1655.58,336.649 1654.58,339.316 1652.5,341.5C 1652.73,338.458 1653.73,335.792 1655.5,333.5 Z"/></g>
<g><path style="opacity:1" fill="#5c668e" d="M 1713.5,338.5 C 1713.12,340.698 1712.46,342.698 1711.5,344.5C 1711.03,341.918 1711.69,339.918 1713.5,338.5 Z"/></g>
<g><path style="opacity:1" fill="#9ba1b9" d="M 1056.5,338.5 C 1058.04,340.838 1058.71,343.505 1058.5,346.5C 1056.78,344.22 1056.11,341.553 1056.5,338.5 Z"/></g>
<g><path style="opacity:1" fill="#555e88" d="M 1574.5,344.5 C 1576.31,345.918 1576.97,347.918 1576.5,350.5C 1575.26,348.786 1574.59,346.786 1574.5,344.5 Z"/></g>
<g><path style="opacity:1" fill="#434c7b" d="M 872.5,335.5 C 872.327,340.919 871.327,345.919 869.5,350.5C 869.668,346.99 870.001,343.49 870.5,340C 870.569,338.014 871.235,336.514 872.5,335.5 Z"/></g>
<g><path style="opacity:1" fill="#9da1ba" d="M 1652.5,344.5 C 1652.87,348.044 1651.87,351.044 1649.5,353.5C 1649.56,349.971 1650.56,346.971 1652.5,344.5 Z"/></g>
<g><path style="opacity:1" fill="#ced1dd" d="M 808.5,341.5 C 808.384,348.574 807.384,355.24 805.5,361.5C 805.724,357.821 806.058,354.154 806.5,350.5C 805.945,346.988 806.612,343.988 808.5,341.5 Z"/></g>
<g><path style="opacity:1" fill="#8289a8" d="M 995.5,344.5 C 997.104,348.9 997.771,353.566 997.5,358.5C 996.732,357.737 996.232,356.737 996,355.5C 995.501,351.848 995.335,348.182 995.5,344.5 Z"/></g>
<g><path style="opacity:1" fill="#757c9f" d="M 1577.5,355.5 C 1579.31,356.918 1579.97,358.918 1579.5,361.5C 1578.26,359.786 1577.59,357.786 1577.5,355.5 Z"/></g>
<g><path style="opacity:1" fill="#9298b3" d="M 1580.5,365.5 C 1582.48,367.597 1583.48,370.264 1583.5,373.5C 1581.66,371.347 1580.66,368.68 1580.5,365.5 Z"/></g>
<g><path style="opacity:1" fill="#787fa1" d="M 869.5,355.5 C 869.5,370.167 869.5,384.833 869.5,399.5C 868.691,397.708 868.191,395.708 868,393.5C 867.333,381.167 867.333,368.833 868,356.5C 868.383,355.944 868.883,355.611 869.5,355.5 Z"/></g>
<g><path style="opacity:1" fill="#57608a" d="M 1644.5,373.5 C 1644.24,377.171 1643.24,380.505 1641.5,383.5C 1641.67,381.152 1642,378.818 1642.5,376.5C 1642.64,374.97 1643.31,373.97 1644.5,373.5 Z"/></g>
<g><path style="opacity:1" fill="#777ea0" d="M 1058.5,351.5 C 1059.12,351.611 1059.62,351.944 1060,352.5C 1060.17,361.333 1060.33,370.167 1060.5,379C 1060.5,388.193 1059.83,397.026 1058.5,405.5C 1059.82,387.502 1059.82,369.502 1058.5,351.5 Z"/></g>
<g><path style="opacity:1" fill="#606890" d="M 806.5,350.5 C 806.058,354.154 805.724,357.821 805.5,361.5C 805.325,377.182 805.658,392.849 806.5,408.5C 805.168,399.692 804.502,390.525 804.5,381C 804.667,371.833 804.833,362.667 805,353.5C 805.232,352.263 805.732,351.263 806.5,350.5 Z"/></g>
<g><path style="opacity:1" fill="#9399b4" d="M 1583.5,376.5 C 1585.36,378.282 1586.36,380.615 1586.5,383.5C 1584.76,381.605 1583.76,379.272 1583.5,376.5 Z"/></g>
<g><path style="opacity:1" fill="#777fa1" d="M 1641.5,385.5 C 1641.69,388.811 1640.69,391.478 1638.5,393.5C 1638.9,390.514 1639.9,387.848 1641.5,385.5 Z"/></g>
<g><path style="opacity:1" fill="#4b5681" d="M 212.5,174.5 C 212.5,174.833 212.5,175.167 212.5,175.5C 205.167,175.5 197.833,175.5 190.5,175.5C 189.833,291.833 189.167,408.167 188.5,524.5C 188.5,407.5 188.5,290.5 188.5,173.5C 196.486,174.099 204.486,174.432 212.5,174.5 Z"/></g>
<g><path style="opacity:1" fill="#454c7c" d="M 1638.5,395.5 C 1638.33,397.848 1638,400.182 1637.5,402.5C 1637.36,404.03 1636.69,405.03 1635.5,405.5C 1635.59,401.668 1636.59,398.335 1638.5,395.5 Z"/></g>
<g><path style="opacity:1" fill="#636b92" d="M 997.5,396.5 C 997.211,403.178 996.711,409.844 996,416.5C 995.768,417.737 995.268,418.737 994.5,419.5C 994.602,411.434 995.602,403.768 997.5,396.5 Z"/></g>
<g><path style="opacity:1" fill="#8d93b0" d="M 1589.5,396.5 C 1592.37,400.848 1594.04,405.848 1594.5,411.5C 1593.88,411.389 1593.38,411.056 1593,410.5C 1591.54,405.909 1590.37,401.243 1589.5,396.5 Z"/></g>
<g><path style="opacity:1" fill="#545c87" d="M 1693.5,408.5 C 1693.82,411.577 1692.82,413.91 1690.5,415.5C 1690.93,412.843 1691.93,410.509 1693.5,408.5 Z"/></g>
<g><path style="opacity:1" fill="#9ca1ba" d="M 1635.5,409.5 C 1635.32,412.984 1634.32,415.984 1632.5,418.5C 1633.1,415.873 1633.6,413.207 1634,410.5C 1634.38,409.944 1634.88,409.611 1635.5,409.5 Z"/></g>
<g><path style="opacity:1" fill="#838aa9" d="M 1690.5,419.5 C 1690.38,422.105 1689.38,424.105 1687.5,425.5C 1687.75,423.033 1688.75,421.033 1690.5,419.5 Z"/></g>
<g><path style="opacity:1" fill="#8e93b0" d="M 870.5,419.5 C 872.369,423.044 873.369,427.044 873.5,431.5C 871.272,427.924 870.272,423.924 870.5,419.5 Z"/></g>
<g><path style="opacity:1" fill="#5e678f" d="M 994.5,422.5 C 994.405,424.786 993.738,426.786 992.5,428.5C 992.025,425.918 992.692,423.918 994.5,422.5 Z"/></g>
<g><path style="opacity:1" fill="#656f94" d="M 1057.5,419.5 C 1057.97,422.082 1057.31,424.082 1055.5,425.5C 1055.59,423.214 1056.26,421.214 1057.5,419.5 Z"/></g>
<g><path style="opacity:1" fill="#606890" d="M 806.5,413.5 C 807.117,413.611 807.617,413.944 808,414.5C 808.583,418.832 809.083,423.165 809.5,427.5C 807.954,423.07 806.954,418.404 806.5,413.5 Z"/></g>
<g><path style="opacity:1" fill="#b5bacc" d="M 1055.5,428.5 C 1055.66,430.527 1055.5,432.527 1055,434.5C 1053.37,438.24 1051.87,441.907 1050.5,445.5C 1050.44,443.116 1050.78,440.782 1051.5,438.5C 1052.56,434.828 1053.89,431.494 1055.5,428.5 Z"/></g>
<g><path style="opacity:1" fill="#8289a8" d="M 873.5,431.5 C 874.738,433.214 875.405,435.214 875.5,437.5C 873.692,436.082 873.025,434.082 873.5,431.5 Z"/></g>
<g><path style="opacity:1" fill="#888fac" d="M 991.5,435.5 C 991.59,438.152 990.924,440.485 989.5,442.5C 989.338,440.473 989.505,438.473 990,436.5C 990.383,435.944 990.883,435.611 991.5,435.5 Z"/></g>
<g><path style="opacity:1" fill="#5f668f" d="M 1537.5,428.5 C 1539.9,432.689 1541.57,437.355 1542.5,442.5C 1539.5,438.503 1537.83,433.836 1537.5,428.5 Z"/></g>
<g><path style="opacity:1" fill="#9ea3bc" d="M 1600.5,439.5 C 1601.12,439.611 1601.62,439.944 1602,440.5C 1602.57,443.168 1603.07,445.834 1603.5,448.5C 1601.68,445.984 1600.68,442.984 1600.5,439.5 Z"/></g>
<g><path style="opacity:1" fill="#5f668f" d="M 1684.5,440.5 C 1684.34,443.68 1683.34,446.347 1681.5,448.5C 1681.52,445.264 1682.52,442.597 1684.5,440.5 Z"/></g>
<g><path style="opacity:1" fill="#747c9e" d="M 1543.5,446.5 C 1544.93,447.78 1545.6,449.447 1545.5,451.5C 1543.74,450.448 1543.08,448.781 1543.5,446.5 Z"/></g>
<g><path style="opacity:1" fill="#757c9f" d="M 1603.5,451.5 C 1605.44,453.971 1606.44,456.971 1606.5,460.5C 1604.56,458.029 1603.56,455.029 1603.5,451.5 Z"/></g>
<g><path style="opacity:1" fill="#9aa0b8" d="M 1545.5,454.5 C 1547.38,455.895 1548.38,457.895 1548.5,460.5C 1546.39,459.216 1545.39,457.216 1545.5,454.5 Z"/></g>
<g><path style="opacity:1" fill="#414879" d="M 1681.5,451.5 C 1681.98,454.917 1680.98,457.584 1678.5,459.5C 1678.66,456.32 1679.66,453.653 1681.5,451.5 Z"/></g>
<g><path style="opacity:1" fill="#5c658d" d="M 362.5,455.5 C 364.408,456.486 365.408,458.152 365.5,460.5C 363.592,459.514 362.592,457.848 362.5,455.5 Z"/></g>
<g><path style="opacity:1" fill="#6f779b" d="M 1049.5,451.5 C 1049.23,454.015 1048.23,456.015 1046.5,457.5C 1046.62,454.895 1047.62,452.895 1049.5,451.5 Z"/></g>
<g><path style="opacity:1" fill="#848ba9" d="M 817.5,454.5 C 819.614,455.784 820.614,457.784 820.5,460.5C 818.621,459.105 817.621,457.105 817.5,454.5 Z"/></g>
<g><path style="opacity:1" fill="#4e5984" d="M 530.5,454.5 C 532.25,458.183 532.917,462.183 532.5,466.5C 531.833,466.5 531.5,466.167 531.5,465.5C 531.058,461.846 530.724,458.179 530.5,454.5 Z"/></g>
<g><path style="opacity:1" fill="#b8bcce" d="M 441.5,460.5 C 441.489,462.017 440.823,463.184 439.5,464C 437.26,464.977 434.927,465.477 432.5,465.5C 435.589,464.119 438.589,462.453 441.5,460.5 Z"/></g>
<g><path style="opacity:1" fill="#a8acc2" d="M 429.5,466.5 C 427.33,469.424 424.33,471.091 420.5,471.5C 422.955,469.1 425.955,467.433 429.5,466.5 Z"/></g>
<g><path style="opacity:1" fill="#464e7d" d="M 412.5,472.5 C 412.082,473.222 411.416,473.722 410.5,474C 405.207,474.977 399.874,475.477 394.5,475.5C 394.611,474.883 394.944,474.383 395.5,474C 401.189,473.627 406.855,473.127 412.5,472.5 Z"/></g>
<g><path style="opacity:1" fill="#444d7c" d="M 379.5,473.5 C 383.817,473.083 387.817,473.75 391.5,475.5C 387.183,475.917 383.183,475.25 379.5,473.5 Z"/></g>
<g><path style="opacity:1" fill="#858caa" d="M 1551.5,474.5 C 1553.31,475.918 1553.97,477.918 1553.5,480.5C 1552.26,478.786 1551.59,476.786 1551.5,474.5 Z"/></g>
<g><path style="opacity:1" fill="#6b7397" d="M 1675.5,472.5 C 1675.6,474.553 1674.93,476.22 1673.5,477.5C 1673.08,475.219 1673.74,473.552 1675.5,472.5 Z"/></g>
<g><path style="opacity:1" fill="#5d668e" d="M 533.5,474.5 C 535.308,475.918 535.975,477.918 535.5,480.5C 534.262,478.786 533.595,476.786 533.5,474.5 Z"/></g>
<g><path style="opacity:1" fill="#606a92" d="M 710.5,478.5 C 726.986,479.092 743.319,479.758 759.5,480.5C 742.799,481.152 726.466,480.485 710.5,478.5 Z"/></g>
<g><path style="opacity:1" fill="#515a86" d="M 1426.5,478.5 C 1435.51,478.334 1444.51,478.5 1453.5,479C 1454.42,479.278 1455.08,479.778 1455.5,480.5C 1445.44,481.14 1435.78,480.473 1426.5,478.5 Z"/></g>
<g><path style="opacity:1" fill="#4f5683" d="M 759.5,480.5 C 761.443,482.971 762.443,485.971 762.5,489.5C 760.557,487.029 759.557,484.029 759.5,480.5 Z"/></g>
<g><path style="opacity:1" fill="#71789c" d="M 906.5,480.5 C 909.015,480.769 911.015,481.769 912.5,483.5C 909.895,483.379 907.895,482.379 906.5,480.5 Z"/></g>
<g><path style="opacity:1" fill="#858baa" d="M 1617.5,480.5 C 1617.5,481.5 1617.5,482.5 1617.5,483.5C 1615.22,483.923 1613.55,483.256 1612.5,481.5C 1613.5,481.414 1614.33,481.748 1615,482.5C 1615.71,481.619 1616.54,480.953 1617.5,480.5 Z"/></g>
<g><path style="opacity:1" fill="#9ba1b9" d="M 950.5,483.5 C 948.403,485.482 945.736,486.482 942.5,486.5C 944.653,484.661 947.32,483.661 950.5,483.5 Z"/></g>
<g><path style="opacity:1" fill="#a0a4bc" d="M 1456.5,486.5 C 1457.74,488.214 1458.41,490.214 1458.5,492.5C 1456.69,491.082 1456.03,489.082 1456.5,486.5 Z"/></g>
<g><path style="opacity:1" fill="#5d668e" d="M 307.5,489.5 C 309.408,490.486 310.408,492.152 310.5,494.5C 308.592,493.514 307.592,491.848 307.5,489.5 Z"/></g>
<g><path style="opacity:1" fill="#565e89" d="M 475.5,491.5 C 477.379,492.895 478.379,494.895 478.5,497.5C 476.769,496.015 475.769,494.015 475.5,491.5 Z"/></g>
<g><path style="opacity:1" fill="#5e668e" d="M 1669.5,492.5 C 1669.95,495.01 1669.28,497.01 1667.5,498.5C 1667.26,496.102 1667.93,494.102 1669.5,492.5 Z"/></g>
<g><path style="opacity:1" fill="#5a628b" d="M 544.5,495.5 C 547.75,496.914 548.084,498.581 545.5,500.5C 545.371,498.784 545.038,497.117 544.5,495.5 Z"/></g>
<g><path style="opacity:1" fill="#565d88" d="M 1558.5,495.5 C 1559.73,499.114 1561.06,502.78 1562.5,506.5C 1559.3,503.596 1557.97,499.929 1558.5,495.5 Z"/></g>
<g><path style="opacity:1" fill="#8f96b1" d="M 1667.5,500.5 C 1667.38,503.105 1666.38,505.105 1664.5,506.5C 1664.75,504.033 1665.75,502.033 1667.5,500.5 Z"/></g>
<g><path style="opacity:1" fill="#515b86" d="M 762.5,492.5 C 763.222,492.918 763.722,493.584 764,494.5C 764.167,499.333 764.333,504.167 764.5,509C 764.494,514.216 763.827,519.049 762.5,523.5C 763.809,513.179 763.809,502.846 762.5,492.5 Z"/></g>
<g><path style="opacity:1" fill="#a4a8bf" d="M 1664.5,509.5 C 1664.44,513.029 1663.44,516.029 1661.5,518.5C 1661.56,514.971 1662.56,511.971 1664.5,509.5 Z"/></g>
<g><path style="opacity:1" fill="#4c5281" d="M 544.5,504.5 C 544.944,508.946 543.277,512.279 539.5,514.5C 541.175,511.123 542.842,507.789 544.5,504.5 Z"/></g>
<g><path style="opacity:1" fill="#58608a" d="M 856.5,509.5 C 858.632,509.554 859.965,510.554 860.5,512.5C 858.368,512.446 857.035,511.446 856.5,509.5 Z"/></g>
<g><path style="opacity:1" fill="#6a7298" d="M 440.5,512.5 C 439.341,514.25 437.674,515.25 435.5,515.5C 436.486,513.592 438.152,512.592 440.5,512.5 Z"/></g>
<g><path style="opacity:1" fill="#7a81a2" d="M 861.5,512.5 C 862.833,512.5 863.5,513.167 863.5,514.5C 862.167,514.5 861.5,513.833 861.5,512.5 Z"/></g>
<g><path style="opacity:1" fill="#56618a" d="M 1458.5,495.5 C 1459.82,498.938 1460.49,502.771 1460.5,507C 1460.49,511.229 1459.82,515.062 1458.5,518.5C 1459.8,510.82 1459.8,503.154 1458.5,495.5 Z"/></g>
<g><path style="opacity:1" fill="#7a81a2" d="M 490.5,513.5 C 491.833,513.5 492.5,514.167 492.5,515.5C 491.167,515.5 490.5,514.833 490.5,513.5 Z"/></g>
<g><path style="opacity:1" fill="#8e95b1" d="M 331.5,518.5 C 333.674,518.75 335.341,519.75 336.5,521.5C 334.152,521.408 332.486,520.408 331.5,518.5 Z"/></g>
<g><path style="opacity:1" fill="#8e95b1" d="M 420.5,521.5 C 419.015,523.231 417.015,524.231 414.5,524.5C 415.784,522.386 417.784,521.386 420.5,521.5 Z"/></g>
<g><path style="opacity:1" fill="#989eb8" d="M 1377.5,521.5 C 1379.67,521.75 1381.34,522.75 1382.5,524.5C 1380.15,524.408 1378.49,523.408 1377.5,521.5 Z"/></g>
<g><path style="opacity:1" fill="#878eac" d="M 412.5,524.5 C 412.389,525.117 412.056,525.617 411.5,526C 408.793,526.395 406.127,526.895 403.5,527.5C 403.791,526.351 404.624,525.684 406,525.5C 408.137,524.923 410.304,524.59 412.5,524.5 Z"/></g>
<g><path style="opacity:1" fill="#6c7598" d="M 672.5,524.5 C 674.786,524.595 676.786,525.262 678.5,526.5C 675.918,526.975 673.918,526.308 672.5,524.5 Z"/></g>
<g><path style="opacity:1" fill="#555e88" d="M 753.5,524.5 C 753.082,525.222 752.416,525.722 751.5,526C 747.514,526.499 743.514,526.666 739.5,526.5C 743.919,525.028 748.586,524.362 753.5,524.5 Z"/></g>
<g><path style="opacity:1" fill="#949bb5" d="M 1449.5,524.5 C 1446.16,526.217 1442.49,526.884 1438.5,526.5C 1436.5,526.833 1434.5,527.167 1432.5,527.5C 1433.51,526.235 1435.01,525.569 1437,525.5C 1441.15,524.877 1445.31,524.544 1449.5,524.5 Z"/></g>
<g><path style="opacity:1" fill="#a1a7be" d="M 1385.5,524.5 C 1390.6,525.588 1395.6,526.588 1400.5,527.5C 1397.83,527.5 1395.17,527.5 1392.5,527.5C 1390.01,526.677 1387.68,525.677 1385.5,524.5 Z"/></g>
<g><path style="opacity:1" fill="#3a4676" d="M 182.5,526.5 C 175.197,527.831 167.53,528.498 159.5,528.5C 151.659,528.5 143.993,528.166 136.5,527.5C 138.5,527.5 140.5,527.5 142.5,527.5C 155.856,527.715 169.189,527.382 182.5,526.5 Z"/></g>
<g><path style="opacity:1" fill="#3c4877" d="M 678.5,526.5 C 697.82,527.793 717.153,527.793 736.5,526.5C 735.737,527.268 734.737,527.768 733.5,528C 724.333,528.167 715.167,528.333 706,528.5C 696.475,528.498 687.308,527.832 678.5,526.5 Z"/></g>
<g><path style="opacity:1" fill="#8c92af" d="M 884.5,524.5 C 889.221,525.39 893.555,527.056 897.5,529.5C 892.482,529.035 888.148,527.368 884.5,524.5 Z"/></g>
<g><path style="opacity:1" fill="#3c4777" d="M 1142.5,526.5 C 1143.5,526.5 1144.5,526.5 1145.5,526.5C 1157.66,527.495 1169.99,527.829 1182.5,527.5C 1186.5,527.167 1190.5,526.833 1194.5,526.5C 1194.39,527.117 1194.06,527.617 1193.5,528C 1185,528.167 1176.5,528.333 1168,528.5C 1159.14,528.498 1150.64,527.831 1142.5,526.5 Z"/></g>
<g><path style="opacity:1" fill="#3c4777" d="M 1438.5,526.5 C 1431.2,527.831 1423.53,528.498 1415.5,528.5C 1407.66,528.5 1399.99,528.166 1392.5,527.5C 1395.17,527.5 1397.83,527.5 1400.5,527.5C 1411.17,527.5 1421.83,527.5 1432.5,527.5C 1434.5,527.167 1436.5,526.833 1438.5,526.5 Z"/></g>
<g><path style="opacity:1" fill="#626a91" d="M 1661.5,521.5 C 1661.34,524.68 1660.34,527.347 1658.5,529.5C 1658.6,526.364 1659.6,523.698 1661.5,521.5 Z"/></g>
<g><path style="opacity:1" fill="#7980a2" d="M 342.5,524.5 C 347.743,525.147 352.41,526.814 356.5,529.5C 351.054,529.311 346.387,527.645 342.5,524.5 Z"/></g>
<g><path style="opacity:1" fill="#c8cbd9" d="M 400.5,527.5 C 397.829,529.118 394.829,529.785 391.5,529.5C 386.547,530.329 381.547,530.663 376.5,530.5C 376.611,529.883 376.944,529.383 377.5,529C 385.18,528.597 392.847,528.097 400.5,527.5 Z"/></g>
<g><path style="opacity:1" fill="#646c93" d="M 1594.5,527.5 C 1598.01,526.945 1601.01,527.612 1603.5,529.5C 1599.99,530.055 1596.99,529.388 1594.5,527.5 Z"/></g>
<g><path style="opacity:1" fill="#384374" d="M 359.5,529.5 C 365.121,530.354 370.788,530.687 376.5,530.5C 381.547,530.663 386.547,530.329 391.5,529.5C 391.082,530.222 390.416,530.722 389.5,531C 384.5,531.167 379.5,531.333 374.5,531.5C 369.119,531.494 364.119,530.828 359.5,529.5 Z"/></g>
<g><path style="opacity:1" fill="#606890" d="M 904.5,530.5 C 906.735,530.205 908.735,530.539 910.5,531.5C 910.5,531.833 910.5,532.167 910.5,532.5C 907.99,532.946 905.99,532.28 904.5,530.5 Z"/></g>
<g><path style="opacity:1" fill="#b2b6c9" d="M 956.5,530.5 C 955.5,531.167 954.5,531.833 953.5,532.5C 939.163,533.788 924.83,533.788 910.5,532.5C 910.5,532.167 910.5,531.833 910.5,531.5C 925.858,531.751 941.191,531.418 956.5,530.5 Z"/></g>
<g><path style="opacity:1" fill="#3e4878" d="M 967.5,529.5 C 967.389,530.117 967.056,530.617 966.5,531C 962.187,531.735 957.853,532.235 953.5,532.5C 954.5,531.833 955.5,531.167 956.5,530.5C 960.179,530.276 963.846,529.942 967.5,529.5 Z"/></g>
<g><path style="opacity:1" fill="#687196" d="M 1603.5,532.5 C 1603.41,534.786 1602.74,536.786 1601.5,538.5C 1601.05,535.99 1601.72,533.99 1603.5,532.5 Z"/></g>
<g><path style="opacity:1" fill="#5c648d" d="M 1658.5,531.5 C 1658.36,534.385 1657.36,536.718 1655.5,538.5C 1655.76,535.728 1656.76,533.395 1658.5,531.5 Z"/></g>
<g><path style="opacity:1" fill="#6a7297" d="M 1655.5,541.5 C 1655.38,544.105 1654.38,546.105 1652.5,547.5C 1652.62,544.895 1653.62,542.895 1655.5,541.5 Z"/></g>
<g><path style="opacity:1" fill="#a8adc3" d="M 1588.5,570.5 C 1588.32,574.216 1586.65,576.883 1583.5,578.5C 1584.72,575.507 1586.39,572.84 1588.5,570.5 Z"/></g>
<g><path style="opacity:1" fill="#585e89" d="M 1643.5,573.5 C 1643.23,577.391 1641.56,580.391 1638.5,582.5C 1639.88,579.178 1641.54,576.178 1643.5,573.5 Z"/></g>
<g><path style="opacity:1" fill="#8289a8" d="M 1565.5,599.5 C 1564.51,601.408 1562.85,602.408 1560.5,602.5C 1561.49,600.592 1563.15,599.592 1565.5,599.5 Z"/></g>
<g><path style="opacity:1" fill="#677095" d="M 1495.5,603.5 C 1497.9,603.259 1499.9,603.926 1501.5,605.5C 1498.99,605.946 1496.99,605.28 1495.5,603.5 Z"/></g>
<g><path style="opacity:1" fill="#4a5380" d="M 1504.5,605.5 C 1509.92,605.673 1514.92,606.673 1519.5,608.5C 1516.46,608.492 1513.46,608.159 1510.5,607.5C 1507.92,607.975 1505.92,607.308 1504.5,605.5 Z"/></g>
<g><path style="opacity:1" fill="#d7d9e3" d="M 1510.5,607.5 C 1513.46,608.159 1516.46,608.492 1519.5,608.5C 1528.89,608.78 1538.22,608.447 1547.5,607.5C 1546.67,608.748 1545.33,609.415 1543.5,609.5C 1539.85,609.975 1536.18,610.309 1532.5,610.5C 1524.75,610.47 1517.41,609.47 1510.5,607.5 Z"/></g>
<g><path style="opacity:1" fill="#7c84a4" d="M 1475.5,631.5 C 1474.6,636.21 1474.6,640.877 1475.5,645.5C 1474.2,643.603 1473.53,641.269 1473.5,638.5C 1473.53,635.731 1474.2,633.397 1475.5,631.5 Z"/></g>
<g><path style="opacity:1" fill="#777ea0" d="M 1577.5,646.5 C 1577.18,648.048 1576.18,648.715 1574.5,648.5C 1574.82,646.952 1575.82,646.285 1577.5,646.5 Z"/></g>
<g><path style="opacity:1" fill="#757d9f" d="M 1571.5,648.5 C 1569.35,650.339 1566.68,651.339 1563.5,651.5C 1565.65,649.661 1568.32,648.661 1571.5,648.5 Z"/></g>
<g><path style="opacity:1" fill="#6f779b" d="M 1496.5,651.5 C 1502.11,652.407 1507.77,652.74 1513.5,652.5C 1514.5,653.167 1515.5,653.833 1516.5,654.5C 1509.42,654.444 1502.75,653.444 1496.5,651.5 Z"/></g>
<g><path style="opacity:1" fill="#bec2d2" d="M 1513.5,652.5 C 1526.16,653.786 1538.83,653.786 1551.5,652.5C 1550.74,653.268 1549.74,653.768 1548.5,654C 1537.84,654.5 1527.17,654.667 1516.5,654.5C 1515.5,653.833 1514.5,653.167 1513.5,652.5 Z"/></g>
</svg>
