<?xml version="1.0" encoding="UTF-8"?>
<!DOCTYPE svg PUBLIC "-//W3C//DTD SVG 1.1//EN" "http://www.w3.org/Graphics/SVG/1.1/DTD/svg11.dtd">
<svg xmlns="http://www.w3.org/2000/svg" version="1.1" width="1396px" height="1400px" style="shape-rendering:geometricPrecision; text-rendering:geometricPrecision; image-rendering:optimizeQuality; fill-rule:evenodd; clip-rule:evenodd" xmlns:xlink="http://www.w3.org/1999/xlink">
<g><path style="opacity:1" fill="#081754" d="M -0.5,-0.5 C 464.833,-0.5 930.167,-0.5 1395.5,-0.5C 1395.5,466.167 1395.5,932.833 1395.5,1399.5C 930.167,1399.5 464.833,1399.5 -0.5,1399.5C -0.5,932.833 -0.5,466.167 -0.5,-0.5 Z"/></g>
<g><path style="opacity:1" fill="#fbfbfc" d="M 1010.5,168.5 C 1023.86,169.046 1029.36,176.046 1027,189.5C 999.389,338.624 972.722,487.957 947,637.5C 943.955,645.773 938.121,648.94 929.5,647C 891.833,630.833 854.167,614.667 816.5,598.5C 789.192,633.77 762.359,669.437 736,705.5C 728.107,711.29 720.773,710.623 714,703.5C 713.311,699.349 711.645,695.683 709,692.5C 692.238,641.211 674.904,590.211 657,539.5C 606.773,521.757 556.273,504.59 505.5,488C 496.231,483.863 493.397,477.029 497,467.5C 499.205,464.96 501.705,462.793 504.5,461C 673.355,363.604 842.022,266.104 1010.5,168.5 Z"/></g>
<g><path style="opacity:1" fill="#091754" d="M 938.5,240.5 C 939.239,240.369 939.906,240.536 940.5,241C 849.833,331.667 759.167,422.333 668.5,513C 625.661,499.832 582.995,485.832 540.5,471C 673.393,394.392 806.06,317.559 938.5,240.5 Z"/></g>
<g><path style="opacity:1" fill="#081754" d="M 987.5,246.5 C 988.097,246.735 988.43,247.235 988.5,248C 966.64,370.132 944.974,492.298 923.5,614.5C 873.417,593.628 823.417,572.461 773.5,551C 772.833,550.333 772.167,549.667 771.5,549C 843.719,448.288 915.719,347.454 987.5,246.5 Z"/></g>
<g><path style="opacity:1" fill="#686c94" d="M 907.5,312.5 C 907.461,311.244 907.961,310.244 909,309.5C 909.585,310.998 909.085,311.998 907.5,312.5 Z"/></g>
<g><path style="opacity:1" fill="#091754" d="M 907.5,312.5 C 850.606,393.666 792.773,474 734,553.5C 728.796,580.52 723.463,607.52 718,634.5C 706.756,601.102 695.756,567.768 685,534.5C 759.035,460.299 833.201,386.299 907.5,312.5 Z"/></g>
<g><path style="opacity:1" fill="#0b1855" d="M 757.5,573.5 C 768.603,577.884 779.603,582.55 790.5,587.5C 774.859,608.974 759.026,630.308 743,651.5C 747.244,625.442 752.078,599.442 757.5,573.5 Z"/></g>
<g><path style="opacity:1" fill="#eeeef3" d="M 706.5,593.5 C 710.194,594.033 712.361,596.033 713,599.5C 711.612,600.554 710.112,600.72 708.5,600C 706.662,597.917 705.995,595.75 706.5,593.5 Z"/></g>
<g><path style="opacity:1" fill="#f9f9fb" d="M 375.5,705.5 C 378.187,705.336 380.854,705.503 383.5,706C 396.006,714.423 409.006,722.089 422.5,729C 428.972,734.904 430.139,741.738 426,749.5C 421.139,753.284 415.639,754.451 409.5,753C 396.612,745.628 383.946,737.962 371.5,730C 369.622,728.457 368.122,726.624 367,724.5C 364.062,715.265 366.895,708.932 375.5,705.5 Z"/></g>
<g><path style="opacity:1" fill="#f8f9fa" d="M 625.5,718.5 C 641.251,719.727 645.751,727.393 639,741.5C 629.688,747.574 619.854,752.74 609.5,757C 596.855,757.866 591.355,752.033 593,739.5C 593.667,738.167 594.333,736.833 595,735.5C 605.005,729.417 615.172,723.751 625.5,718.5 Z"/></g>
<g><path style="opacity:1" fill="#fbfbfc" d="M 471.5,749.5 C 489.138,751.584 506.805,753.084 524.5,754C 530.053,758.618 531.886,764.451 530,771.5C 528.01,775.49 524.843,777.99 520.5,779C 511.167,779.667 501.833,779.667 492.5,779C 484.857,777.559 477.19,776.226 469.5,775C 464.558,772.118 462.224,767.785 462.5,762C 462.562,755.533 465.562,751.366 471.5,749.5 Z"/></g>
<g><path style="opacity:1" fill="#fcfcfc" d="M 1005.5,903.5 C 1014.56,903.154 1023.56,903.654 1032.5,905C 1038.54,907.889 1042.04,912.723 1043,919.5C 1043.33,994.5 1043.67,1069.5 1044,1144.5C 1043.92,1150.28 1046.42,1154.45 1051.5,1157C 1058.75,1158.39 1066.08,1158.89 1073.5,1158.5C 1076.58,1167.98 1077.25,1177.65 1075.5,1187.5C 1060.88,1189.25 1046.21,1189.75 1031.5,1189C 1016.76,1186.05 1007.93,1177.22 1005,1162.5C 1003.85,1118.7 1003.35,1074.86 1003.5,1031C 1003.67,989.167 1003.83,947.333 1004,905.5C 1004.72,904.956 1005.22,904.289 1005.5,903.5 Z"/></g>
<g><path style="opacity:1" fill="#fefefe" d="M 249.5,958.5 C 247.735,957.539 245.735,957.205 243.5,957.5C 243.5,1034.5 243.5,1111.5 243.5,1188.5C 229.827,1189.76 216.16,1189.76 202.5,1188.5C 202.5,1111.83 202.5,1035.17 202.5,958.5C 179.443,958.146 156.443,957.146 133.5,955.5C 132.167,944.833 132.167,934.167 133.5,923.5C 193.168,923.333 252.834,923.5 312.5,924C 314.387,931.361 314.887,938.861 314,946.5C 311.028,953.785 305.528,957.618 297.5,958C 281.503,958.5 265.503,958.667 249.5,958.5 Z"/></g>
<g><path style="opacity:1" fill="#fdfdfe" d="M 574.5,939.5 C 574.5,958.833 574.5,978.167 574.5,997.5C 582.352,997.825 590.018,997.492 597.5,996.5C 606.085,996.183 614.585,996.517 623,997.5C 624.964,1006.51 624.964,1015.51 623,1024.5C 606.911,1025.49 590.744,1025.82 574.5,1025.5C 574.333,1065.83 574.5,1106.17 575,1146.5C 576.333,1152.34 579.833,1156.18 585.5,1158C 596.167,1158.33 606.833,1158.67 617.5,1159C 620.591,1168.15 621.258,1177.49 619.5,1187C 601.555,1189.21 583.555,1189.87 565.5,1189C 549.031,1185.86 539.198,1176.03 536,1159.5C 535.5,1114.83 535.333,1070.17 535.5,1025.5C 525.833,1025.5 516.167,1025.5 506.5,1025.5C 505.2,1015.83 505.2,1006.16 506.5,996.5C 516.167,996.5 525.833,996.5 535.5,996.5C 535.333,982.163 535.5,967.829 536,953.5C 536.972,945.708 541.138,940.542 548.5,938C 556.5,937.333 564.5,937.333 572.5,938C 573.044,938.717 573.711,939.217 574.5,939.5 Z"/></g>
<g><path style="opacity:1" fill="#5e668f" d="M 574.5,939.5 C 575.497,958.326 575.83,977.326 575.5,996.5C 582.833,996.5 590.167,996.5 597.5,996.5C 590.018,997.492 582.352,997.825 574.5,997.5C 574.5,978.167 574.5,958.833 574.5,939.5 Z"/></g>
<g><path style="opacity:1" fill="#adb2c6" d="M 133.5,955.5 C 156.443,957.146 179.443,958.146 202.5,958.5C 179.5,958.5 156.5,958.5 133.5,958.5C 133.5,957.5 133.5,956.5 133.5,955.5 Z"/></g>
<g><path style="opacity:1" fill="#fdfdfd" d="M 718.5,991.5 C 772.114,989.277 803.614,1014.61 813,1067.5C 816.813,1094.23 814.146,1120.23 805,1145.5C 794.488,1169.35 776.655,1184.52 751.5,1191C 692.917,1199.11 658.75,1173.95 649,1115.5C 645.308,1090.23 647.641,1065.57 656,1041.5C 667.864,1013.45 688.697,996.788 718.5,991.5 Z"/></g>
<g><path style="opacity:1" fill="#fdfdfe" d="M 323.5,994.5 C 330.241,994.171 336.908,994.671 343.5,996C 349.079,999.323 352.579,1004.16 354,1010.5C 354.045,1052.53 354.712,1094.53 356,1136.5C 359.489,1151.83 368.989,1158 384.5,1155C 400.639,1151.43 414.639,1143.93 426.5,1132.5C 427.167,1087.17 427.833,1041.83 428.5,996.5C 441.481,995.224 454.481,995.224 467.5,996.5C 467.333,1044.83 467.5,1093.17 468,1141.5C 467.611,1152.7 471.111,1162.36 478.5,1170.5C 475.904,1178.54 471.237,1185.04 464.5,1190C 453.259,1189.29 444.092,1184.46 437,1175.5C 434.667,1171.5 432.333,1167.5 430,1163.5C 412.169,1180.75 390.835,1190.08 366,1191.5C 348.425,1191.88 334.759,1184.88 325,1170.5C 319.032,1159.6 315.699,1147.93 315,1135.5C 314.667,1098.17 314.333,1060.83 314,1023.5C 313.338,1016.35 311.504,1009.52 308.5,1003C 312.949,999.111 317.949,996.278 323.5,994.5 Z"/></g>
<g><path style="opacity:1" fill="#fdfdfd" d="M 865.5,993.5 C 883.671,998.171 895.505,1009.5 901,1027.5C 916.338,998.424 940.171,987.757 972.5,995.5C 972.386,1009.19 969.386,1022.19 963.5,1034.5C 937.36,1027.82 918.194,1036.49 906,1060.5C 905.5,1103.17 905.333,1145.83 905.5,1188.5C 892.149,1189.72 878.816,1189.72 865.5,1188.5C 865.667,1140.17 865.5,1091.83 865,1043.5C 863.176,1032.52 858.676,1022.85 851.5,1014.5C 853.841,1005.85 858.508,998.848 865.5,993.5 Z"/></g>
<g><path style="opacity:1" fill="#fcfcfd" d="M 1107.5,993.5 C 1119.12,991.893 1127.62,996.226 1133,1006.5C 1148.81,1057.74 1163.64,1109.07 1177.5,1160.5C 1179.63,1155.32 1181.47,1149.98 1183,1144.5C 1195.21,1094.97 1208.05,1045.64 1221.5,996.5C 1231.45,995.359 1241.45,995.192 1251.5,996C 1254.51,996.332 1257.34,997.166 1260,998.5C 1243.89,1057.83 1227.56,1117.16 1211,1176.5C 1205.02,1200.12 1196.02,1222.45 1184,1243.5C 1168.22,1264.64 1147.05,1274.3 1120.5,1272.5C 1109.59,1272.64 1098.92,1271.14 1088.5,1268C 1086.12,1266.49 1085.12,1264.32 1085.5,1261.5C 1086.28,1254.06 1088.44,1247.06 1092,1240.5C 1092.8,1239.2 1093.97,1238.53 1095.5,1238.5C 1130.42,1251.16 1153.92,1240.16 1166,1205.5C 1168.01,1200.29 1169.51,1194.96 1170.5,1189.5C 1154.96,1190.45 1145.12,1183.45 1141,1168.5C 1124.16,1112.65 1107.33,1056.82 1090.5,1001C 1090.82,999.347 1091.82,998.347 1093.5,998C 1098.25,996.358 1102.92,994.858 1107.5,993.5 Z"/></g>
<g><path style="opacity:1" fill="#0a1754" d="M 722.5,1022.5 C 745.078,1020.03 760.244,1029.36 768,1050.5C 770.629,1057.93 772.296,1065.6 773,1073.5C 775.727,1096.86 773.06,1119.53 765,1141.5C 752.373,1162.04 734.873,1167.54 712.5,1158C 704.088,1152.58 698.255,1145.08 695,1135.5C 686.471,1106.48 686.471,1077.48 695,1048.5C 699.878,1035.12 709.045,1026.45 722.5,1022.5 Z"/></g>
<g><path style="opacity:1" fill="#4a5582" d="M 249.5,958.5 C 247.833,958.5 246.167,958.5 244.5,958.5C 244.833,1035.34 244.499,1112 243.5,1188.5C 243.5,1111.5 243.5,1034.5 243.5,957.5C 245.735,957.205 247.735,957.539 249.5,958.5 Z"/></g>
</svg>
