<?xml version="1.0" encoding="UTF-8"?>
<!DOCTYPE svg PUBLIC "-//W3C//DTD SVG 1.1//EN" "http://www.w3.org/Graphics/SVG/1.1/DTD/svg11.dtd">
<svg xmlns="http://www.w3.org/2000/svg" version="1.1" width="1636px" height="658px" style="shape-rendering:geometricPrecision; text-rendering:geometricPrecision; image-rendering:optimizeQuality; fill-rule:evenodd; clip-rule:evenodd" xmlns:xlink="http://www.w3.org/1999/xlink">
<g><path style="opacity:1" fill="#fbfbfe" d="M -0.5,-0.5 C 544.833,-0.5 1090.17,-0.5 1635.5,-0.5C 1635.5,218.833 1635.5,438.167 1635.5,657.5C 1090.17,657.5 544.833,657.5 -0.5,657.5C -0.5,438.167 -0.5,218.833 -0.5,-0.5 Z"/></g>
<g><path style="opacity:1" fill="#0d1956" d="M 1596.5,20.5 C 1599.71,21.5415 1601.71,23.7082 1602.5,27C 1592.21,84.8792 1581.71,142.713 1571,200.5C 1569.94,201.899 1568.61,202.899 1567,203.5C 1553.03,197.758 1539.2,191.924 1525.5,186C 1523.83,185.333 1522.17,185.333 1520.5,186C 1510.67,199.167 1500.83,212.333 1491,225.5C 1489.01,227.378 1486.84,227.712 1484.5,226.5C 1482.75,223.995 1481.25,221.329 1480,218.5C 1473.86,199.759 1467.53,181.092 1461,162.5C 1441.78,155.091 1422.28,148.257 1402.5,142C 1399.99,140.484 1399.16,138.318 1400,135.5C 1402.38,132.727 1405.22,130.561 1408.5,129C 1471.36,92.9374 1534.02,56.7707 1596.5,20.5 Z"/></g>
<g><path style="opacity:1" fill="#f8f8fc" d="M 1565.5,49.5 C 1566.24,49.369 1566.91,49.5357 1567.5,50C 1533.5,84 1499.5,118 1465.5,152C 1448.89,147.686 1432.56,142.352 1416.5,136C 1466.56,107.645 1516.22,78.8116 1565.5,49.5 Z"/></g>
<g><path style="opacity:1" fill="#f7f8fc" d="M 1586.5,50.5 C 1587.14,51.0968 1587.47,51.9302 1587.5,53C 1579.37,99.2056 1571.04,145.372 1562.5,191.5C 1542.84,183.33 1523.5,174.663 1504.5,165.5C 1531.86,127.149 1559.19,88.8152 1586.5,50.5 Z"/></g>
<g><path style="opacity:1" fill="#eff0f6" d="M 1555.5,75.5 C 1556.53,75.8966 1556.69,76.5632 1556,77.5C 1534.23,108.048 1512.23,138.382 1490,168.5C 1488,178.5 1486,188.5 1484,198.5C 1482.6,194.129 1481.1,189.796 1479.5,185.5C 1480.26,185.089 1481.26,184.923 1482.5,185C 1481.44,183.812 1480.1,183.312 1478.5,183.5C 1476,175.517 1473.83,167.517 1472,159.5C 1500.03,131.632 1527.87,103.632 1555.5,75.5 Z"/></g>
<g><path style="opacity:1" fill="#081754" d="M 1181.5,137.5 C 1191.17,137.334 1200.84,137.5 1210.5,138C 1221.55,140.052 1228.39,146.552 1231,157.5C 1231.33,258.5 1231.67,359.5 1232,460.5C 1232.86,467.726 1236.36,473.226 1242.5,477C 1252.34,478.101 1262.17,478.935 1272,479.5C 1275.58,491.976 1276.42,504.643 1274.5,517.5C 1261.22,519.111 1247.89,520.111 1234.5,520.5C 1217.78,522.271 1203.28,517.605 1191,506.5C 1186.33,500.169 1183,493.169 1181,485.5C 1179.84,427.036 1179.34,368.536 1179.5,310C 1179.67,253.167 1179.83,196.333 1180,139.5C 1180.72,138.956 1181.22,138.289 1181.5,137.5 Z"/></g>
<g><path style="opacity:1" fill="#081754" d="M 88.5,210.5 C 63.6051,211.142 38.9384,210.475 14.5,208.5C 13.188,193.831 13.188,179.165 14.5,164.5C 94.1695,164.167 173.836,164.5 253.5,165.5C 257.573,177.631 257.406,189.631 253,201.5C 248.168,206.332 242.335,209.165 235.5,210C 210.836,210.5 186.169,210.667 161.5,210.5C 161.5,313.5 161.5,416.5 161.5,519.5C 143.157,520.731 124.824,520.731 106.5,519.5C 106.5,416.5 106.5,313.5 106.5,210.5C 100.5,210.5 94.5,210.5 88.5,210.5 Z"/></g>
<g><path style="opacity:1" fill="#e9eaf2" d="M 1498.5,175.5 C 1503.54,176.526 1508.21,178.359 1512.5,181C 1506.21,189.077 1500.05,197.244 1494,205.5C 1495.68,195.582 1497.18,185.582 1498.5,175.5 Z"/></g>
<g><path style="opacity:1" fill="#091754" d="M 627.5,301.5 C 620.018,300.508 612.352,300.175 604.5,300.5C 604.168,354.669 604.501,408.669 605.5,462.5C 606.682,469.849 610.682,475.015 617.5,478C 632.167,478.333 646.833,478.667 661.5,479C 663.039,482.341 664.206,485.841 665,489.5C 665.817,498.745 665.65,507.911 664.5,517C 647.686,518.535 630.853,519.702 614,520.5C 596.365,522.741 580.532,518.574 566.5,508C 557.905,498.562 553.405,487.395 553,474.5C 552.5,416.834 552.333,359.168 552.5,301.5C 539.5,301.5 526.5,301.5 513.5,301.5C 512.289,288.815 512.289,276.149 513.5,263.5C 519.075,262.548 524.741,262.214 530.5,262.5C 537.833,262.5 545.167,262.5 552.5,262.5C 552.333,243.497 552.5,224.497 553,205.5C 553.802,195.704 558.635,188.871 567.5,185C 573.756,183.897 580.089,183.397 586.5,183.5C 591.833,183.667 597.167,183.833 602.5,184C 603,184.5 603.5,185 604,185.5C 604.5,211.498 604.667,237.498 604.5,263.5C 626.153,262.621 647.82,262.288 669.5,262.5C 672.377,275.258 672.043,287.924 668.5,300.5C 654.85,301.499 641.183,301.833 627.5,301.5 Z"/></g>
<g><path style="opacity:1" fill="#858bab" d="M 14.5,208.5 C 38.9384,210.475 63.6051,211.142 88.5,210.5C 64.0056,211.498 39.339,211.831 14.5,211.5C 14.5,210.5 14.5,209.5 14.5,208.5 Z"/></g>
<g><path style="opacity:1" fill="#0f1a57" d="M 1353.5,225.5 C 1360.39,228.313 1366.89,231.979 1373,236.5C 1373.99,242.502 1371.49,244.668 1365.5,243C 1361.01,240.588 1356.68,237.921 1352.5,235C 1349.64,231.376 1349.97,228.209 1353.5,225.5 Z"/></g>
<g><path style="opacity:1" fill="#141e59" d="M 1448.5,230.5 C 1453.92,230.682 1455.92,233.348 1454.5,238.5C 1451.16,241.171 1447.5,243.337 1443.5,245C 1437.93,245.268 1435.93,242.768 1437.5,237.5C 1441.06,234.892 1444.73,232.559 1448.5,230.5 Z"/></g>
<g><path style="opacity:1" fill="#131d58" d="M 1389.5,242.5 C 1396.54,242.759 1403.54,243.426 1410.5,244.5C 1412.99,247.279 1412.99,250.112 1410.5,253C 1404.5,253.667 1398.5,253.667 1392.5,253C 1385.88,250.982 1384.88,247.482 1389.5,242.5 Z"/></g>
<g><path style="opacity:1" fill="#091754" d="M 794.5,256.5 C 863.387,250.842 905.887,281.508 922,348.5C 928.21,383.995 926.21,418.995 916,453.5C 894.028,508.254 853.528,531.754 794.5,524C 749.6,514.771 721.1,487.938 709,443.5C 707.077,435.887 705.411,428.221 704,420.5C 697.949,381.749 703.282,344.749 720,309.5C 736.59,280.132 761.423,262.465 794.5,256.5 Z"/></g>
<g><path style="opacity:1" fill="#0a1855" d="M 270.5,259.5 C 279.016,258.885 287.349,259.718 295.5,262C 303.944,267.027 308.777,274.527 310,284.5C 310.333,337.833 310.667,391.167 311,444.5C 313.685,469.836 327.518,479.67 352.5,474C 374.012,469.664 392.179,459.498 407,443.5C 407.5,383.168 407.667,322.834 407.5,262.5C 425.484,259.94 443.484,259.94 461.5,262.5C 461.333,328.168 461.5,393.834 462,459.5C 462.47,473.084 466.97,485.084 475.5,495.5C 472.41,506.085 466.41,514.585 457.5,521C 439.601,520.133 426.101,511.966 417,496.5C 415.448,492.667 413.615,489 411.5,485.5C 394.167,502.17 373.833,513.67 350.5,520C 300.693,532.027 270.193,513.194 259,463.5C 258.251,458.511 257.585,453.511 257,448.5C 256.667,398.167 256.333,347.833 256,297.5C 255.053,288.376 252.553,279.709 248.5,271.5C 254.729,265.387 262.062,261.387 270.5,259.5 Z"/></g>
<g><path style="opacity:1" fill="#0b1855" d="M 1103.5,258.5 C 1114.56,258.842 1125.56,259.842 1136.5,261.5C 1137.14,279.455 1133.14,296.289 1124.5,312C 1089.38,304.142 1063.88,316.309 1048,348.5C 1047.67,405.167 1047.33,461.833 1047,518.5C 1043.92,519.288 1040.76,519.788 1037.5,520C 1024.5,520.667 1011.5,520.667 998.5,520C 996.899,519.727 995.399,519.227 994,518.5C 993.667,453.5 993.333,388.5 993,323.5C 990.539,309.245 984.372,296.911 974.5,286.5C 977.994,275.861 983.994,267.027 992.5,260C 1000,259.961 1007,261.961 1013.5,266C 1027.15,275.323 1036.65,287.823 1042,303.5C 1047.89,291.203 1056.06,280.703 1066.5,272C 1077.74,264.202 1090.07,259.702 1103.5,258.5 Z"/></g>
<g><path style="opacity:1" fill="#091754" d="M 1319.5,258.5 C 1334.86,256.548 1345.69,262.548 1352,276.5C 1372.75,344.065 1391.91,412.065 1409.5,480.5C 1410.69,481.429 1412.02,481.762 1413.5,481.5C 1432.2,408.433 1451.2,335.433 1470.5,262.5C 1485.11,260.003 1499.78,259.836 1514.5,262C 1517.22,262.797 1519.72,263.963 1522,265.5C 1498.64,351.936 1474.64,438.269 1450,524.5C 1443.38,544.734 1435.38,564.401 1426,583.5C 1411.53,609.959 1389.37,625.459 1359.5,630C 1339.72,632.419 1320.06,631.752 1300.5,628C 1296.42,627.118 1292.58,625.618 1289,623.5C 1288.12,609.998 1291.46,597.665 1299,586.5C 1299.56,585.978 1300.23,585.645 1301,585.5C 1317.39,591.159 1334.23,592.992 1351.5,591C 1367.79,587.044 1379.62,577.544 1387,562.5C 1393.64,549.745 1398.81,536.412 1402.5,522.5C 1392.95,521.364 1383.95,518.531 1375.5,514C 1369.17,508.519 1365.01,501.686 1363,493.5C 1340.47,418.071 1317.63,342.738 1294.5,267.5C 1295.09,266.201 1296.09,265.368 1297.5,265C 1304.87,262.498 1312.2,260.331 1319.5,258.5 Z"/></g>
<g><path style="opacity:1" fill="#999fba" d="M 530.5,262.5 C 524.741,262.214 519.075,262.548 513.5,263.5C 515.915,262.186 518.748,261.519 522,261.5C 525.021,261.502 527.854,261.836 530.5,262.5 Z"/></g>
<g><path style="opacity:1" fill="#fafbfe" d="M 805.5,296.5 C 835.014,294.519 854.514,307.519 864,335.5C 866.896,344.978 868.896,354.644 870,364.5C 870.863,384.193 870.53,403.859 869,423.5C 866.86,439.085 861.527,453.419 853,466.5C 837.537,483.577 818.704,488.743 796.5,482C 779.208,474.701 768.374,461.868 764,443.5C 757.973,418.519 755.973,393.186 758,367.5C 759.18,349.632 764.18,332.966 773,317.5C 781.076,306.056 791.91,299.056 805.5,296.5 Z"/></g>
<g><path style="opacity:1" fill="#a4aac1" d="M 627.5,301.5 C 620.167,301.5 612.833,301.5 605.5,301.5C 605.5,355.167 605.5,408.833 605.5,462.5C 604.501,408.669 604.168,354.669 604.5,300.5C 612.352,300.175 620.018,300.508 627.5,301.5 Z"/></g>
</svg>
