<?xml version="1.0" encoding="UTF-8"?>
<svg version="1.1" xmlns="http://www.w3.org/2000/svg" width="1270" height="1158">
<path d="M0 0 C419.1 0 838.2 0 1270 0 C1270 382.14 1270 764.28 1270 1158 C850.9 1158 431.8 1158 0 1158 C0 775.86 0 393.72 0 0 Z " fill="#FDFDFD" transform="translate(0,0)"/>
<path d="M0 0 C7.88227288 2.47617454 13.06877873 6.58761423 17.15551758 13.88842773 C18.77563858 17.93943281 18.53277842 22.07210363 18.4375 26.375 C18.44458984 27.26960938 18.45167969 28.16421875 18.45898438 29.0859375 C18.41831537 33.390595 18.08318527 36.92300484 16.62841797 40.98510742 C14.53501803 47.01166666 13.56882762 53.18790304 12.51171875 59.46484375 C12.16933228 61.4451414 11.82694561 63.42543902 11.48454952 65.40573502 C11.12576101 67.48892519 10.77043485 69.57267789 10.41619873 71.65664673 C9.68112418 75.98089188 8.93632901 80.3034276 8.18994141 84.62573242 C7.21533727 90.27369707 6.24414684 95.92223486 5.27587891 101.57128906 C3.83190971 109.98914257 2.36331842 118.40238863 0.875 126.8125 C0.54254272 128.69727051 0.54254272 128.69727051 0.20336914 130.62011719 C-1.20491895 138.5809193 -2.63753094 146.53717074 -4.078125 154.4921875 C-4.84406664 158.7239011 -5.60968696 162.95567267 -6.375 167.1875 C-6.56740265 168.25112762 -6.7598053 169.31475525 -6.95803833 170.41061401 C-9.93003321 186.85899068 -12.77954035 203.32516209 -15.55657959 219.8074646 C-17.93177492 233.89199997 -20.41772137 247.95200789 -23 262 C-25.78038716 277.12752461 -28.43991917 292.27113329 -31 307.4375 C-33.58456452 322.74038268 -36.21442781 338.03360904 -38.9375 353.3125 C-39.10055634 354.22760345 -39.26361267 355.14270691 -39.43161011 356.08554077 C-41.35886079 366.89173701 -43.30456995 377.69456848 -45.2578125 388.49609375 C-46.02626563 392.74735539 -46.7944491 396.99866568 -47.5625 401.25 C-47.75236481 402.30035431 -47.94222961 403.35070862 -48.1378479 404.43289185 C-50.86493385 419.53168565 -53.49627837 434.64403377 -56.05102539 449.77285767 C-58.12035274 462.01394271 -60.29494135 474.23160105 -62.5625 486.4375 C-62.7086676 487.22446259 -62.85483521 488.01142517 -63.00543213 488.82223511 C-63.15075378 489.60462555 -63.29607544 490.38701599 -63.44580078 491.19311523 C-65.33968751 501.39226397 -67.19880204 511.5965509 -69 521.8125 C-69.18118378 522.839767 -69.18118378 522.839767 -69.36602783 523.88778687 C-70.83335341 532.22122458 -72.26978162 540.55966514 -73.68359375 548.90234375 C-73.82681564 549.74729904 -73.97003754 550.59225433 -74.11759949 551.46281433 C-74.2619191 552.31434586 -74.40623871 553.16587738 -74.55493164 554.04321289 C-74.84910669 555.77881104 -75.1432962 557.51440673 -75.4375 559.25 C-75.58331512 560.11060028 -75.72913025 560.97120056 -75.87936401 561.85787964 C-78.13972966 575.17868736 -80.53105171 588.47093547 -83.00561523 601.753479 C-85.07409814 612.86285589 -87.052663 623.98302716 -88.9375 635.125 C-91.2847572 648.99689558 -93.77645988 662.83893009 -96.31506348 676.67700195 C-99.00289938 691.34440645 -101.5781057 706.0290685 -104.10220337 720.72549438 C-104.68168858 724.09124623 -105.26516629 727.45627805 -105.8503418 730.82104492 C-106.03750259 731.89724594 -106.22466339 732.97344696 -106.41749573 734.08226013 C-106.7835797 736.18658644 -107.14981766 738.29088597 -107.51622009 740.39515686 C-108.40734704 745.52743177 -109.27951049 750.66163081 -110.11012268 755.80404663 C-110.59657087 758.78918955 -111.11339614 761.76908145 -111.625 764.75 C-111.77026123 765.72340332 -111.91552246 766.69680664 -112.06518555 767.69970703 C-113.3769045 775.06182257 -116.85649757 779.89044212 -122.83349609 784.37597656 C-128.32289813 787.59549338 -133.78076923 787.81590091 -140 787 C-144.38060744 785.61838893 -148.52409964 783.81656789 -152.69326782 781.9074707 C-154.90115887 780.89692091 -157.1189795 779.91167133 -159.34057617 778.93164062 C-161.82078258 777.83716861 -164.30016031 776.74108163 -166.77656555 775.63803101 C-176.92852702 771.11879983 -187.16155406 766.79144297 -197.3913269 762.45202637 C-203.19154068 759.99027915 -208.98805705 757.51985157 -214.78515625 755.05078125 C-217.15378078 754.04241513 -219.5224332 753.03411451 -221.89111328 752.02587891 C-223.06571106 751.52590393 -224.24030884 751.02592896 -225.45050049 750.51080322 C-230.13974099 748.51488249 -234.82903141 746.51907904 -239.51832581 744.52328491 C-242.98344532 743.04835257 -246.44839459 741.57302085 -249.91333008 740.09765625 C-254.43452262 738.17263877 -258.95657553 736.2496626 -263.47924805 734.328125 C-274.20123243 729.76966683 -284.90803185 725.18038642 -295.5859375 720.51953125 C-298.50744781 719.24908491 -301.42927977 717.97938115 -304.35119629 716.70986938 C-307.05917069 715.52871323 -309.76150617 714.33528712 -312.46386719 713.14135742 C-314.08241364 712.4373703 -315.70121308 711.73396441 -317.3203125 711.03125 C-318.4099379 710.54257195 -318.4099379 710.54257195 -319.52157593 710.04402161 C-323.14012528 708.48964422 -325.25987353 707.67205091 -329 709 C-330.62441446 710.51037981 -330.62441446 710.51037981 -332.03125 712.47265625 C-332.588125 713.19904297 -333.145 713.92542969 -333.71875 714.67382812 C-334.3065625 715.46208984 -334.894375 716.25035156 -335.5 717.0625 C-336.11875 717.87525391 -336.7375 718.68800781 -337.375 719.52539062 C-339.26117478 722.00872525 -341.13256316 724.50255423 -343 727 C-344.03117969 728.3737507 -345.06242491 729.74745221 -346.09375 731.12109375 C-347.55280963 733.06683137 -349.01022121 735.01371695 -350.46337891 736.96386719 C-354.19873934 741.96814248 -358.02417561 746.89673523 -361.875 751.8125 C-367.3012504 758.74471416 -372.55524172 765.78665156 -377.74951172 772.89379883 C-381.74088512 778.33754227 -385.83352576 783.68934336 -390 789 C-395.3300925 795.79649842 -400.49771405 802.69448062 -405.59619141 809.66601562 C-410.11613882 815.83405786 -414.72858759 821.92678322 -419.375 828 C-423.94754297 833.97960306 -428.49294428 839.96807302 -432.890625 846.078125 C-437.64612189 852.66536883 -442.47638901 859.1978587 -447.31640625 865.72314453 C-448.83465899 867.77639643 -450.34026143 869.83827796 -451.84375 871.90234375 C-457.17142429 879.1314674 -462.55940973 885.44772179 -471 889 C-477.82154142 890.02054557 -483.25431419 889.19430052 -489.0703125 885.46875 C-494.59094319 881.26681247 -496.93450672 876.4400913 -499.59375 870.171875 C-500.37428832 868.41132747 -501.17957454 866.65924098 -502.07740784 864.95552063 C-505.62414529 858.22250625 -508.06454017 851.36022272 -510.37109375 844.12109375 C-510.9823756 842.23813732 -511.59366252 840.35518253 -512.20517063 838.47229958 C-512.84782776 836.48878568 -513.48672128 834.50409618 -514.12451172 832.51901245 C-516.1219872 826.30360055 -518.14400284 820.09615552 -520.16446304 813.8881855 C-520.61505246 812.50336372 -521.06535672 811.11844913 -521.51537704 809.73344231 C-525.40430693 797.76472864 -529.40212257 785.8363339 -533.5 773.9375 C-534.61619595 770.69281507 -535.73207986 767.448023 -536.84765625 764.203125 C-537.11337433 763.43059387 -537.37909241 762.65806274 -537.65286255 761.86212158 C-540.4705134 753.65587479 -543.20576458 745.42265622 -545.9375 737.1875 C-557.89640969 701.17086839 -570.19376151 665.26430904 -583.03125 629.55078125 C-583.26962082 628.88686371 -583.50799164 628.22294617 -583.75358582 627.53890991 C-584.86664954 624.43958133 -585.9833387 621.3417187 -587.10668945 618.24609375 C-587.49042725 617.18132813 -587.87416504 616.1165625 -588.26953125 615.01953125 C-588.60573486 614.09245361 -588.94193848 613.16537598 -589.28833008 612.21020508 C-590 610 -590 610 -590 608 C-591.92682617 607.60409668 -591.92682617 607.60409668 -593.89257812 607.20019531 C-598.96543516 606.06984387 -603.81246892 604.49796559 -608.71875 602.796875 C-610.0957029 602.32603737 -610.0957029 602.32603737 -611.50047302 601.84568787 C-614.50186432 600.81824869 -617.50090179 599.78411144 -620.5 598.75 C-622.6229639 598.02206282 -624.74609475 597.29461235 -626.86938477 596.56762695 C-631.19256401 595.08672205 -635.51488043 593.60334183 -639.83642578 592.11767578 C-648.53256096 589.12858431 -657.23488624 586.15766456 -665.9375 583.1875 C-666.76469543 582.90512482 -667.59189087 582.62274963 -668.44415283 582.33181763 C-672.80131535 580.84444728 -677.15862239 579.35750182 -681.51611328 577.87109375 C-685.22317613 576.60651201 -688.92982944 575.34073884 -692.63623047 574.07421875 C-697.77472644 572.31884047 -702.91446915 570.56714814 -708.05496216 568.81762695 C-710.26844647 568.06416618 -712.4817238 567.31009704 -714.6947937 566.55541992 C-731.4122906 560.85858043 -748.16830171 555.28573183 -764.94545364 549.76718712 C-771.72423126 547.53574693 -778.50045981 545.29657157 -785.27685356 543.05790424 C-792.05753678 540.81911674 -798.84257752 538.59418118 -805.63090324 536.37868309 C-809.91710992 534.9762933 -814.19907825 533.5612917 -818.48006821 532.14306641 C-820.4931772 531.47909826 -822.5080397 530.82042013 -824.52472305 530.16738892 C-827.31882764 529.26184766 -830.1060996 528.3376342 -832.89257812 527.40893555 C-833.70168325 527.15174083 -834.51078838 526.89454611 -835.34441185 526.62955761 C-843.44651885 523.88532014 -849.80807182 519.54547073 -854 512 C-856.06185331 505.81444008 -856.09729467 498.46260471 -853.3125 492.5 C-850.52298521 487.26535496 -845.24669184 484.42859997 -840.23046875 481.6015625 C-839.10688965 480.96468506 -837.98331055 480.32780762 -836.82568359 479.67163086 C-836.23325867 479.33839813 -835.64083374 479.00516541 -835.03045654 478.66183472 C-831.86545706 476.8812277 -828.70876003 475.08598771 -825.55078125 473.29296875 C-824.91043945 472.92992142 -824.27009766 472.56687408 -823.61035156 472.19282532 C-817.67057048 468.82210716 -811.76806718 465.38920319 -805.875 461.9375 C-797.60032258 457.09516401 -789.30809048 452.28478995 -781 447.5 C-772.61211794 442.66774214 -764.23511458 437.81765194 -755.875 432.9375 C-754.88983398 432.36241699 -753.90466797 431.78733398 -752.88964844 431.19482422 C-747.97423897 428.3241412 -743.06072328 425.45024317 -738.1484375 422.57421875 C-726.71645578 415.88651419 -715.24702561 409.26962486 -703.74041748 402.71151733 C-696.2732921 398.45488477 -688.82809884 394.16632656 -681.43212891 389.78710938 C-675.12827276 386.05993325 -668.7837619 382.40439917 -662.4375 378.75 C-653.9435097 373.85842108 -645.46229323 368.94621565 -637 364 C-627.59012762 358.50049205 -618.15529401 353.04550784 -608.7109375 347.60546875 C-601.4604851 343.42650872 -594.22511731 339.22259494 -587 335 C-577.5900967 329.50054464 -568.15529437 324.04550804 -558.7109375 318.60546875 C-551.4604851 314.42650872 -544.22511731 310.22259494 -537 306 C-527.5900967 300.50054464 -518.15529437 295.04550804 -508.7109375 289.60546875 C-501.46048459 285.42650842 -494.22516137 281.22252011 -487 277 C-475.45277514 270.25286886 -463.87097881 263.5666063 -452.28222656 256.89111328 C-445.7764039 253.1426677 -439.27355917 249.38905819 -432.77026367 245.63623047 C-427.24262719 242.44671205 -421.71400619 239.25892179 -416.18359375 236.07421875 C-402.31225727 228.08784403 -402.31225727 228.08784403 -388.5 220 C-377.05514076 213.23854613 -365.51952009 206.63310194 -354 200 C-341.31652382 192.69530212 -328.63750821 185.38401657 -316 178 C-304.45270484 171.25298806 -292.87097973 164.56660682 -281.28222656 157.89111328 C-275.85340062 154.76319854 -270.42677993 151.63146269 -265 148.5 C-258.47766725 144.73636081 -251.95486238 140.97355378 -245.4296875 137.21484375 C-233.94693103 130.59858883 -222.48039099 123.95609989 -211.03857422 117.26928711 C-202.61289607 112.34866342 -194.16185401 107.47275343 -185.70654297 102.60327148 C-178.4974806 98.4487418 -171.30650808 94.26444621 -164.125 90.0625 C-154.85505963 84.64069137 -145.54168145 79.29795026 -136.21154785 73.98077393 C-127.08859429 68.78035969 -118.00115472 63.52195223 -108.9375 58.21875 C-100.54727628 53.31147061 -92.12904307 48.45379963 -83.70605469 43.60302734 C-75.5196767 38.88518477 -67.35861877 34.12524957 -59.20385742 29.35302734 C-53.72897421 26.15562704 -48.23944067 22.98583623 -42.73046875 19.84765625 C-41.8036731 19.3195208 -41.8036731 19.3195208 -40.8581543 18.78071594 C-37.86659792 17.07685689 -34.87326436 15.37628711 -31.87744141 13.67993164 C-25.09909762 9.83061247 -25.09909762 9.83061247 -18.44580078 5.77148438 C-17.57099312 5.22009293 -17.57099312 5.22009293 -16.67851257 4.65756226 C-15.06065251 3.63109907 -13.449887 2.59347842 -11.83959961 1.55517578 C-7.71607742 -0.70317143 -4.52993693 -1.12415714 0 0 Z " fill="#0A1754" transform="translate(1149,43)"/>
<path d="M0 0 C0.33 0 0.66 0 1 0 C0.4233196 7.45025051 -0.51364739 14.75934777 -1.78515625 22.12109375 C-1.96176788 23.16252029 -2.13837952 24.20394684 -2.32034302 25.27693176 C-2.8964627 28.66459133 -3.47915451 32.0510778 -4.0625 35.4375 C-4.46857867 37.81151098 -4.87458358 40.18553459 -5.28051758 42.55957031 C-9.02701404 64.4024509 -12.98151596 86.20579377 -17 108 C-20.81037266 128.67991051 -24.46012403 149.38222639 -28.02560425 170.10571289 C-30.43279818 184.08692135 -32.89469915 198.05434881 -35.5 212 C-38.2937814 226.95772761 -40.91942843 241.9415749 -43.5 256.9375 C-46.11884054 272.1547127 -48.75524723 287.36744793 -51.5 302.5625 C-53.32147558 312.64639702 -55.13474375 322.73140195 -56.90625 332.82421875 C-57.0732843 333.77566772 -57.2403186 334.7271167 -57.41241455 335.70739746 C-57.58343689 336.68164673 -57.75445923 337.655896 -57.93066406 338.65966797 C-63.23327861 368.86626495 -68.68981318 399.04455068 -74.15592384 429.22190189 C-80.93091426 466.57025323 -80.93091426 466.57025323 -87.39663696 503.9730835 C-90.74999718 523.87760285 -94.24512041 543.75358355 -97.84764099 563.61437988 C-98.89616791 569.40293484 -99.92011947 575.19566177 -100.9392395 580.98945618 C-102.00049697 587.01777841 -103.08764542 593.04111716 -104.1875 599.0625 C-104.36474609 600.03509766 -104.54199219 601.00769531 -104.72460938 602.00976562 C-105.14931751 604.33992109 -105.5744425 606.66999954 -106 609 C-110.84010742 608.31095277 -115.00197444 606.42999743 -119.4453125 604.4921875 C-120.27459259 604.13517761 -121.10387268 603.77816772 -121.95828247 603.41033936 C-124.68248199 602.23637841 -127.40371253 601.05569355 -130.125 599.875 C-132.03722478 599.04948057 -133.94966233 598.22445383 -135.86230469 597.39990234 C-139.74338143 595.72628591 -143.62348639 594.0504459 -147.50292969 592.37304688 C-152.31236821 590.29494324 -157.12690425 588.22908451 -161.9453125 586.171875 C-162.98491371 585.72793396 -162.98491371 585.72793396 -164.04551697 585.27502441 C-165.07522362 584.83531311 -165.07522362 584.83531311 -166.12573242 584.38671875 C-186.13300818 575.84301524 -206.07759008 567.15545257 -226.0236969 558.47015381 C-233.78142636 555.09300328 -241.54622862 551.73245214 -249.3125 548.375 C-267.16245075 540.65175371 -284.96216772 532.81360151 -302.76519775 524.98297119 C-304.79702626 524.0892774 -306.82891711 523.19572561 -308.86083984 522.30224609 C-310.55974365 521.55515381 -310.55974365 521.55515381 -312.29296875 520.79296875 C-313.34959717 520.32834229 -314.40622559 519.86371582 -315.49487305 519.38500977 C-317.45902062 518.52061888 -319.42274367 517.65526256 -321.38598633 516.78881836 C-326.59222659 514.49193446 -331.80690849 512.21638635 -337.03125 509.9609375 C-338.19591797 509.45554443 -339.36058594 508.95015137 -340.56054688 508.42944336 C-342.80432525 507.45615193 -345.05032888 506.48796981 -347.29882812 505.52563477 C-348.7905957 504.87679321 -348.7905957 504.87679321 -350.3125 504.21484375 C-351.19550781 503.83448975 -352.07851563 503.45413574 -352.98828125 503.06225586 C-355 502 -355 502 -356 500 C-347.67565566 487.75537325 -339.08404644 475.72415579 -330.36621094 463.75732422 C-324.26377146 455.37793723 -318.25212048 446.95728963 -312.4375 438.375 C-307.97594366 431.79006839 -303.34269444 425.38535458 -298.52148438 419.06030273 C-294.06926059 413.18129041 -289.92584375 407.11224589 -285.79174805 401.00708008 C-281.12282116 394.12939432 -276.23641837 387.43435149 -271.29101562 380.75439453 C-264.94743001 372.13393193 -258.82963461 363.34577427 -252.66992188 354.59375 C-249.01103667 349.40529271 -245.29551499 344.2602785 -241.5625 339.125 C-237.02962367 332.88805014 -232.63510779 326.57176696 -228.3125 320.1875 C-224.64423256 314.77254232 -220.91674551 309.45551216 -216.875 304.3125 C-212.79583372 299.11008504 -209.0276125 293.75758477 -205.3137207 288.29003906 C-201.81460511 283.15092284 -198.2155035 278.09323865 -194.5625 273.0625 C-190.31689644 267.21319681 -186.10025704 261.34610534 -181.9375 255.4375 C-181.44572266 254.73947266 -180.95394531 254.04144531 -180.44726562 253.32226562 C-178.9640698 251.21538693 -177.48184031 249.10783226 -176 247 C-169.34512836 237.53382944 -162.64575045 228.10428764 -155.85791016 218.73291016 C-150.16955257 210.87044158 -144.58109803 202.93878961 -139 195 C-132.92510058 186.35880644 -126.82657622 177.73839901 -120.625 169.1875 C-115.41316317 162.00061842 -110.30692209 154.74497225 -105.23095703 147.46166992 C-100.85145249 141.18850596 -96.38977654 134.97959495 -91.89453125 128.7890625 C-87.8695299 123.2339759 -83.92230956 117.6279675 -80 112 C-74.98765653 104.80870833 -69.90243355 97.67621965 -64.75610352 90.58032227 C-59.09750535 82.7716463 -53.54599484 74.88885735 -48 67 C-41.34665187 57.53599656 -34.64962906 48.10799277 -27.86230469 38.73950195 C-23.64154443 32.90659315 -19.47779137 27.0353206 -15.33276367 21.1484375 C-12.00551218 16.42308284 -8.66752393 11.70568456 -5.3125 7 C-4.89009033 6.40606445 -4.46768066 5.81212891 -4.0324707 5.20019531 C-1.11833149 1.11833149 -1.11833149 1.11833149 0 0 Z " fill="#FDFDFD" transform="translate(1104,168)"/>
<path d="M0 0 C0.99 0.33 1.98 0.66 3 1 C-39.80486636 44.06189271 -82.61901708 87.11454469 -125.48272705 130.11787415 C-126.43392947 131.07218285 -126.43392947 131.07218285 -127.4043481 132.04577052 C-141.18501712 145.87133048 -154.9673571 159.69522357 -168.75141995 173.51739989 C-175.51086049 180.2955509 -182.26993159 187.07407025 -189.02880859 193.8527832 C-189.70141354 194.52734953 -190.37401849 195.20191587 -191.0670054 195.8969236 C-212.87797048 217.77183816 -234.66441945 239.67097829 -256.43832148 261.58277979 C-278.80920491 284.09508576 -301.20452653 306.58279267 -323.6310014 329.03972625 C-326.79670819 332.20975553 -329.96213368 335.38006557 -333.127388 338.55054665 C-333.75037979 339.17454978 -334.37337158 339.79855292 -335.01524191 340.44146524 C-345.05337479 350.49734165 -355.06532219 360.57890695 -365.0677776 370.67025811 C-375.11798979 380.80868294 -385.19513601 390.91968019 -395.30055931 401.00307997 C-401.30783542 406.99892478 -407.29317848 413.01489985 -413.2494557 419.06141884 C-417.22754959 423.09565052 -421.23215239 427.10218929 -425.25963547 431.08711268 C-427.55605603 433.36082256 -429.83431851 435.64857421 -432.08977577 437.96302351 C-434.52018362 440.45328156 -436.99196285 442.89322243 -439.47999191 445.32570934 C-440.17202754 446.05715018 -440.86406317 446.78859101 -441.57706958 447.54219672 C-443.69501837 449.55413024 -445.28802564 450.90273913 -448 452 C-452.28178302 451.70512238 -455.99213678 450.47467065 -460 449 C-461.79119061 448.45235867 -463.58446731 447.91143395 -465.38085938 447.38110352 C-467.20309006 446.80100322 -469.02401572 446.21679075 -470.84375 445.62890625 C-471.83877533 445.31064377 -472.83380066 444.99238129 -473.85897827 444.66447449 C-477.07399655 443.63461836 -480.28707705 442.59887284 -483.5 441.5625 C-485.7501381 440.83944149 -488.00030113 440.11646055 -490.25048828 439.39355469 C-507.45780414 433.856554 -524.61902047 428.18919489 -541.75195312 422.42675781 C-548.29531514 420.22715307 -554.84568478 418.04855868 -561.39532471 415.86773682 C-563.61843285 415.12718761 -565.84124701 414.3857628 -568.06396484 413.64404297 C-575.34125373 411.21596916 -582.62020164 408.79310661 -589.90335083 406.38265991 C-609.8738578 399.7723855 -629.78335366 393.05843383 -649.55664062 385.87695312 C-652.35644272 384.87206812 -655.17027664 383.91722068 -658 383 C-655.60030318 380.34434213 -653.03555811 378.72001447 -649.93359375 376.953125 C-648.90427734 376.36337891 -647.87496094 375.77363281 -646.81445312 375.16601562 C-645.70005859 374.53373047 -644.58566406 373.90144531 -643.4375 373.25 C-642.26598539 372.58058653 -641.09476624 371.91065574 -639.92382812 371.24023438 C-637.49056166 369.84760003 -635.05603768 368.45720253 -632.62060547 367.06835938 C-627.06842407 363.89970234 -621.53519338 360.69820559 -616 357.5 C-613.83342291 356.24984475 -611.66675593 354.99984527 -609.5 353.75 C-608.4275 353.13125 -607.355 352.5125 -606.25 351.875 C-596.5 346.25 -596.5 346.25 -593.24951172 344.37475586 C-591.08442929 343.12564482 -588.91939018 341.87645871 -586.75439453 340.62719727 C-581.31384294 337.48797691 -575.87252784 334.35009437 -570.4296875 331.21484375 C-559.93767906 325.16944841 -549.45518324 319.10889781 -539 313 C-525.26944812 304.97732489 -511.48922034 297.04141741 -497.70898438 289.10449219 C-494.43068938 287.21601507 -491.15271515 285.32698334 -487.875 283.4375 C-486.79605469 282.81552734 -485.71710938 282.19355469 -484.60546875 281.55273438 C-476.44369456 276.84326299 -468.3059253 272.09359621 -460.17260742 267.33520508 C-451.95440735 262.53638842 -443.68827175 257.82346578 -435.41671753 253.11755371 C-426.61747445 248.10759538 -417.88560295 242.99620533 -409.1875 237.8125 C-400.01879973 232.34855205 -390.79195461 227.01130304 -381.484375 221.7878418 C-373.67098806 217.39754621 -365.92500866 212.89842055 -358.19067383 208.37060547 C-350.8103906 204.05128294 -343.41053745 199.76719085 -336 195.5 C-326.65900506 190.11968678 -317.33854026 184.70560815 -308.0324707 179.26513672 C-300.76794811 175.02169905 -293.48078008 170.81877283 -286.1875 166.625 C-277.2909868 161.50721336 -268.44353161 156.31342418 -259.625 151.0625 C-249.23961775 144.88090391 -238.78238963 138.84146782 -228.27880859 132.86401367 C-217.7861767 126.89136205 -207.3543732 120.81804149 -196.93554688 114.71777344 C-191.96021451 111.80639299 -186.97985472 108.90363588 -182 106 C-176.02219697 102.51383851 -170.04494004 99.02675774 -164.0703125 95.53515625 C-152.47459228 88.76089971 -140.85659427 82.02694768 -129.21923828 75.32446289 C-122.63793276 71.53098215 -116.07703388 67.70600895 -109.53808594 63.84008789 C-103.15683027 60.07514705 -96.73434149 56.38266633 -90.3125 52.6875 C-81.27800233 47.48771414 -72.28204603 42.22896396 -63.31835938 36.90820312 C-56.34835616 32.77838841 -49.33684103 28.72407898 -42.3125 24.6875 C-31.63857241 18.55337354 -21.03219505 12.3123655 -10.4543457 6.0144043 C-9.37628662 5.372854 -8.29822754 4.73130371 -7.1875 4.0703125 C-6.23230469 3.50070801 -5.27710938 2.93110352 -4.29296875 2.34423828 C-2.88641334 1.51965416 -1.45831055 0.72915528 0 0 Z " fill="#FCFCFC" transform="translate(1027,158)"/>
<path d="M0 0 C0.66 0 1.32 0 2 0 C0.37295613 5.08076891 -2.67743194 8.95257641 -5.8125 13.1875 C-6.99231913 14.80068499 -8.17200278 16.41396907 -9.3515625 18.02734375 C-9.95645508 18.85089355 -10.56134766 19.67444336 -11.18457031 20.52294922 C-14.03890195 24.41752276 -16.86298224 28.33377936 -19.6875 32.25 C-20.50214722 33.37764771 -20.50214722 33.37764771 -21.33325195 34.52807617 C-24.97179448 39.56618499 -28.59049334 44.61803789 -32.1965332 49.67944336 C-35.5674928 54.40635742 -38.97022626 59.10990663 -42.375 63.8125 C-46.62242981 69.68131403 -50.83239752 75.57424407 -55 81.5 C-60.71358269 89.62192696 -66.51947615 97.67493765 -72.34570312 105.71630859 C-75.12918202 109.55879112 -77.90874599 113.4040997 -80.6875 117.25 C-81.23140381 118.00273193 -81.77530762 118.75546387 -82.33569336 119.53100586 C-85.97301042 124.56843408 -89.59122906 129.61907054 -93.1965332 134.67944336 C-96.5674928 139.40635742 -99.97022626 144.10990663 -103.375 148.8125 C-107.62242981 154.68131403 -111.83239752 160.57424407 -116 166.5 C-122.78098411 176.13925101 -129.68947759 185.68517328 -136.61328125 195.22216797 C-142.81528172 203.76500864 -148.96168611 212.34046723 -155 221 C-162.08253675 231.15705049 -169.32768924 241.19064703 -176.60449219 251.20898438 C-182.80936376 259.75624211 -188.9586792 268.33615503 -195 277 C-201.56197646 286.41051611 -208.26016028 295.71640116 -215 305 C-221.88474128 314.49527414 -228.73424487 324.01160132 -235.48071289 333.60571289 C-239.64611282 339.52064913 -243.87675677 345.38674226 -248.12695312 351.2409668 C-250.8883789 355.0512193 -253.62316218 358.8767291 -256.3125 362.73828125 C-256.84810547 363.50591797 -257.38371094 364.27355469 -257.93554688 365.06445312 C-258.94647864 366.51711537 -259.95328864 367.97265863 -260.95507812 369.43164062 C-265.20718652 375.5376922 -269.93693759 380.12436046 -276.03515625 384.375 C-282.16291108 389.44288471 -283.27805991 394.86932548 -284.875 402.375 C-285.12693115 403.51042236 -285.3788623 404.64584473 -285.63842773 405.81567383 C-287.8494168 415.93137729 -289.83157389 426.09472797 -291.73193359 436.27294922 C-293.13720697 443.76065853 -294.68400696 451.20135908 -296.32421875 458.640625 C-299.07996886 471.16721343 -301.56599803 483.74297389 -304.02197266 496.33129883 C-304.76080042 500.11785307 -305.50317924 503.90369876 -306.24609375 507.68945312 C-306.7215556 510.11714806 -307.19682347 512.54488099 -307.671875 514.97265625 C-307.89164001 516.09446793 -308.11140503 517.2162796 -308.33782959 518.37208557 C-308.54184387 519.41855759 -308.74585815 520.4650296 -308.95605469 521.54321289 C-309.13416687 522.45535049 -309.31227905 523.3674881 -309.49578857 524.30726624 C-310.0372347 527.19885135 -310.52530631 530.09677461 -311 533 C-311.66 533 -312.32 533 -313 533 C-316.8020158 521.61758326 -320.60220222 510.23455735 -324.40032387 498.85084057 C-326.16579626 493.55954524 -327.93179881 488.26842835 -329.69921875 482.9777832 C-337.68297092 459.07768443 -345.62260246 435.16528631 -353.37173462 411.18791199 C-357.59420741 398.13843606 -362.01441674 385.16909044 -366.62304688 372.25024414 C-367.11902397 369.28947935 -366.58843203 368.55809258 -365 366 C-363.06431013 363.87889731 -361.10978145 361.84696255 -359.07197475 359.82867241 C-358.14711058 358.9007961 -358.14711058 358.9007961 -357.20356229 357.95417482 C-355.12289569 355.86919493 -353.03513268 353.79146755 -350.94737244 351.71359253 C-349.44450288 350.210567 -347.9420741 348.70710063 -346.44005018 347.20323002 C-342.30081026 343.0614508 -338.15534561 338.92595051 -334.00887954 334.79140735 C-329.5423843 330.33557854 -325.08165584 325.87398346 -320.62025452 321.41305542 C-312.88596301 313.68112902 -305.14809649 305.95279797 -297.40778923 298.22689438 C-289.28765804 290.1218146 -281.1698109 282.01445766 -273.05493355 273.90411758 C-272.55058592 273.40005256 -272.0462383 272.89598754 -271.52660742 272.37664783 C-268.96532187 269.81676678 -266.40408252 267.25683953 -263.84286446 264.69689097 C-245.69452342 246.55764238 -227.54192634 228.42265869 -209.38647461 210.29052734 C-208.28830233 209.19376264 -207.19013015 208.09699784 -206.09195805 207.00023295 C-205.54783865 206.45681115 -205.00371924 205.91338934 -204.44311137 205.35350021 C-201.69020064 202.60411838 -198.93729223 199.85473423 -196.18438721 197.10534668 C-195.3655302 196.28753736 -195.3655302 196.28753736 -194.53013062 195.45320664 C-181.8467969 182.78605724 -169.16474728 170.11762258 -156.4831543 157.44873047 C-155.93986406 156.90598635 -155.39657382 156.36324223 -154.83682025 155.80405132 C-142.4392102 143.41888111 -130.04219354 131.03311735 -117.646348 118.64618111 C-117.12575023 118.12595873 -116.60515247 117.60573636 -116.06877901 117.06974967 C-111.38642233 112.39075899 -106.70408946 107.71174448 -102.02188284 103.03260364 C-90.33226795 91.35064623 -78.64116871 79.67018083 -66.94643652 67.99334614 C-58.7988796 59.85824843 -50.6529475 51.72152798 -42.50867098 43.58314596 C-38.09272191 39.17054059 -33.67591693 34.75880013 -29.25693893 30.34922791 C-25.21784081 26.31871197 -21.18100292 22.28594702 -17.14600355 18.25132789 C-15.67991004 16.78620628 -14.21295276 15.32194844 -12.74508189 13.85860752 C-10.76181964 11.88123509 -8.78161045 9.90085648 -6.8021841 7.91964531 C-6.22140107 7.34206099 -5.64061804 6.76447666 -5.04223552 6.16938978 C-2.16599188 3.35367534 -2.16599188 3.35367534 0 0 Z " fill="#FBFCFC" transform="translate(972,276)"/>
<path d="M0 0 C12.52399551 1.89903981 24.83859438 2.60037565 37.49487305 2.73413086 C59.67884695 3.04290872 59.67884695 3.04290872 66.4140625 8.5625 C68.82203244 11.14535044 70.25846992 13.89466946 71.8125 17.0625 C72.3075 18.0525 72.3075 18.0525 72.8125 19.0625 C73.71931039 25.96020525 72.350965 32.08949223 68.8125 38.0625 C64.76354602 42.64398863 60.15072712 46.63391909 53.84877014 47.25650024 C51.44916541 47.3437658 49.05745864 47.3658593 46.65625 47.36328125 C45.30992493 47.36970894 45.30992493 47.36970894 43.93640137 47.37626648 C42.03003783 47.38200568 40.12365239 47.38251306 38.21728516 47.37817383 C35.37751756 47.37507104 32.53885314 47.39827489 29.69921875 47.42382812 C12.98725562 47.48245988 -3.35679404 45.57401248 -19.625 41.6875 C-20.48158203 41.50445313 -21.33816406 41.32140625 -22.22070312 41.1328125 C-28.80404889 39.58498797 -32.81559371 37.34455638 -36.8671875 31.73828125 C-40.25666489 25.03686354 -41.70135794 19.26227292 -39.55859375 11.90234375 C-37.17583234 6.35681383 -33.06269821 2.51618251 -28.1875 -0.9375 C-19.29462573 -3.90179142 -9.01075669 -1.45868664 0 0 Z " fill="#0E1956" transform="translate(279.1875,999.9375)"/>
<path d="M0 0 C5.96206002 2.65286534 11.32573349 5.90964617 16.77368164 9.48730469 C25.62877151 15.21232681 34.56825341 20.7742813 43.58618164 26.23730469 C44.16647125 26.58957123 44.74676086 26.94183777 45.34463501 27.30477905 C52.3149182 31.53479915 59.3150753 35.67679935 66.44628906 39.63085938 C70.8733448 42.56876376 73.61386546 46.60517233 75.96118164 51.29980469 C76.53884015 57.89844223 76.61532303 64.56449668 72.96118164 70.29980469 C68.4874541 75.19960151 63.94910458 78.71840467 57.25 79.69506836 C48.9430637 79.94027861 43.59748927 77.79962933 36.52368164 73.61230469 C35.49090088 73.02578125 34.45812012 72.43925781 33.39404297 71.83496094 C30.22970168 70.0219234 27.09261758 68.16901422 23.96118164 66.29980469 C23.02435547 65.74470215 22.0875293 65.18959961 21.12231445 64.61767578 C11.41367161 58.83124086 1.93663983 52.70990286 -7.41381836 46.36230469 C-8.18056885 45.8428125 -8.94731934 45.32332031 -9.73730469 44.78808594 C-24.44839925 34.65308704 -24.44839925 34.65308704 -26.03881836 26.29980469 C-26.66900859 20.06003385 -26.84949216 14.53948116 -23.03881836 9.29980469 C-16.47082491 2.7175948 -9.78012715 -3.35880789 0 0 Z " fill="#0A1855" transform="translate(108.038818359375,925.7001953125)"/>
<path d="M0 0 C3.83855345 0.62784966 7.04688292 1.769328 10.5859375 3.37109375 C12.21438599 4.10247559 12.21438599 4.10247559 13.87573242 4.84863281 C15.03049072 5.37295898 16.18524902 5.89728516 17.375 6.4375 C19.18197901 7.24987359 20.98896409 8.06223442 22.79649353 8.87338257 C24.02774134 9.42592852 25.25874774 9.97901269 26.48951721 10.53262329 C32.69978633 13.32327595 38.94026762 16.04319677 45.1875 18.75 C46.17862793 19.17982178 47.16975586 19.60964355 48.19091797 20.05249023 C50.46018871 21.03597633 52.72984376 22.01856005 55 23 C53.7129307 26.6214597 52.23065762 29.20213819 49.75 32.125 C45.74245433 37.00375125 41.98015633 42.03145274 38.25 47.125 C32.36836857 55.14647731 26.43095388 63.12256663 20.45019531 71.0703125 C19.01336592 72.98221478 17.58026717 74.89685126 16.1484375 76.8125 C10.40879683 84.48835815 4.62578039 92.1297341 -1.1875 99.75 C-11.27069224 112.86940412 -11.27069224 112.86940412 -21 126.25 C-21.66 127.1575 -22.32 128.065 -23 129 C-23.33 129 -23.66 129 -24 129 C-24.39693232 121.5311919 -23.10433681 114.91398477 -21.40945435 107.65197754 C-20.58089879 104.09344796 -19.78908888 100.52666372 -18.9921875 96.9609375 C-18.82568192 96.21932373 -18.65917633 95.47770996 -18.48762512 94.71362305 C-16.74236951 86.91313062 -15.12869732 79.08820618 -13.5625 71.25 C-13.35179871 70.19746033 -13.35179871 70.19746033 -13.13684082 69.12365723 C-10.12113277 54.00391172 -7.37744822 38.83376492 -4.66430664 23.65722656 C-4.42005447 22.29535721 -4.42005447 22.29535721 -4.17086792 20.90597534 C-3.86805257 19.21579346 -3.56682784 17.5253254 -3.26760864 15.83450317 C-2.31598493 10.52265697 -1.20937407 5.25906989 0 0 Z " fill="#F8F8F9" transform="translate(724,708)"/>
<path d="M0 0 C5.22536527 3.32924116 8.97821008 8.31336795 10.8515625 14.1796875 C11.71647397 20.78032764 11.70900903 26.85504834 7.62109375 32.328125 C-1.04046891 41.39121706 -13.06642605 46.70039961 -24.1484375 52.1796875 C-25.45385498 52.83396729 -25.45385498 52.83396729 -26.78564453 53.50146484 C-46.39509913 63.23929653 -46.39509913 63.23929653 -55.1484375 61.1796875 C-58.5234375 59.9296875 -58.5234375 59.9296875 -61.1484375 58.1796875 C-61.9940625 57.6434375 -62.8396875 57.1071875 -63.7109375 56.5546875 C-68.88605986 51.51226059 -71.45172365 46.3879206 -71.7734375 39.1171875 C-71.41707795 31.5373235 -68.47969671 27.22102154 -63.03125 22.2109375 C-59.06402641 18.88184957 -54.84603142 17.00619808 -50.0859375 15.0546875 C-44.33072256 12.61129839 -38.76615684 10.04268549 -33.3359375 6.93359375 C-32.3756665 6.38396973 -31.41539551 5.8343457 -30.42602539 5.26806641 C-28.58020299 4.19513156 -26.74520932 3.10326782 -24.92358398 1.98974609 C-17.02369635 -2.58720246 -8.58925908 -3.71140825 0 0 Z " fill="#0A1855" transform="translate(524.1484375,949.8203125)"/>
<path d="M0 0 C0.99 1.485 0.99 1.485 2 3 C1.071875 3.556875 0.14375 4.11375 -0.8125 4.6875 C-4.02688949 7.01950806 -5.03615366 8.66999969 -7 12 C-8.66666667 13 -10.33333333 14 -12 15 C-12.7425 16.2375 -12.7425 16.2375 -13.5 17.5 C-15.28206897 20.47011494 -17.07011494 21.24206897 -20 23 C-20.7425 24.2375 -20.7425 24.2375 -21.5 25.5 C-23.28206897 28.47011494 -25.07011494 29.24206897 -28 31 C-28.7425 32.2375 -28.7425 32.2375 -29.5 33.5 C-31.28206897 36.47011494 -33.07011494 37.24206897 -36 39 C-36.7425 40.2375 -36.7425 40.2375 -37.5 41.5 C-39.28206897 44.47011494 -41.07011494 45.24206897 -44 47 C-44.7425 48.2375 -44.7425 48.2375 -45.5 49.5 C-47.28206897 52.47011494 -49.07011494 53.24206897 -52 55 C-52.7425 56.2375 -52.7425 56.2375 -53.5 57.5 C-55.28206897 60.47011494 -57.07011494 61.24206897 -60 63 C-60.495 63.825 -60.99 64.65 -61.5 65.5 C-63.28206897 68.47011494 -65.07011494 69.24206897 -68 71 C-68.495 71.825 -68.99 72.65 -69.5 73.5 C-71.28206897 76.47011494 -73.07011494 77.24206897 -76 79 C-76.495 79.825 -76.99 80.65 -77.5 81.5 C-79.28206897 84.47011494 -81.07011494 85.24206897 -84 87 C-84.495 87.825 -84.99 88.65 -85.5 89.5 C-87.26818218 92.4469703 -89.03552315 93.36173648 -92 95 C-92.33 95.66 -92.66 96.32 -93 97 C-92.34 97.33 -91.68 97.66 -91 98 C-91.55429687 98.25394531 -92.10859375 98.50789062 -92.6796875 98.76953125 C-93.40414062 99.11371094 -94.12859375 99.45789063 -94.875 99.8125 C-95.59429688 100.14894531 -96.31359375 100.48539063 -97.0546875 100.83203125 C-99.30542806 101.99467097 -99.30542806 101.99467097 -101 105 C-100.34 105.33 -99.68 105.66 -99 106 C-99.55429687 106.25394531 -100.10859375 106.50789062 -100.6796875 106.76953125 C-101.40414062 107.11371094 -102.12859375 107.45789063 -102.875 107.8125 C-103.59429688 108.14894531 -104.31359375 108.48539063 -105.0546875 108.83203125 C-107.30542806 109.99467097 -107.30542806 109.99467097 -109 113 C-108.34 113.33 -107.68 113.66 -107 114 C-107.55429687 114.25394531 -108.10859375 114.50789062 -108.6796875 114.76953125 C-109.40414062 115.11371094 -110.12859375 115.45789063 -110.875 115.8125 C-111.59429688 116.14894531 -112.31359375 116.48539063 -113.0546875 116.83203125 C-115.30542806 117.99467097 -115.30542806 117.99467097 -117 121 C-116.34 121.33 -115.68 121.66 -115 122 C-115.55429687 122.25394531 -116.10859375 122.50789062 -116.6796875 122.76953125 C-117.40414062 123.11371094 -118.12859375 123.45789063 -118.875 123.8125 C-119.59429688 124.14894531 -120.31359375 124.48539063 -121.0546875 124.83203125 C-123.30542806 125.99467097 -123.30542806 125.99467097 -125 129 C-124.34 129.33 -123.68 129.66 -123 130 C-123.55429687 130.25394531 -124.10859375 130.50789062 -124.6796875 130.76953125 C-125.40414062 131.11371094 -126.12859375 131.45789063 -126.875 131.8125 C-127.59429688 132.14894531 -128.31359375 132.48539063 -129.0546875 132.83203125 C-131.30542806 133.99467097 -131.30542806 133.99467097 -133 137 C-132.34 137.33 -131.68 137.66 -131 138 C-131.55429687 138.25394531 -132.10859375 138.50789062 -132.6796875 138.76953125 C-133.40414062 139.11371094 -134.12859375 139.45789063 -134.875 139.8125 C-135.59429688 140.14894531 -136.31359375 140.48539063 -137.0546875 140.83203125 C-139.30542806 141.99467097 -139.30542806 141.99467097 -141 145 C-140.34 145.33 -139.68 145.66 -139 146 C-139.55429687 146.25394531 -140.10859375 146.50789062 -140.6796875 146.76953125 C-141.40414062 147.11371094 -142.12859375 147.45789063 -142.875 147.8125 C-143.59429688 148.14894531 -144.31359375 148.48539063 -145.0546875 148.83203125 C-147.30542806 149.99467097 -147.30542806 149.99467097 -149 153 C-148.34 153.33 -147.68 153.66 -147 154 C-147.55429687 154.25394531 -148.10859375 154.50789062 -148.6796875 154.76953125 C-149.40414062 155.11371094 -150.12859375 155.45789063 -150.875 155.8125 C-151.59429688 156.14894531 -152.31359375 156.48539063 -153.0546875 156.83203125 C-155.30542806 157.99467097 -155.30542806 157.99467097 -157 161 C-156.34 161.33 -155.68 161.66 -155 162 C-155.55429687 162.25394531 -156.10859375 162.50789062 -156.6796875 162.76953125 C-157.40414062 163.11371094 -158.12859375 163.45789063 -158.875 163.8125 C-159.59429688 164.14894531 -160.31359375 164.48539063 -161.0546875 164.83203125 C-163.30542806 165.99467097 -163.30542806 165.99467097 -165 169 C-164.34 169.33 -163.68 169.66 -163 170 C-163.55429687 170.25394531 -164.10859375 170.50789062 -164.6796875 170.76953125 C-165.40414062 171.11371094 -166.12859375 171.45789063 -166.875 171.8125 C-167.59429688 172.14894531 -168.31359375 172.48539063 -169.0546875 172.83203125 C-171.30542806 173.99467097 -171.30542806 173.99467097 -173 177 C-172.34 177.33 -171.68 177.66 -171 178 C-172.28650706 178.69710731 -173.57940665 179.38242876 -174.875 180.0625 C-175.59429688 180.44535156 -176.31359375 180.82820312 -177.0546875 181.22265625 C-178.01761719 181.60744141 -178.01761719 181.60744141 -179 182 C-179.66 181.67 -180.32 181.34 -181 181 C-121.27 121.27 -61.54 61.54 0 0 Z " fill="#EFF1F6" transform="translate(789,460)"/>
<path d="M0 0 C-7.92 7.92 -15.84 15.84 -24 24 C-24.99 23.34 -25.98 22.68 -27 22 C-26.34 21.34 -25.68 20.68 -25 20 C-24.3574765 17.93125966 -24.3574765 17.93125966 -24 16 C-25.65 15.67 -27.3 15.34 -29 15 C-24.23310256 10.83150032 -18.84196918 7.82691078 -13.375 4.6875 C-12.42109375 4.12482422 -11.4671875 3.56214844 -10.484375 2.98242188 C-9.56914063 2.45583984 -8.65390625 1.92925781 -7.7109375 1.38671875 C-6.87868652 0.90420654 -6.04643555 0.42169434 -5.18896484 -0.07543945 C-3 -1 -3 -1 0 0 Z " fill="#F4F5F7" transform="translate(1030,159)"/>
<path d="M0 0 C0.66 0 1.32 0 2 0 C0.73462626 3.45619821 -0.71604686 6.25579303 -2.8984375 9.21484375 C-3.74148438 10.36823242 -3.74148438 10.36823242 -4.6015625 11.54492188 C-5.18679688 12.33447266 -5.77203125 13.12402344 -6.375 13.9375 C-7.5296433 15.5083819 -8.68331061 17.07998172 -9.8359375 18.65234375 C-10.37959961 19.39339355 -10.92326172 20.13444336 -11.48339844 20.89794922 C-13.39866805 23.5525647 -15.21294159 26.25778968 -17 29 C-17.33 28.34 -17.66 27.68 -18 27 C-18.66 27 -19.32 27 -20 27 C-20.76513672 24.79956055 -20.76513672 24.79956055 -21 22 C-19.29345703 19.62817383 -19.29345703 19.62817383 -16.7578125 17.20703125 C-15.85675781 16.32982422 -14.95570313 15.45261719 -14.02734375 14.54882812 C-13.06957031 13.64583984 -12.11179687 12.74285156 -11.125 11.8125 C-9.25087492 10.00830496 -7.37839188 8.20240219 -5.5078125 6.39453125 C-4.66879395 5.59893799 -3.82977539 4.80334473 -2.96533203 3.98364258 C-0.94583306 2.15152076 -0.94583306 2.15152076 0 0 Z " fill="#F6F8F8" transform="translate(972,276)"/>
<path d="M0 0 C1.32 0 2.64 0 4 0 C3.42029353 8.49569832 1.76198299 16.68875949 0 25 C-0.33 25 -0.66 25 -1 25 C-1.22333047 22.45886142 -1.42902091 19.91827416 -1.625 17.375 C-1.68945312 16.66214844 -1.75390625 15.94929687 -1.8203125 15.21484375 C-2.1577309 10.61751803 -1.67935834 7.3714595 0 3 C0 2.01 0 1.02 0 0 Z " fill="#101D59" transform="translate(707,776)"/>
<path d="M0 0 C1.98 0.66 3.96 1.32 6 2 C6 1.34 6 0.68 6 0 C7.65 0.33 9.3 0.66 11 1 C6.98745115 4.51098025 2.79016959 6.76537994 -2 9 C-2 2 -2 2 0 0 Z " fill="#121F59" transform="translate(803,281)"/>
<path d="M0 0 C1.32 0.66 2.64 1.32 4 2 C0.87907566 3.84033976 -2.24738217 5.67106256 -5.375 7.5 C-6.26445313 8.02464844 -7.15390625 8.54929687 -8.0703125 9.08984375 C-8.92109375 9.58613281 -9.771875 10.08242188 -10.6484375 10.59375 C-11.82672119 11.28500977 -11.82672119 11.28500977 -13.02880859 11.99023438 C-15 13 -15 13 -17 13 C-15.9295699 9.89575271 -15.11856434 9.06586908 -12.1875 7.4375 C-10.6096875 6.7259375 -10.6096875 6.7259375 -9 6 C-5.82646574 4.18655185 -2.88503971 2.24391978 0 0 Z " fill="#13205A" transform="translate(700,345)"/>
<path d="M0 0 C2.76023599 4.14035399 3.13691008 6.04540474 3.125 11 C3.12757813 12.0725 3.13015625 13.145 3.1328125 14.25 C3 17 3 17 2 19 C1.34 19 0.68 19 0 19 C0.020625 17.948125 0.04125 16.89625 0.0625 15.8125 C0.01054349 12.64315282 -0.25718278 10.05380411 -1 7 C-1.2784375 5.8553125 -1.2784375 5.8553125 -1.5625 4.6875 C-1.706875 4.130625 -1.85125 3.57375 -2 3 C-1.34 3 -0.68 3 0 3 C0 2.01 0 1.02 0 0 Z " fill="#18235D" transform="translate(532,959)"/>
<path d="M0 0 C0 0.99 0 1.98 0 3 C-1.32 3.33 -2.64 3.66 -4 4 C-4 4.66 -4 5.32 -4 6 C-4.9075 6.4125 -5.815 6.825 -6.75 7.25 C-9.79665618 8.89050718 -11.71126806 10.44718361 -14 13 C-14 12.34 -14 11.68 -14 11 C-15.98491642 11.26676204 -15.98491642 11.26676204 -18 12 C-18.33 12.99 -18.66 13.98 -19 15 C-19.66 14.67 -20.32 14.34 -21 14 C-21 13.34 -21 12.68 -21 12 C-14.07 8.04 -7.14 4.08 0 0 Z " fill="#1C275F" transform="translate(510,408)"/>
<path d="M0 0 C0.99 0.33 1.98 0.66 3 1 C1.52464063 3.00291212 0.04497707 5.00236777 -1.4375 7 C-1.85837891 7.57234375 -2.27925781 8.1446875 -2.71289062 8.734375 C-3.78444136 10.17453919 -4.88966676 11.58951996 -6 13 C-6.33 13 -6.66 13 -7 13 C-7 10.03 -7 7.06 -7 4 C-6.030625 3.525625 -5.06125 3.05125 -4.0625 2.5625 C-1.19522563 1.29806053 -1.19522563 1.29806053 0 0 Z " fill="#EBEDF0" transform="translate(707,824)"/>
<path d="M0 0 C6.625 -0.25 6.625 -0.25 10 2 C10 2.66 10 3.32 10 4 C10.66 4.33 11.32 4.66 12 5 C6.96488101 6.0070238 3.76052962 5.97387813 -1 4 C-0.67 2.68 -0.34 1.36 0 0 Z " fill="#121F5B" transform="translate(516,633)"/>
<path d="M0 0 C6.19867235 -0.22138116 12.8082508 -0.3938119 18 3.5 C19 5 19 5 19 7 C12.62267685 5.12275039 6.29304541 3.14328358 0 1 C0 0.67 0 0.34 0 0 Z " fill="#202B64" transform="translate(436,609)"/>
<path d="M0 0 C0.33 0.66 0.66 1.32 1 2 C0.113125 2.53625 -0.77375 3.0725 -1.6875 3.625 C-5.18288216 5.93311458 -7.44874658 8.69837793 -10 12 C-13 11 -13 11 -16 9 C-10.72 6.03 -5.44 3.06 0 0 Z " fill="#19265F" transform="translate(1113,59)"/>
<path d="M0 0 C0 0.66 0 1.32 0 2 C-0.66 2 -1.32 2 -2 2 C-2.33 3.32 -2.66 4.64 -3 6 C-5.64 6 -8.28 6 -11 6 C-11.33 5.34 -11.66 4.68 -12 4 C-10.56988027 3.13353333 -9.13059381 2.28218171 -7.6875 1.4375 C-6.48673828 0.72400391 -6.48673828 0.72400391 -5.26171875 -0.00390625 C-3 -1 -3 -1 0 0 Z " fill="#13205A" transform="translate(679,313)"/>
<path d="M0 0 C0.33 0 0.66 0 1 0 C1.40368295 6.45892714 0.5915262 11.06108578 -2 17 C-3.32 16.34 -4.64 15.68 -6 15 C-6 13.68 -6 12.36 -6 11 C-2.78571429 8 -2.78571429 8 0 8 C0 5.36 0 2.72 0 0 Z " fill="#273267" transform="translate(351,1019)"/>
<path d="M0 0 C0.66 0.99 1.32 1.98 2 3 C0.39805929 3.98280415 -1.20663742 4.96111717 -2.8125 5.9375 C-4.15248047 6.75541016 -4.15248047 6.75541016 -5.51953125 7.58984375 C-8 9 -8 9 -11 10 C-11 7 -11 7 -9.9375 5.5 C-7.20731162 3.38630577 -4.18343819 2.2969563 -1 1 C-0.67 0.67 -0.34 0.34 0 0 Z " fill="#131F59" transform="translate(523,985)"/>
<path d="M0 0 C-2.97 2.97 -5.94 5.94 -9 9 C-9.33 7.68 -9.66 6.36 -10 5 C-10.66 4.67 -11.32 4.34 -12 4 C-10.56988027 3.13353333 -9.13059381 2.28218171 -7.6875 1.4375 C-6.48673828 0.72400391 -6.48673828 0.72400391 -5.26171875 -0.00390625 C-3 -1 -3 -1 0 0 Z " fill="#E9EDF2" transform="translate(1030,159)"/>
<path d="M0 0 C0.66 0 1.32 0 2 0 C2.33 1.98 2.66 3.96 3 6 C3.99 5.67 4.98 5.34 6 5 C5.67 7.97 5.34 10.94 5 14 C4.34 14 3.68 14 3 14 C1.68 9.71 0.36 5.42 -1 1 C-0.67 0.67 -0.34 0.34 0 0 Z " fill="#141F5A" transform="translate(577,699)"/>
<path d="M0 0 C1.65 0 3.3 0 5 0 C2.81482901 2.40575607 0.74080329 3.79535581 -2.1875 5.1875 C-2.90292969 5.53167969 -3.61835937 5.87585938 -4.35546875 6.23046875 C-4.89816406 6.48441406 -5.44085937 6.73835937 -6 7 C-6.33 5.68 -6.66 4.36 -7 3 C-4.625 1.9375 -4.625 1.9375 -2 1 C-1.34 1.33 -0.68 1.66 0 2 C0 1.34 0 0.68 0 0 Z " fill="#17225D" transform="translate(1001,170)"/>
<path d="M0 0 C3.07531556 0.33246655 4.61832506 0.63104756 6.875 2.8125 C8 5 8 5 7.6875 7.25 C7.460625 7.8275 7.23375 8.405 7 9 C6.01 8.34 5.02 7.68 4 7 C4 6.34 4 5.68 4 5 C2.68 4.34 1.36 3.68 0 3 C0 2.01 0 1.02 0 0 Z " fill="#0C1A55" transform="translate(1156,48)"/>
<path d="M0 0 C0 2.9355647 -0.15755581 5.19185271 -1 8 C-4.20689655 11 -4.20689655 11 -7 11 C-7.33 11.99 -7.66 12.98 -8 14 C-8.66 13.67 -9.32 13.34 -10 13 C-5.05 6.565 -5.05 6.565 0 0 Z " fill="#1B275F" transform="translate(758,760)"/>
<path d="M0 0 C0.99 0.99 1.98 1.98 3 3 C1 6 1 6 -1.4375 7.4375 C-4.05527174 9.03370228 -5.33734128 10.46225774 -7 13 C-7.66 12.67 -8.32 12.34 -9 12 C-6.03 8.04 -3.06 4.08 0 0 Z " fill="#E8EAED" transform="translate(1012,297)"/>
<path d="M0 0 C0.66 0.33 1.32 0.66 2 1 C1.34 2.65 0.68 4.3 0 6 C-1.1446875 5.938125 -1.1446875 5.938125 -2.3125 5.875 C-5.22718416 5.77919176 -5.22718416 5.77919176 -8 8 C-10.1875 7.625 -10.1875 7.625 -12 7 C-10.04754815 5.80285445 -8.08785003 4.61751926 -6.125 3.4375 C-5.03445313 2.77621094 -3.94390625 2.11492187 -2.8203125 1.43359375 C-1.88960937 0.96050781 -0.95890625 0.48742187 0 0 Z " fill="#15215A" transform="translate(591,361)"/>
<path d="M0 0 C-1.44253657 3.36591866 -3.33264727 5.51047079 -6 8 C-6.66 7.34 -7.32 6.68 -8 6 C-8.33 6.66 -8.66 7.32 -9 8 C-9.66 8 -10.32 8 -11 8 C-9.94434467 4.71573897 -8.38339648 3.42848444 -5.5 1.75 C-2 0 -2 0 0 0 Z " fill="#17225D" transform="translate(693,303)"/>
<path d="M0 0 C0 0.99 0 1.98 0 3 C-0.99 3.495 -0.99 3.495 -2 4 C-3.13350534 6.01669827 -3.13350534 6.01669827 -4 8 C-6.64 8 -9.28 8 -12 8 C-8.2064129 4.78119883 -4.34170523 2.3836813 0 0 Z " fill="#1A265D" transform="translate(641,332)"/>
<path d="M0 0 C1.0625 1.8125 1.0625 1.8125 2 4 C1.67 4.99 1.34 5.98 1 7 C0.34 7 -0.32 7 -1 7 C-1.12375 7.78375 -1.2475 8.5675 -1.375 9.375 C-2 12 -2 12 -4 14 C-3.67 11.03 -3.34 8.06 -3 5 C-2.34 5 -1.68 5 -1 5 C-0.67 3.35 -0.34 1.7 0 0 Z " fill="#121F5B" transform="translate(1005,745)"/>
<path d="M0 0 C0.33 0.66 0.66 1.32 1 2 C0.360625 2.4125 -0.27875 2.825 -0.9375 3.25 C-3.20990931 5.17810487 -3.60196439 6.11424181 -4 9 C-5.98 8.34 -7.96 7.68 -10 7 C-7.2180632 3.72713318 -3.72045933 2.03572303 0 0 Z " fill="#E6E9EF" transform="translate(379,534)"/>
<path d="M0 0 C1.20220203 3.53094302 0.79532349 6.12898982 0.0625 9.75 C-0.13214844 10.73484375 -0.32679687 11.7196875 -0.52734375 12.734375 C-0.68332031 13.48203125 -0.83929687 14.2296875 -1 15 C-1.33 15 -1.66 15 -2 15 C-2 13.35 -2 11.7 -2 10 C-2.66 10 -3.32 10 -4 10 C-3.43454163 6.04179141 -2.19097652 3.3340947 0 0 Z " fill="#1A245F" transform="translate(1094,478)"/>
<path d="M0 0 C0.66 0 1.32 0 2 0 C0.44298069 4.67105792 -2.08447373 8.08705685 -5 12 C-5.66 10.68 -6.32 9.36 -7 8 C-5.88200014 6.66079162 -4.75538103 5.32877444 -3.625 4 C-2.68527344 2.88625 -2.68527344 2.88625 -1.7265625 1.75 C-1.15679688 1.1725 -0.58703125 0.595 0 0 Z " fill="#E8EBF1" transform="translate(972,276)"/>
<path d="M0 0 C0.66 0.33 1.32 0.66 2 1 C0.40956621 6.08938811 -2.7446951 9.87456643 -6 14 C-6.33 12.68 -6.66 11.36 -7 10 C-6.34 10 -5.68 10 -5 10 C-4.67 7.69 -4.34 5.38 -4 3 C-3.01 2.67 -2.02 2.34 -1 2 C-0.67 1.34 -0.34 0.68 0 0 Z " fill="#1A255B" transform="translate(1090,183)"/>
<path d="M0 0 C-0.33 2.31 -0.66 4.62 -1 7 C-3.97 6.505 -3.97 6.505 -7 6 C-7.33 5.01 -7.66 4.02 -8 3 C-2.25 0 -2.25 0 0 0 Z " fill="#18245C" transform="translate(488,959)"/>
<path d="M0 0 C0.99 0.33 1.98 0.66 3 1 C2.67 3.97 2.34 6.94 2 10 C1.34 10 0.68 10 0 10 C-1.125 6.6875 -1.125 6.6875 -2 3 C-1.34 2.01 -0.68 1.02 0 0 Z " fill="#E4E6EC" transform="translate(659,799)"/>
<path d="M0 0 C1.485 0.99 1.485 0.99 3 2 C2.34 6.29 1.68 10.58 1 15 C0.67 15 0.34 15 0 15 C-0.19390729 12.68802845 -0.37996367 10.3753971 -0.5625 8.0625 C-0.71912109 6.13083984 -0.71912109 6.13083984 -0.87890625 4.16015625 C-0.91886719 3.11730469 -0.95882812 2.07445312 -1 1 C-0.67 0.67 -0.34 0.34 0 0 Z " fill="#1A255E" transform="translate(706,786)"/>
<path d="M0 0 C0.99 0.66 1.98 1.32 3 2 C2.21654285 3.17219543 1.42297164 4.33763668 0.625 5.5 C0.18414063 6.1496875 -0.25671875 6.799375 -0.7109375 7.46875 C-1.13632812 7.9740625 -1.56171875 8.479375 -2 9 C-2.66 9 -3.32 9 -4 9 C-4.25 6.75 -4.25 6.75 -4 4 C-2 1.6875 -2 1.6875 0 0 Z " fill="#132059" transform="translate(876,483)"/>
<path d="M0 0 C-0.57352893 3.87132028 -2.48704352 6.08172796 -5 9 C-5.33 6.69 -5.66 4.38 -6 2 C-3 0 -3 0 0 0 Z " fill="#14215A" transform="translate(976,346)"/>
<path d="M0 0 C1.65 0.33 3.3 0.66 5 1 C3.68775452 4.93673644 2.08089673 7.22719294 -1 10 C-1.33 8.35 -1.66 6.7 -2 5 C-1.01 5 -0.02 5 1 5 C0.67 3.35 0.34 1.7 0 0 Z " fill="#17245C" transform="translate(1045,242)"/>
<path d="M0 0 C-1.45044271 4.10958767 -3.51110752 7.43258745 -6 11 C-6.66 10.67 -7.32 10.34 -8 10 C-6.53172205 3.51510574 -6.53172205 3.51510574 -4 1.0625 C-2 0 -2 0 0 0 Z " fill="#14215A" transform="translate(760,650)"/>
<path d="M0 0 C0.66 0 1.32 0 2 0 C2 0.66 2 1.32 2 2 C3.32 1.67 4.64 1.34 6 1 C6 1.66 6 2.32 6 3 C7.65 3.33 9.3 3.66 11 4 C10.67 4.66 10.34 5.32 10 6 C6.37 5.01 2.74 4.02 -1 3 C-0.67 2.01 -0.34 1.02 0 0 Z " fill="#1E2964" transform="translate(347,577)"/>
<path d="M0 0 C0.66 1.32 1.32 2.64 2 4 C1.34 4.66 0.68 5.32 0 6 C-0.598125 5.835 -1.19625 5.67 -1.8125 5.5 C-4.74349924 4.83005732 -6.33781452 5.74285686 -9 7 C-9 6.34 -9 5.68 -9 5 C-6.03 3.35 -3.06 1.7 0 0 Z " fill="#17235D" transform="translate(343,505)"/>
<path d="M0 0 C0.66 0.33 1.32 0.66 2 1 C1.01 2.175625 1.01 2.175625 0 3.375 C-2.20201441 5.71512812 -2.20201441 5.71512812 -2 8 C-6 8 -6 8 -8 7 C-8 6.34 -8 5.68 -8 5 C-6.3203125 3.67578125 -6.3203125 3.67578125 -4.125 2.3125 C-3.40570312 1.85488281 -2.68640625 1.39726562 -1.9453125 0.92578125 C-1.30335938 0.62027344 -0.66140625 0.31476563 0 0 Z " fill="#15225D" transform="translate(608,351)"/>
<path d="M0 0 C-2.55991624 2.01136276 -5.04590299 3.62845496 -8 5 C-8.33 3.35 -8.66 1.7 -9 0 C-5.67465243 -1.10844919 -3.37817425 -0.84454356 0 0 Z " fill="#15225B" transform="translate(938,210)"/>
<path d="M0 0 C0.66 0.66 1.32 1.32 2 2 C0.02 4.64 -1.96 7.28 -4 10 C-4.95904856 6.16380575 -4.91892116 4.67568464 -4 1 C-3.01 1.33 -2.02 1.66 -1 2 C-0.67 1.34 -0.34 0.68 0 0 Z " fill="#14205A" transform="translate(695,913)"/>
<path d="M0 0 C1.671549 0.30791692 3.33805547 0.64386903 5 1 C7.23167185 0.63143136 7.23167185 0.63143136 9 0 C9 0.99 9 1.98 9 3 C7 4 7 4 5 5 C2.64018187 4.06421005 0.30368736 3.06652192 -2 2 C-1.34 1.34 -0.68 0.68 0 0 Z " fill="#1B2761" transform="translate(891,777)"/>
<path d="M0 0 C0.66 0.33 1.32 0.66 2 1 C1.34 4.96 0.68 8.92 0 13 C-0.66 13 -1.32 13 -2 13 C-3.46845421 7.52667068 -2.44038726 4.88077452 0 0 Z " fill="#14205B" transform="translate(1046,744)"/>
<path d="M0 0 C0 3.51716303 -0.82445585 4.37121748 -3 7 C-5.97 6.505 -5.97 6.505 -9 6 C-6.11912454 3.59927045 -3.43595166 1.52708963 0 0 Z " fill="#E9EDF0" transform="translate(424,508)"/>
<path d="M0 0 C-3.12432397 2.52349243 -6.38060496 4.27256146 -10 6 C-9.8125 3.625 -9.8125 3.625 -9 1 C-5.71803757 -0.95143712 -3.5838203 -1.32734085 0 0 Z " fill="#1A2760" transform="translate(649,378)"/>
<path d="M0 0 C0.99 0.33 1.98 0.66 3 1 C2.525625 1.598125 2.05125 2.19625 1.5625 2.8125 C-0.16465744 5.00382924 -0.16465744 5.00382924 -1 8 C-1.99 7.67 -2.98 7.34 -4 7 C-4.6875 4.9375 -4.6875 4.9375 -5 3 C-2.6875 1.4375 -2.6875 1.4375 0 0 Z " fill="#131E5A" transform="translate(567,375)"/>
<path d="M0 0 C0.33 0.66 0.66 1.32 1 2 C0.67 2.99 0.34 3.98 0 5 C-2.69693106 5.79581572 -5.26023754 6.4408648 -8 7 C-9.33481169 7.32736314 -10.66862506 7.65892867 -12 8 C-8.2064129 4.78119883 -4.34170523 2.3836813 0 0 Z " fill="#1E285F" transform="translate(997,126)"/>
<path d="M0 0 C5.445 1.485 5.445 1.485 11 3 C10.67 3.66 10.34 4.32 10 5 C7.36 4.67 4.72 4.34 2 4 C2 3.34 2 2.68 2 2 C1.34 2 0.68 2 0 2 C0 1.34 0 0.68 0 0 Z " fill="#18255D" transform="translate(504,586)"/>
<path d="M0 0 C2.46800047 1.15173355 4.04783565 2.04783565 6 4 C5.67 4.99 5.34 5.98 5 7 C2.36 5.35 -0.28 3.7 -3 2 C-2.01 1.34 -1.02 0.68 0 0 Z " fill="#17225C" transform="translate(105,971)"/>
<path d="M0 0 C0.99 0 1.98 0 3 0 C3.33 0.66 3.66 1.32 4 2 C4.66 1.67 5.32 1.34 6 1 C5.34 3.97 4.68 6.94 4 10 C1.81024227 6.71536341 1.00193437 3.79303725 0 0 Z " fill="#18235E" transform="translate(600,770)"/>
<path d="M0 0 C1 2 1 2 1 6 C-3.455 6.495 -3.455 6.495 -8 7 C-5.42215154 4.35247996 -3.08351902 2.05567935 0 0 Z " fill="#1A255E" transform="translate(702,655)"/>
<path d="M0 0 C0.33 0.99 0.66 1.98 1 3 C0.34 3.66 -0.32 4.32 -1 5 C-1.33 5.845625 -1.66 6.69125 -2 7.5625 C-3 10 -3 10 -5 11 C-5.66 10.34 -6.32 9.68 -7 9 C-4.69 6.03 -2.38 3.06 0 0 Z " fill="#1A255E" transform="translate(812,503)"/>
<path d="M0 0 C2.11939205 4.23878411 2.43006213 6.35532905 2 11 C1.01 11.66 0.02 12.32 -1 13 C-0.67 8.71 -0.34 4.42 0 0 Z " fill="#252F69" transform="translate(1049,483)"/>
<path d="M0 0 C0.99 0.33 1.98 0.66 3 1 C3 1.66 3 2.32 3 3 C1.34997172 4.35386936 -0.3174387 5.68678142 -2 7 C-2.33 7.66 -2.66 8.32 -3 9 C-3.99 8.67 -4.98 8.34 -6 8 C-4.02 5.36 -2.04 2.72 0 0 Z " fill="#1C265F" transform="translate(940,324)"/>
<path d="M0 0 C0.66 0 1.32 0 2 0 C1.56802365 4.7517398 0.67230705 6.92000054 -3 10 C-3 6 -3 6 -1 4 C-0.3574765 1.93125966 -0.3574765 1.93125966 0 0 Z " fill="#1A245E" transform="translate(181,988)"/>
<path d="M0 0 C2.17975966 3.26963949 2.36904422 4.21729678 2 8 C0.94762144 10.6309464 0.0215339 11.9784661 -2 14 C-1.03644647 4.58997722 -1.03644647 4.58997722 0 0 Z " fill="#343E70" transform="translate(684,688)"/>
<path d="M0 0 C0.33 0.66 0.66 1.32 1 2 C0.00390625 3.9453125 0.00390625 3.9453125 -1.4375 6.125 C-1.91058594 6.84945312 -2.38367188 7.57390625 -2.87109375 8.3203125 C-3.24363281 8.87460937 -3.61617187 9.42890625 -4 10 C-4.99 9.01 -5.98 8.02 -7 7 C-4.69 4.69 -2.38 2.38 0 0 Z " fill="#16215C" transform="translate(616,572)"/>
<path d="M0 0 C1.46911544 3.81970016 0.52561108 6.30641529 -1 10 C-1.66 10.66 -2.32 11.32 -3 12 C-2.88648483 10.18674449 -2.75887039 8.37436643 -2.625 6.5625 C-2.55539062 5.55316406 -2.48578125 4.54382813 -2.4140625 3.50390625 C-2.27742188 2.67761719 -2.14078125 1.85132813 -2 1 C-1.34 0.67 -0.68 0.34 0 0 Z " fill="#242D68" transform="translate(1045,516)"/>
<path d="M0 0 C0.66 0.66 1.32 1.32 2 2 C-1.96 3.98 -1.96 3.98 -6 6 C-6.66 5.34 -7.32 4.68 -8 4 C-7.67 3.34 -7.34 2.68 -7 2 C-4.6859378 1.26924352 -2.35171131 0.59861742 0 0 Z " fill="#19255E" transform="translate(548,434)"/>
<path d="M0 0 C2 3 2 3 2 6 C-0.31 6.66 -2.62 7.32 -5 8 C-3.35 5.36 -1.7 2.72 0 0 Z " fill="#EAEDF1" transform="translate(957,374)"/>
<path d="M0 0 C0.33 0.66 0.66 1.32 1 2 C0.00390625 3.9453125 0.00390625 3.9453125 -1.4375 6.125 C-1.91058594 6.84945313 -2.38367188 7.57390625 -2.87109375 8.3203125 C-3.24363281 8.87460937 -3.61617187 9.42890625 -4 10 C-4.99 9.01 -5.98 8.02 -7 7 C-4.69 4.69 -2.38 2.38 0 0 Z " fill="#16215C" transform="translate(840,348)"/>
<path d="M0 0 C0.33 0.66 0.66 1.32 1 2 C1.66 2.33 2.32 2.66 3 3 C3 3.99 3 4.98 3 6 C0 7 0 7 -2.1875 6.0625 C-2.785625 5.711875 -3.38375 5.36125 -4 5 C-2.68 3.35 -1.36 1.7 0 0 Z " fill="#16235D" transform="translate(964,291)"/>
<path d="M0 0 C0.33 0.66 0.66 1.32 1 2 C0.00390625 3.9453125 0.00390625 3.9453125 -1.4375 6.125 C-1.91058594 6.84945313 -2.38367188 7.57390625 -2.87109375 8.3203125 C-3.24363281 8.87460937 -3.61617187 9.42890625 -4 10 C-4.99 9.01 -5.98 8.02 -7 7 C-4.69 4.69 -2.38 2.38 0 0 Z " fill="#16215C" transform="translate(936,252)"/>
<path d="M0 0 C0.33 0.99 0.66 1.98 1 3 C0.030625 3.268125 -0.93875 3.53625 -1.9375 3.8125 C-2.948125 4.204375 -3.95875 4.59625 -5 5 C-5.33 5.99 -5.66 6.98 -6 8 C-6.99 7.67 -7.98 7.34 -9 7 C-9 6.34 -9 5.68 -9 5 C-6.03 3.35 -3.06 1.7 0 0 Z " fill="#1A265E" transform="translate(795,243)"/>
<path d="M0 0 C0.33 0.66 0.66 1.32 1 2 C0.00390625 3.9453125 0.00390625 3.9453125 -1.4375 6.125 C-1.91058594 6.84945312 -2.38367188 7.57390625 -2.87109375 8.3203125 C-3.24363281 8.87460938 -3.61617187 9.42890625 -4 10 C-4.99 9.01 -5.98 8.02 -7 7 C-4.69 4.69 -2.38 2.38 0 0 Z " fill="#16215C" transform="translate(1016,172)"/>
<path d="M0 0 C0.66 0.33 1.32 0.66 2 1 C2.625 4.0625 2.625 4.0625 3 7 C0.37886292 7 -1.50935112 6.68707555 -4 6 C-2.68 4.02 -1.36 2.04 0 0 Z " fill="#16225B" transform="translate(715,638)"/>
<path d="M0 0 C0.99 0.33 1.98 0.66 3 1 C3.33 1.99 3.66 2.98 4 4 C0.04 5.98 0.04 5.98 -4 8 C-4 7.34 -4 6.68 -4 6 C-3.34 6 -2.68 6 -2 6 C-1.34 4.02 -0.68 2.04 0 0 Z " fill="#142059" transform="translate(558,425)"/>
<path d="M0 0 C0.66 0.33 1.32 0.66 2 1 C1.34 2.32 0.68 3.64 0 5 C-2.31 5 -4.62 5 -7 5 C-2.25 1.125 -2.25 1.125 0 0 Z " fill="#1A265C" transform="translate(541,390)"/>
<path d="M0 0 C0.66 0.33 1.32 0.66 2 1 C1.33333333 3 0.66666667 5 0 7 C-1.65 6.01 -3.3 5.02 -5 4 C-3.35 2.68 -1.7 1.36 0 0 Z " fill="#16235D" transform="translate(1047,97)"/>
<path d="M0 0 C0.33 0.66 0.66 1.32 1 2 C0.0625 4.125 0.0625 4.125 -1 6 C-3.31 6 -5.62 6 -8 6 C-5.63379989 3.38472619 -3.057952 1.73559438 0 0 Z " fill="#1A275D" transform="translate(1078,79)"/>
<path d="M0 0 C0.33 2.31 0.66 4.62 1 7 C-1.91517292 5.92598892 -3.77810176 5.22189824 -6 3 C-2.25 0 -2.25 0 0 0 Z " fill="#1E2861" transform="translate(253,999)"/>
<path d="M0 0 C0 3 0 3 -1.5 4.6875 C-1.995 5.120625 -2.49 5.55375 -3 6 C-3.99 5.67 -4.98 5.34 -6 5 C-5.67 4.01 -5.34 3.02 -5 2 C-2.4375 0.8125 -2.4375 0.8125 0 0 Z " fill="#1A275E" transform="translate(470,967)"/>
<path d="M0 0 C2.475 0.99 2.475 0.99 5 2 C4.34 3.65 3.68 5.3 3 7 C0.46587529 5.73293765 0.02161992 4.59334288 -1 2 C-0.67 1.34 -0.34 0.68 0 0 Z " fill="#121F58" transform="translate(164,960)"/>
<path d="M0 0 C1 4 1 4 0.375 6.1875 C-1 8 -1 8 -6 9 C-4.02 6.03 -2.04 3.06 0 0 Z " fill="#1D285F" transform="translate(726,802)"/>
<path d="M0 0 C0.33 0.99 0.66 1.98 1 3 C1.66 3 2.32 3 3 3 C1.89470285 7.50621146 1.34905453 9.65094547 -2 13 C-1.34 8.71 -0.68 4.42 0 0 Z " fill="#E4E8EB" transform="translate(708,790)"/>
<path d="M0 0 C0.68707555 2.49064888 1 4.37886292 1 7 C-0.65 7.66 -2.3 8.32 -4 9 C-4 5.00095031 -2.27413033 3.19799578 0 0 Z " fill="#18255D" transform="translate(742,781)"/>
<path d="M0 0 C1.98 0.66 3.96 1.32 6 2 C5.67 3.32 5.34 4.64 5 6 C2.83125748 5.49396008 1.00032373 5.00016187 -1 4 C-0.67 2.68 -0.34 1.36 0 0 Z " fill="#111F58" transform="translate(795,690)"/>
<path d="M0 0 C3.3 0 6.6 0 10 0 C10 0.66 10 1.32 10 2 C10.66 2.33 11.32 2.66 12 3 C8.52128379 4.15957207 7.65780355 3.77456651 4.3125 2.5625 C3.50425781 2.27503906 2.69601562 1.98757813 1.86328125 1.69140625 C1.24839844 1.46324219 0.63351562 1.23507812 0 1 C0 0.67 0 0.34 0 0 Z " fill="#2A3469" transform="translate(459,617)"/>
<path d="M0 0 C0.33 0.66 0.66 1.32 1 2 C1.99 2.33 2.98 2.66 4 3 C2.25 4.5625 2.25 4.5625 0 6 C-2.25 5.6875 -2.25 5.6875 -4 5 C-2.68 3.35 -1.36 1.7 0 0 Z " fill="#15225C" transform="translate(734,612)"/>
<path d="M0 0 C1.32 0.33 2.64 0.66 4 1 C3.34 2.65 2.68 4.3 2 6 C0.68 5.34 -0.64 4.68 -2 4 C-1.34 2.68 -0.68 1.36 0 0 Z " fill="#132058" transform="translate(1034,259)"/>
<path d="M0 0 C-0.99 0.495 -0.99 0.495 -2 1 C-2 1.99 -2 2.98 -2 4 C-2.99 3.67 -3.98 3.34 -5 3 C-7.14255793 3.38932856 -7.14255793 3.38932856 -9 4 C-8 1 -8 1 -6.1875 -0.25 C-3.66056586 -1.11637742 -2.47778006 -0.88492145 0 0 Z " fill="#16235C" transform="translate(1136,49)"/>
<path d="M0 0 C4.75 0.875 4.75 0.875 7 2 C6.67 2.66 6.34 3.32 6 4 C3.5625 4.75 3.5625 4.75 1 5 C0.34 4.34 -0.32 3.68 -1 3 C-0.67 2.01 -0.34 1.02 0 0 Z " fill="#111E5A" transform="translate(113,930)"/>
<path d="M0 0 C2.31 0.33 4.62 0.66 7 1 C6.67 2.32 6.34 3.64 6 5 C3.69 4.01 1.38 3.02 -1 2 C-0.67 1.34 -0.34 0.68 0 0 Z " fill="#1C2760" transform="translate(987,818)"/>
<path d="M0 0 C2 3 2 3 2 5 C1.34 5 0.68 5 0 5 C-0.12375 5.969375 -0.2475 6.93875 -0.375 7.9375 C-0.58125 8.948125 -0.7875 9.95875 -1 11 C-1.99 11.495 -1.99 11.495 -3 12 C-2.68950274 10.56206608 -2.3765224 9.1246682 -2.0625 7.6875 C-1.88847656 6.88699219 -1.71445312 6.08648438 -1.53515625 5.26171875 C-1 3 -1 3 0 0 Z " fill="#131E5D" transform="translate(636,740)"/>
<path d="M0 0 C0 3.61656862 -1.02130767 5.0319615 -3 8 C-3.66 8.66 -4.32 9.32 -5 10 C-5.66 9.01 -6.32 8.02 -7 7 C-4.69 4.69 -2.38 2.38 0 0 Z " fill="#19235D" transform="translate(592,596)"/>
<path d="M0 0 C0 3.61656862 -1.02130767 5.0319615 -3 8 C-3.66 8.66 -4.32 9.32 -5 10 C-5.66 9.01 -6.32 8.02 -7 7 C-4.69 4.69 -2.38 2.38 0 0 Z " fill="#19235D" transform="translate(600,588)"/>
<path d="M0 0 C0 3.61656862 -1.02130767 5.0319615 -3 8 C-3.66 8.66 -4.32 9.32 -5 10 C-5.66 9.01 -6.32 8.02 -7 7 C-4.69 4.69 -2.38 2.38 0 0 Z " fill="#19235D" transform="translate(608,580)"/>
<path d="M0 0 C0 3.61656862 -1.02130767 5.0319615 -3 8 C-3.66 8.66 -4.32 9.32 -5 10 C-5.66 9.01 -6.32 8.02 -7 7 C-4.69 4.69 -2.38 2.38 0 0 Z " fill="#19235D" transform="translate(624,564)"/>
<path d="M0 0 C0 3.61656862 -1.02130767 5.0319615 -3 8 C-3.66 8.66 -4.32 9.32 -5 10 C-5.66 9.01 -6.32 8.02 -7 7 C-4.69 4.69 -2.38 2.38 0 0 Z " fill="#19235D" transform="translate(632,556)"/>
<path d="M0 0 C0 3.61656862 -1.02130767 5.0319615 -3 8 C-3.66 8.66 -4.32 9.32 -5 10 C-5.66 9.01 -6.32 8.02 -7 7 C-4.69 4.69 -2.38 2.38 0 0 Z " fill="#19235D" transform="translate(640,548)"/>
<path d="M0 0 C0 3.61656862 -1.02130767 5.0319615 -3 8 C-3.66 8.66 -4.32 9.32 -5 10 C-5.66 9.01 -6.32 8.02 -7 7 C-4.69 4.69 -2.38 2.38 0 0 Z " fill="#19235D" transform="translate(648,540)"/>
<path d="M0 0 C0 3.61656862 -1.02130767 5.0319615 -3 8 C-3.66 8.66 -4.32 9.32 -5 10 C-5.66 9.01 -6.32 8.02 -7 7 C-4.69 4.69 -2.38 2.38 0 0 Z " fill="#19235D" transform="translate(656,532)"/>
<path d="M0 0 C0 3.61656862 -1.02130767 5.0319615 -3 8 C-3.66 8.66 -4.32 9.32 -5 10 C-5.66 9.01 -6.32 8.02 -7 7 C-4.69 4.69 -2.38 2.38 0 0 Z " fill="#19235D" transform="translate(664,524)"/>
<path d="M0 0 C0 3.61656862 -1.02130767 5.0319615 -3 8 C-3.66 8.66 -4.32 9.32 -5 10 C-5.66 9.01 -6.32 8.02 -7 7 C-4.69 4.69 -2.38 2.38 0 0 Z " fill="#19235D" transform="translate(672,516)"/>
<path d="M0 0 C0 3.61656862 -1.02130767 5.0319615 -3 8 C-3.66 8.66 -4.32 9.32 -5 10 C-5.66 9.01 -6.32 8.02 -7 7 C-4.69 4.69 -2.38 2.38 0 0 Z " fill="#19235D" transform="translate(680,508)"/>
<path d="M0 0 C0 3.61656862 -1.02130767 5.0319615 -3 8 C-3.66 8.66 -4.32 9.32 -5 10 C-5.66 9.01 -6.32 8.02 -7 7 C-4.69 4.69 -2.38 2.38 0 0 Z " fill="#19235D" transform="translate(688,500)"/>
<path d="M0 0 C0 3.61656862 -1.02130767 5.0319615 -3 8 C-3.66 8.66 -4.32 9.32 -5 10 C-5.66 9.01 -6.32 8.02 -7 7 C-4.69 4.69 -2.38 2.38 0 0 Z " fill="#19235D" transform="translate(696,492)"/>
<path d="M0 0 C0 3.61656862 -1.02130767 5.0319615 -3 8 C-3.66 8.66 -4.32 9.32 -5 10 C-5.66 9.01 -6.32 8.02 -7 7 C-4.69 4.69 -2.38 2.38 0 0 Z " fill="#19235D" transform="translate(704,484)"/>
<path d="M0 0 C0 3.61656862 -1.02130767 5.0319615 -3 8 C-3.66 8.66 -4.32 9.32 -5 10 C-5.66 9.01 -6.32 8.02 -7 7 C-4.69 4.69 -2.38 2.38 0 0 Z " fill="#19235D" transform="translate(712,476)"/>
<path d="M0 0 C0 3.61656862 -1.02130767 5.0319615 -3 8 C-3.66 8.66 -4.32 9.32 -5 10 C-5.66 9.01 -6.32 8.02 -7 7 C-4.69 4.69 -2.38 2.38 0 0 Z " fill="#19235D" transform="translate(720,468)"/>
<path d="M0 0 C0 3.61656862 -1.02130767 5.0319615 -3 8 C-3.66 8.66 -4.32 9.32 -5 10 C-5.66 9.01 -6.32 8.02 -7 7 C-4.69 4.69 -2.38 2.38 0 0 Z " fill="#19235D" transform="translate(728,460)"/>
<path d="M0 0 C0 3.61656862 -1.02130767 5.0319615 -3 8 C-3.66 8.66 -4.32 9.32 -5 10 C-5.66 9.01 -6.32 8.02 -7 7 C-4.69 4.69 -2.38 2.38 0 0 Z " fill="#19235D" transform="translate(736,452)"/>
<path d="M0 0 C0 3.61656862 -1.02130767 5.0319615 -3 8 C-3.66 8.66 -4.32 9.32 -5 10 C-5.66 9.01 -6.32 8.02 -7 7 C-4.69 4.69 -2.38 2.38 0 0 Z " fill="#19235D" transform="translate(744,444)"/>
<path d="M0 0 C0 3.61656862 -1.02130767 5.0319615 -3 8 C-3.66 8.66 -4.32 9.32 -5 10 C-5.66 9.01 -6.32 8.02 -7 7 C-4.69 4.69 -2.38 2.38 0 0 Z " fill="#19235D" transform="translate(752,436)"/>
<path d="M0 0 C0.33 0.66 0.66 1.32 1 2 C-0.65 3.32 -2.3 4.64 -4 6 C-4.66 5.67 -5.32 5.34 -6 5 C-6 5.66 -6 6.32 -6 7 C-6.99 7 -7.98 7 -9 7 C-9 6.34 -9 5.68 -9 5 C-6.03 3.35 -3.06 1.7 0 0 Z " fill="#E8ECEF" transform="translate(545,438)"/>
<path d="M0 0 C0 3.61656862 -1.02130767 5.0319615 -3 8 C-3.66 8.66 -4.32 9.32 -5 10 C-5.66 9.01 -6.32 8.02 -7 7 C-4.69 4.69 -2.38 2.38 0 0 Z " fill="#19235D" transform="translate(760,428)"/>
<path d="M0 0 C0 3.61656862 -1.02130767 5.0319615 -3 8 C-3.66 8.66 -4.32 9.32 -5 10 C-5.66 9.01 -6.32 8.02 -7 7 C-4.69 4.69 -2.38 2.38 0 0 Z " fill="#19235D" transform="translate(768,420)"/>
<path d="M0 0 C0 3.61656862 -1.02130767 5.0319615 -3 8 C-3.66 8.66 -4.32 9.32 -5 10 C-5.66 9.01 -6.32 8.02 -7 7 C-4.69 4.69 -2.38 2.38 0 0 Z " fill="#19235D" transform="translate(776,412)"/>
<path d="M0 0 C0 3.61656862 -1.02130767 5.0319615 -3 8 C-3.66 8.66 -4.32 9.32 -5 10 C-5.66 9.01 -6.32 8.02 -7 7 C-4.69 4.69 -2.38 2.38 0 0 Z " fill="#19235D" transform="translate(784,404)"/>
<path d="M0 0 C0 3.61656862 -1.02130767 5.0319615 -3 8 C-3.66 8.66 -4.32 9.32 -5 10 C-5.66 9.01 -6.32 8.02 -7 7 C-4.69 4.69 -2.38 2.38 0 0 Z " fill="#19235D" transform="translate(792,396)"/>
<path d="M0 0 C2.31 0.66 4.62 1.32 7 2 C7 2.66 7 3.32 7 4 C5.35 4.66 3.7 5.32 2 6 C2 5.01 2 4.02 2 3 C1.34 2.67 0.68 2.34 0 2 C0 1.34 0 0.68 0 0 Z " fill="#13205B" transform="translate(597,401)"/>
<path d="M0 0 C0 3.61656862 -1.02130767 5.0319615 -3 8 C-3.66 8.66 -4.32 9.32 -5 10 C-5.66 9.01 -6.32 8.02 -7 7 C-4.69 4.69 -2.38 2.38 0 0 Z " fill="#19235D" transform="translate(800,388)"/>
<path d="M0 0 C0 3.61656862 -1.02130767 5.0319615 -3 8 C-3.66 8.66 -4.32 9.32 -5 10 C-5.66 9.01 -6.32 8.02 -7 7 C-4.69 4.69 -2.38 2.38 0 0 Z " fill="#19235D" transform="translate(808,380)"/>
<path d="M0 0 C0 3.61656862 -1.02130767 5.0319615 -3 8 C-3.66 8.66 -4.32 9.32 -5 10 C-5.66 9.01 -6.32 8.02 -7 7 C-4.69 4.69 -2.38 2.38 0 0 Z " fill="#19235D" transform="translate(816,372)"/>
<path d="M0 0 C0 3.61656862 -1.02130767 5.0319615 -3 8 C-3.66 8.66 -4.32 9.32 -5 10 C-5.66 9.01 -6.32 8.02 -7 7 C-4.69 4.69 -2.38 2.38 0 0 Z " fill="#19235D" transform="translate(824,364)"/>
<path d="M0 0 C0 3.61656862 -1.02130767 5.0319615 -3 8 C-3.66 8.66 -4.32 9.32 -5 10 C-5.66 9.01 -6.32 8.02 -7 7 C-4.69 4.69 -2.38 2.38 0 0 Z " fill="#19235D" transform="translate(832,356)"/>
<path d="M0 0 C0 3.61656862 -1.02130767 5.0319615 -3 8 C-3.66 8.66 -4.32 9.32 -5 10 C-5.66 9.01 -6.32 8.02 -7 7 C-4.69 4.69 -2.38 2.38 0 0 Z " fill="#19235D" transform="translate(848,340)"/>
<path d="M0 0 C0 3.61656862 -1.02130767 5.0319615 -3 8 C-3.66 8.66 -4.32 9.32 -5 10 C-5.66 9.01 -6.32 8.02 -7 7 C-4.69 4.69 -2.38 2.38 0 0 Z " fill="#19235D" transform="translate(856,332)"/>
<path d="M0 0 C0 3.61656862 -1.02130767 5.0319615 -3 8 C-3.66 8.66 -4.32 9.32 -5 10 C-5.66 9.01 -6.32 8.02 -7 7 C-4.69 4.69 -2.38 2.38 0 0 Z " fill="#19235D" transform="translate(864,324)"/>
<path d="M0 0 C0 3.61656862 -1.02130767 5.0319615 -3 8 C-3.66 8.66 -4.32 9.32 -5 10 C-5.66 9.01 -6.32 8.02 -7 7 C-4.69 4.69 -2.38 2.38 0 0 Z " fill="#19235D" transform="translate(872,316)"/>
<path d="M0 0 C0 3.61656862 -1.02130767 5.0319615 -3 8 C-3.66 8.66 -4.32 9.32 -5 10 C-5.66 9.01 -6.32 8.02 -7 7 C-4.69 4.69 -2.38 2.38 0 0 Z " fill="#19235D" transform="translate(880,308)"/>
<path d="M0 0 C0 3.61656862 -1.02130767 5.0319615 -3 8 C-3.66 8.66 -4.32 9.32 -5 10 C-5.66 9.01 -6.32 8.02 -7 7 C-4.69 4.69 -2.38 2.38 0 0 Z " fill="#19235D" transform="translate(888,300)"/>
<path d="M0 0 C0 3.61656862 -1.02130767 5.0319615 -3 8 C-3.66 8.66 -4.32 9.32 -5 10 C-5.66 9.01 -6.32 8.02 -7 7 C-4.69 4.69 -2.38 2.38 0 0 Z " fill="#19235D" transform="translate(896,292)"/>
<path d="M0 0 C0 3.61656862 -1.02130767 5.0319615 -3 8 C-3.66 8.66 -4.32 9.32 -5 10 C-5.66 9.01 -6.32 8.02 -7 7 C-4.69 4.69 -2.38 2.38 0 0 Z " fill="#19235D" transform="translate(904,284)"/>
<path d="M0 0 C0 3.61656862 -1.02130767 5.0319615 -3 8 C-3.66 8.66 -4.32 9.32 -5 10 C-5.66 9.01 -6.32 8.02 -7 7 C-4.69 4.69 -2.38 2.38 0 0 Z " fill="#19235D" transform="translate(912,276)"/>
<path d="M0 0 C0 3.61656862 -1.02130767 5.0319615 -3 8 C-3.66 8.66 -4.32 9.32 -5 10 C-5.66 9.01 -6.32 8.02 -7 7 C-4.69 4.69 -2.38 2.38 0 0 Z " fill="#19235D" transform="translate(920,268)"/>
<path d="M0 0 C0 3.61656862 -1.02130767 5.0319615 -3 8 C-3.66 8.66 -4.32 9.32 -5 10 C-5.66 9.01 -6.32 8.02 -7 7 C-4.69 4.69 -2.38 2.38 0 0 Z " fill="#19235D" transform="translate(928,260)"/>
<path d="M0 0 C1.98 0.66 3.96 1.32 6 2 C3.6875 4.0625 3.6875 4.0625 1 6 C0.01 5.67 -0.98 5.34 -2 5 C-1.34 3.35 -0.68 1.7 0 0 Z " fill="#18225C" transform="translate(844,259)"/>
<path d="M0 0 C0 3.61656862 -1.02130767 5.0319615 -3 8 C-3.66 8.66 -4.32 9.32 -5 10 C-5.66 9.01 -6.32 8.02 -7 7 C-4.69 4.69 -2.38 2.38 0 0 Z " fill="#19235D" transform="translate(944,244)"/>
<path d="M0 0 C0 3.61656862 -1.02130767 5.0319615 -3 8 C-3.66 8.66 -4.32 9.32 -5 10 C-5.66 9.01 -6.32 8.02 -7 7 C-4.69 4.69 -2.38 2.38 0 0 Z " fill="#19235D" transform="translate(952,236)"/>
<path d="M0 0 C0 3.61656862 -1.02130767 5.0319615 -3 8 C-3.66 8.66 -4.32 9.32 -5 10 C-5.66 9.01 -6.32 8.02 -7 7 C-4.69 4.69 -2.38 2.38 0 0 Z " fill="#19235D" transform="translate(960,228)"/>
<path d="M0 0 C0 3.61656862 -1.02130767 5.0319615 -3 8 C-3.66 8.66 -4.32 9.32 -5 10 C-5.66 9.01 -6.32 8.02 -7 7 C-4.69 4.69 -2.38 2.38 0 0 Z " fill="#19235D" transform="translate(968,220)"/>
<path d="M0 0 C0 3.61656862 -1.02130767 5.0319615 -3 8 C-3.66 8.66 -4.32 9.32 -5 10 C-5.66 9.01 -6.32 8.02 -7 7 C-4.69 4.69 -2.38 2.38 0 0 Z " fill="#19235D" transform="translate(976,212)"/>
<path d="M0 0 C0 3.61656862 -1.02130767 5.0319615 -3 8 C-3.66 8.66 -4.32 9.32 -5 10 C-5.66 9.01 -6.32 8.02 -7 7 C-4.69 4.69 -2.38 2.38 0 0 Z " fill="#19235D" transform="translate(984,204)"/>
<path d="M0 0 C2.475 0.99 2.475 0.99 5 2 C2.94766315 4.2477975 1.99332739 5.0022242 -1 6 C-1.33 5.34 -1.66 4.68 -2 4 C-1.0625 1.875 -1.0625 1.875 0 0 Z " fill="#1B255E" transform="translate(941,203)"/>
<path d="M0 0 C0 3.61656862 -1.02130767 5.0319615 -3 8 C-3.66 8.66 -4.32 9.32 -5 10 C-5.66 9.01 -6.32 8.02 -7 7 C-4.69 4.69 -2.38 2.38 0 0 Z " fill="#19235D" transform="translate(992,196)"/>
<path d="M0 0 C0 3.61656862 -1.02130767 5.0319615 -3 8 C-3.66 8.66 -4.32 9.32 -5 10 C-5.66 9.01 -6.32 8.02 -7 7 C-4.69 4.69 -2.38 2.38 0 0 Z " fill="#19235D" transform="translate(1000,188)"/>
<path d="M0 0 C0 3.61656862 -1.02130767 5.0319615 -3 8 C-3.66 8.66 -4.32 9.32 -5 10 C-5.66 9.01 -6.32 8.02 -7 7 C-4.69 4.69 -2.38 2.38 0 0 Z " fill="#19235D" transform="translate(1008,180)"/>
<path d="M0 0 C3.3 0.33 6.6 0.66 10 1 C8 3 8 3 5.4375 3.1875 C3 3 3 3 2 2 C1.01 2.495 1.01 2.495 0 3 C0 2.01 0 1.02 0 0 Z " fill="#2F386E" transform="translate(285,1001)"/>
<path d="M0 0 C0.66 0.33 1.32 0.66 2 1 C2.33 1.99 2.66 2.98 3 4 C2.01 4.33 1.02 4.66 0 5 C-2.6875 3.5625 -2.6875 3.5625 -5 2 C-4.01 1.67 -3.02 1.34 -2 1 C-1.34 0.67 -0.68 0.34 0 0 Z " fill="#111E59" transform="translate(131,986)"/>
<path d="M0 0 C0.99 0 1.98 0 3 0 C2.67 1.32 2.34 2.64 2 4 C0.35 4.33 -1.3 4.66 -3 5 C-1.6875 2.5 -1.6875 2.5 0 0 Z " fill="#14205B" transform="translate(458,975)"/>
<path d="M0 0 C0.71929688 0.29003906 1.43859375 0.58007812 2.1796875 0.87890625 C2.90414062 1.16636719 3.62859375 1.45382812 4.375 1.75 C4.92929687 1.97816406 5.48359375 2.20632813 6.0546875 2.44140625 C4.3671875 3.56640625 4.3671875 3.56640625 2.0546875 4.44140625 C-0.6328125 3.69140625 -0.6328125 3.69140625 -2.9453125 2.44140625 C-3.2753125 1.78140625 -3.6053125 1.12140625 -3.9453125 0.44140625 C-1.9453125 -0.55859375 -1.9453125 -0.55859375 0 0 Z " fill="#16235B" transform="translate(979.9453125,769.55859375)"/>
<path d="M0 0 C1.98 0.66 3.96 1.32 6 2 C6 2.66 6 3.32 6 4 C3.69 4 1.38 4 -1 4 C-1.33 3.34 -1.66 2.68 -2 2 C-1.34 2 -0.68 2 0 2 C0 1.34 0 0.68 0 0 Z " fill="#12205A" transform="translate(827,704)"/>
<path d="M0 0 C1.32 0.66 2.64 1.32 4 2 C3.67 3.32 3.34 4.64 3 6 C2.01 6 1.02 6 0 6 C-1 3 -1 3 0 0 Z " fill="#16245D" transform="translate(770,679)"/>
<path d="M0 0 C1.32 0.66 2.64 1.32 4 2 C2.6875 3.5 2.6875 3.5 1 5 C0.01 5 -0.98 5 -2 5 C-2.33 4.01 -2.66 3.02 -3 2 C-2.01 1.34 -1.02 0.68 0 0 Z " fill="#111D59" transform="translate(773,626)"/>
<path d="M0 0 C0.556875 0.226875 1.11375 0.45375 1.6875 0.6875 C0.6975 2.1725 0.6975 2.1725 -0.3125 3.6875 C-3.9375 4.375 -3.9375 4.375 -7.3125 4.6875 C-7.3125 4.0275 -7.3125 3.3675 -7.3125 2.6875 C-3.15982824 -0.42700382 -3.15982824 -0.42700382 0 0 Z " fill="#1C275E" transform="translate(427.3125,457.3125)"/>
<path d="M0 0 C0.66 0.66 1.32 1.32 2 2 C0.68 3.65 -0.64 5.3 -2 7 C-2 6.34 -2 5.68 -2 5 C-2.66 4.67 -3.32 4.34 -4 4 C-2.68 2.68 -1.36 1.36 0 0 Z " fill="#17225D" transform="translate(951,379)"/>
<path d="M0 0 C0.33 0 0.66 0 1 0 C0.67 3.96 0.34 7.92 0 12 C-0.33 12 -0.66 12 -1 12 C-1.2226746 10.56465159 -1.42761906 9.12654475 -1.625 7.6875 C-1.74101563 6.88699219 -1.85703125 6.08648437 -1.9765625 5.26171875 C-2 3 -2 3 0 0 Z " fill="#19235D" transform="translate(1117,345)"/>
<path d="M0 0 C-1 3 -1 3 -2.875 4.1875 C-5 5 -5 5 -8 5 C-8 4.34 -8 3.68 -8 3 C-5.09451118 0.95830515 -3.59857954 0 0 0 Z " fill="#13215C" transform="translate(651,328)"/>
<path d="M0 0 C0.33 0.66 0.66 1.32 1 2 C1.66 2.33 2.32 2.66 3 3 C1.35 4.65 -0.3 6.3 -2 8 C-2.33 7.01 -2.66 6.02 -3 5 C-1.5625 2.3125 -1.5625 2.3125 0 0 Z " fill="#131F5B" transform="translate(1005,301)"/>
<path d="M0 0 C0.66 0.99 1.32 1.98 2 3 C1.34 3.66 0.68 4.32 0 5 C-2.33333333 5 -4.66666667 5 -7 5 C-2.25 1.125 -2.25 1.125 0 0 Z " fill="#1D2760" transform="translate(812,233)"/>
<path d="M0 0 C0.33 0.66 0.66 1.32 1 2 C0.67 2.66 0.34 3.32 0 4 C-0.66 4 -1.32 4 -2 4 C-2.33 4.99 -2.66 5.98 -3 7 C-4.32 6.01 -5.64 5.02 -7 4 C-4.69 2.68 -2.38 1.36 0 0 Z " fill="#1E2A62" transform="translate(848,212)"/>
<path d="M0 0 C1.32 0.33 2.64 0.66 4 1 C2.515 3.475 2.515 3.475 1 6 C0.01 5.34 -0.98 4.68 -2 4 C-2 3.34 -2 2.68 -2 2 C-1.34 2 -0.68 2 0 2 C0 1.34 0 0.68 0 0 Z " fill="#121F5B" transform="translate(1068,212)"/>
<path d="M0 0 C0 1.65 0 3.3 0 5 C-1.65 5.33 -3.3 5.66 -5 6 C-5.33 5.01 -5.66 4.02 -6 3 C-1.125 0 -1.125 0 0 0 Z " fill="#18255E" transform="translate(868,201)"/>
<path d="M0 0 C0.66 1.32 1.32 2.64 2 4 C1.34 4 0.68 4 0 4 C-0.66 5.98 -1.32 7.96 -2 10 C-2.33 10 -2.66 10 -3 10 C-3 8.02 -3 6.04 -3 4 C-2.34 3.67 -1.68 3.34 -1 3 C-0.67 2.01 -0.34 1.02 0 0 Z " fill="#16215D" transform="translate(349,1014)"/>
<path d="M0 0 C0.66 0.33 1.32 0.66 2 1 C1.45773019 4.79588866 -0.20127563 6.47211993 -3 9 C-2.44271087 5.65626525 -1.64826111 2.96687001 0 0 Z " fill="#152159" transform="translate(740,851)"/>
<path d="M0 0 C0.99 0 1.98 0 3 0 C2.67 2.31 2.34 4.62 2 7 C1.01 7.33 0.02 7.66 -1 8 C-0.67 5.36 -0.34 2.72 0 0 Z " fill="#29336B" transform="translate(673,742)"/>
<path d="M0 0 C0.99 0.33 1.98 0.66 3 1 C2.34 2.65 1.68 4.3 1 6 C-0.32 5.67 -1.64 5.34 -3 5 C-3 4.01 -3 3.02 -3 2 C-2.01 1.34 -1.02 0.68 0 0 Z " fill="#1D2960" transform="translate(748,664)"/>
<path d="M0 0 C0.66 1.32 1.32 2.64 2 4 C1.01 4 0.02 4 -1 4 C-0.67 4.99 -0.34 5.98 0 7 C-0.99 7.495 -0.99 7.495 -2 8 C-2.66 7.67 -3.32 7.34 -4 7 C-2.79618552 4.50638429 -1.54571278 2.31856917 0 0 Z " fill="#19235C" transform="translate(739,605)"/>
<path d="M0 0 C0.99 0.33 1.98 0.66 3 1 C2.01 2.98 1.02 4.96 0 7 C-2 4 -2 4 -2 1 C-1.34 0.67 -0.68 0.34 0 0 Z " fill="#132059" transform="translate(796,595)"/>
<path d="M0 0 C0.99 0.66 1.98 1.32 3 2 C1.71937515 3.7074998 0.38232443 5.37373596 -1 7 C-1.66 7 -2.32 7 -3 7 C-2.38722388 4.03824877 -1.74627478 2.61941217 0 0 Z " fill="#15215B" transform="translate(852,517)"/>
<path d="M0 0 C0.99 0.33 1.98 0.66 3 1 C3.6875 3.0625 3.6875 3.0625 4 5 C1.69 5 -0.62 5 -3 5 C-2.01 3.35 -1.02 1.7 0 0 Z " fill="#17235D" transform="translate(827,482)"/>
<path d="M0 0 C0.99 0.33 1.98 0.66 3 1 C2.67 2.32 2.34 3.64 2 5 C1.01 5 0.02 5 -1 5 C-1 5.66 -1 6.32 -1 7 C-1.99 6.67 -2.98 6.34 -4 6 C-2.68 4.02 -1.36 2.04 0 0 Z " fill="#1C295F" transform="translate(873,417)"/>
<path d="M0 0 C1.32 0.66 2.64 1.32 4 2 C0.04 3.98 0.04 3.98 -4 6 C-4 5.01 -4 4.02 -4 3 C-2 1.3125 -2 1.3125 0 0 Z " fill="#1D295E" transform="translate(700,345)"/>
<path d="M0 0 C0.33 0.66 0.66 1.32 1 2 C1.66 2.33 2.32 2.66 3 3 C3 3.66 3 4.32 3 5 C1.02 5.99 1.02 5.99 -1 7 C-1.66 5.68 -2.32 4.36 -3 3 C-2.01 2.01 -1.02 1.02 0 0 Z " fill="#13205A" transform="translate(766,304)"/>
<path d="M0 0 C0.33 1.32 0.66 2.64 1 4 C-3.75 5 -3.75 5 -6 5 C-6 4.34 -6 3.68 -6 3 C-4.02 2.01 -2.04 1.02 0 0 Z " fill="#1B2560" transform="translate(1089,73)"/>
<path d="M0 0 C0.99 0.33 1.98 0.66 3 1 C1.75023244 4.65316671 1.32901247 5.78065836 -2 8 C-2 7.01 -2 6.02 -2 5 C-1.34 5 -0.68 5 0 5 C-0.2784375 4.0409375 -0.2784375 4.0409375 -0.5625 3.0625 C-0.7790625 2.0415625 -0.7790625 2.0415625 -1 1 C-0.67 0.67 -0.34 0.34 0 0 Z " fill="#1A265D" transform="translate(715,884)"/>
<path d="M0 0 C1.65 0.33 3.3 0.66 5 1 C3.02 3.97 3.02 3.97 1 7 C-1 4 -1 4 -0.625 1.8125 C-0.41875 1.214375 -0.2125 0.61625 0 0 Z " fill="#17235D" transform="translate(746,841)"/>
<path d="M0 0 C0.99 0 1.98 0 3 0 C2.3125 2.4375 2.3125 2.4375 1 5 C-1.625 5.8125 -1.625 5.8125 -4 6 C-2.1875 3 -2.1875 3 0 0 Z " fill="#1A255F" transform="translate(769,563)"/>
<path d="M0 0 C-0.3125 1.9375 -0.3125 1.9375 -1 4 C-1.99 4.33 -2.98 4.66 -4 5 C-4.99 4.34 -5.98 3.68 -7 3 C-2.25 0 -2.25 0 0 0 Z " fill="#1C2660" transform="translate(386,481)"/>
<path d="M0 0 C0.66 0 1.32 0 2 0 C0.8141763 3.37503669 -0.27573689 5.64722731 -3 8 C-3.33 6.68 -3.66 5.36 -4 4 C-3.34 4 -2.68 4 -2 4 C-2 3.34 -2 2.68 -2 2 C-1.34 2 -0.68 2 0 2 C0 1.34 0 0.68 0 0 Z " fill="#18245C" transform="translate(937,399)"/>
<path d="M0 0 C0.66 0 1.32 0 2 0 C0.47291037 3.43595166 -1.59927045 6.11912454 -4 9 C-4.66 8.67 -5.32 8.34 -6 8 C-5.04956626 6.66102417 -4.08940853 5.32894573 -3.125 4 C-2.59132813 3.2575 -2.05765625 2.515 -1.5078125 1.75 C-1.01023437 1.1725 -0.51265625 0.595 0 0 Z " fill="#1D285B" transform="translate(913,362)"/>
<path d="M0 0 C0.33 0 0.66 0 1 0 C1 3.3 1 6.6 1 10 C0.01 9.01 -0.98 8.02 -2 7 C-1.34 4.69 -0.68 2.38 0 0 Z " fill="#111E58" transform="translate(1115,352)"/>
<path d="M0 0 C0.33 0.66 0.66 1.32 1 2 C0.67 2.99 0.34 3.98 0 5 C-1.65 5 -3.3 5 -5 5 C-4 2 -4 2 -1.9375 0.8125 C-1.298125 0.544375 -0.65875 0.27625 0 0 Z " fill="#19245F" transform="translate(662,320)"/>
<path d="M0 0 C0.66 0 1.32 0 2 0 C1.67 2.64 1.34 5.28 1 8 C0.67 7.01 0.34 6.02 0 5 C-0.66 5 -1.32 5 -2 5 C-1.34 3.35 -0.68 1.7 0 0 Z " fill="#192460" transform="translate(1140,211)"/>
<path d="M0 0 C0.66 0.33 1.32 0.66 2 1 C0.35 2.65 -1.3 4.3 -3 6 C-3.66 5.67 -4.32 5.34 -5 5 C-5 4.34 -5 3.68 -5 3 C-2.625 1.3125 -2.625 1.3125 0 0 Z " fill="#18245D" transform="translate(855,208)"/>
<path d="M0 0 C2.97 0.495 2.97 0.495 6 1 C6 2.32 6 3.64 6 5 C4.02 4.01 2.04 3.02 0 2 C0 1.34 0 0.68 0 0 Z " fill="#14215B" transform="translate(1088,178)"/>
<path d="M0 0 C0.66 0.99 1.32 1.98 2 3 C-1.75 6 -1.75 6 -4 6 C-4 5.01 -4 4.02 -4 3 C-2 1.3125 -2 1.3125 0 0 Z " fill="#1E2860" transform="translate(523,985)"/>
<path d="M0 0 C0.99 0.33 1.98 0.66 3 1 C3 2.32 3 3.64 3 5 C1.35 4.67 -0.3 4.34 -2 4 C-1.34 2.68 -0.68 1.36 0 0 Z " fill="#18255D" transform="translate(997,820)"/>
<path d="M0 0 C3 1 3 1 4.1875 3.0625 C4.455625 3.701875 4.72375 4.34125 5 5 C2.69 4.34 0.38 3.68 -2 3 C-2 2.34 -2 1.68 -2 1 C-1.34 0.67 -0.68 0.34 0 0 Z " fill="#1A2662" transform="translate(875,769)"/>
<path d="M0 0 C0.91058531 3.07322544 1.08886184 5.80097361 1 9 C0.34 9 -0.32 9 -1 9 C-1.625 6.1875 -1.625 6.1875 -2 3 C-1.34 2.01 -0.68 1.02 0 0 Z " fill="#F4F4F4" transform="translate(613,658)"/>
<path d="M0 0 C0.66 0.33 1.32 0.66 2 1 C1.34 2.98 0.68 4.96 0 7 C-1.32 7 -2.64 7 -4 7 C-2.79618552 4.50638429 -1.54571278 2.31856917 0 0 Z " fill="#E3E6ED" transform="translate(876,488)"/>
<path d="M0 0 C0.66 0.99 1.32 1.98 2 3 C0.02 3.99 -1.96 4.98 -4 6 C-4.33 5.34 -4.66 4.68 -5 4 C-4.67 3.34 -4.34 2.68 -4 2 C-2.68 2 -1.36 2 0 2 C0 1.34 0 0.68 0 0 Z " fill="#19265F" transform="translate(517,451)"/>
<path d="M0 0 C-1.29299694 2.88437779 -2.65941363 4.87219421 -5 7 C-4.625 4.0625 -4.625 4.0625 -4 1 C-2 0 -2 0 0 0 Z " fill="#16205A" transform="translate(910,440)"/>
<path d="M0 0 C0.66 0.33 1.32 0.66 2 1 C1.34 2.32 0.68 3.64 0 5 C-1.65 4.67 -3.3 4.34 -5 4 C-3.36587557 2.29159719 -2.13093906 1.06546953 0 0 Z " fill="#E8EBEF" transform="translate(564,427)"/>
<path d="M0 0 C0.66 0.33 1.32 0.66 2 1 C1.360625 1.268125 0.72125 1.53625 0.0625 1.8125 C-2.33131686 2.88667752 -2.33131686 2.88667752 -3 6 C-4.32 5.34 -5.64 4.68 -7 4 C-1.7265625 0.77734375 -1.7265625 0.77734375 0 0 Z " fill="#E7EBEE" transform="translate(600,406)"/>
<path d="M0 0 C2 2 2 2 2.125 4.625 C2.08375 5.40875 2.0425 6.1925 2 7 C1.01 7.33 0.02 7.66 -1 8 C-0.67 5.36 -0.34 2.72 0 0 Z " fill="#2E386D" transform="translate(1066,389)"/>
<path d="M0 0 C2.1387261 3.20808915 2.47730962 4.27698497 2 8 C1.01 8.66 0.02 9.32 -1 10 C-0.67 6.7 -0.34 3.4 0 0 Z " fill="#222C61" transform="translate(1075,338)"/>
<path d="M0 0 C1.875 0.3125 1.875 0.3125 4 1 C4.66 1.99 5.32 2.98 6 4 C5.01 4.495 5.01 4.495 4 5 C1.375 3.5625 1.375 3.5625 -1 2 C-0.67 1.34 -0.34 0.68 0 0 Z " fill="#13205B" transform="translate(1010,289)"/>
<path d="M0 0 C0.66 0 1.32 0 2 0 C2.6875 1.8125 2.6875 1.8125 3 4 C1.5625 5.75 1.5625 5.75 0 7 C0 5.68 0 4.36 0 3 C-0.66 2.67 -1.32 2.34 -2 2 C-1.34 1.34 -0.68 0.68 0 0 Z " fill="#12205A" transform="translate(1051,235)"/>
<path d="M0 0 C0.33 0 0.66 0 1 0 C1 1.98 1 3.96 1 6 C-1 6 -3 6 -5 6 C-3.35830472 3.97945196 -1.69088222 1.97956942 0 0 Z " fill="#E4E7EE" transform="translate(1104,168)"/>
<path d="M0 0 C2.4375 0.375 2.4375 0.375 5 1 C5.33 1.66 5.66 2.32 6 3 C4.35 3.33 2.7 3.66 1 4 C0.67 2.68 0.34 1.36 0 0 Z " fill="#18265C" transform="translate(1156,48)"/>
</svg>
