<?xml version="1.0" encoding="UTF-8"?>
<!DOCTYPE svg PUBLIC "-//W3C//DTD SVG 1.1//EN" "http://www.w3.org/Graphics/SVG/1.1/DTD/svg11.dtd">
<svg xmlns="http://www.w3.org/2000/svg" version="1.1" width="1270px" height="1158px" style="shape-rendering:geometricPrecision; text-rendering:geometricPrecision; image-rendering:optimizeQuality; fill-rule:evenodd; clip-rule:evenodd" xmlns:xlink="http://www.w3.org/1999/xlink">
<g><path style="opacity:1" fill="#fefefe" d="M -0.5,-0.5 C 422.833,-0.5 846.167,-0.5 1269.5,-0.5C 1269.5,385.5 1269.5,771.5 1269.5,1157.5C 846.167,1157.5 422.833,1157.5 -0.5,1157.5C -0.5,771.5 -0.5,385.5 -0.5,-0.5 Z"/></g>
<g><path style="opacity:1" fill="#091754" d="M 1140.5,43.5 C 1153.96,42.2962 1162.79,47.9629 1167,60.5C 1167.67,66.5 1167.67,72.5 1167,78.5C 1165.16,83.0108 1163.83,87.6775 1163,92.5C 1120.61,334.243 1077.94,575.91 1035,817.5C 1029.45,826.795 1021.28,830.962 1010.5,830C 947.459,803.264 884.459,776.431 821.5,749.5C 777.455,806.718 733.955,864.384 691,922.5C 678.685,935.763 666.352,935.763 654,922.5C 652.209,919.007 650.876,915.341 650,911.5C 647.173,908.671 645.173,905.337 644,901.5C 616.643,817.762 588.31,734.428 559,651.5C 475.772,622.757 392.272,594.59 308.5,567C 298.949,563.08 293.949,555.913 293.5,545.5C 293.815,539.375 296.149,534.208 300.5,530C 580.431,367.54 860.431,205.374 1140.5,43.5 Z"/></g>
<g><path style="opacity:1" fill="#fdfdfd" d="M 1028.5,157.5 C 1029.24,157.369 1029.91,157.536 1030.5,158C 879.833,308.667 729.167,459.333 578.5,610C 508.281,587.76 438.281,564.594 368.5,540.5C 588.89,413.312 808.89,285.645 1028.5,157.5 Z"/></g>
<g><path style="opacity:1" fill="#fefefe" d="M 1104.5,167.5 C 1105.12,167.917 1105.46,168.584 1105.5,169.5C 1069.39,372.324 1033.39,574.991 997.5,777.5C 913.862,741.796 830.528,705.629 747.5,669C 866.704,501.965 985.704,334.798 1104.5,167.5 Z"/></g>
<g><path style="opacity:1" fill="#fdfdfd" d="M 973.5,275.5 C 974.525,275.897 974.692,276.563 974,277.5C 883.755,402.99 793.755,528.657 704,654.5C 697.768,657.398 692.768,661.731 689,667.5C 679.08,715.1 669.413,762.767 660,810.5C 641.452,755.19 623.119,699.856 605,644.5C 728.035,521.632 850.868,398.632 973.5,275.5 Z"/></g>
<g><path style="opacity:1" fill="#fbfbfc" d="M 724.5,707.5 C 742.665,715.746 760.998,723.746 779.5,731.5C 753.243,767.012 726.743,802.346 700,837.5C 699.333,835.5 699.333,833.5 700,831.5C 708.874,790.295 717.041,748.962 724.5,707.5 Z"/></g>
<g><path style="opacity:1" fill="#0e1a56" d="M 641.5,741.5 C 645.536,742.02 648.703,744.02 651,747.5C 652.583,752.1 651.083,753.934 646.5,753C 644.333,750.833 642.167,748.667 640,746.5C 639.387,744.505 639.887,742.838 641.5,741.5 Z"/></g>
<g><path style="opacity:1" fill="#091754" d="M 98.5,925.5 C 104.311,924.774 109.645,925.941 114.5,929C 134.628,942.415 155.294,955.082 176.5,967C 185.623,975.864 186.79,985.697 180,996.5C 174.22,1003.87 166.72,1006.7 157.5,1005C 132.507,992.511 108.84,978.011 86.5,961.5C 77.5208,945.104 81.5208,933.104 98.5,925.5 Z"/></g>
<g><path style="opacity:1" fill="#091754" d="M 508.5,947.5 C 524.138,946.812 533.138,954.146 535.5,969.5C 535.264,973.779 534.097,977.779 532,981.5C 528.035,985.315 523.702,988.649 519,991.5C 507.521,997.489 496.021,1003.32 484.5,1009C 468.926,1013.8 458.426,1008.63 453,993.5C 451.879,984.198 455.046,976.698 462.5,971C 478.341,963.914 493.674,956.081 508.5,947.5 Z"/></g>
<g><path style="opacity:1" fill="#0b1855" d="M 256.5,997.5 C 270.525,999.003 284.525,1000.84 298.5,1003C 311.167,1003.33 323.833,1003.67 336.5,1004C 350.034,1009.57 354.534,1019.41 350,1033.5C 346.398,1041.43 340.231,1045.93 331.5,1047C 303.83,1048.59 276.663,1045.76 250,1038.5C 240.799,1032.25 237.466,1023.58 240,1012.5C 243.19,1004.84 248.69,999.843 256.5,997.5 Z"/></g>
</svg>
