<?xml version="1.0" encoding="UTF-8"?>
<!DOCTYPE svg PUBLIC "-//W3C//DTD SVG 1.1//EN" "http://www.w3.org/Graphics/SVG/1.1/DTD/svg11.dtd">
<svg xmlns="http://www.w3.org/2000/svg" version="1.1" style="shape-rendering:geometricPrecision; text-rendering:geometricPrecision; image-rendering:optimizeQuality; fill-rule:evenodd; clip-rule:evenodd" xmlns:xlink="http://www.w3.org/1999/xlink">
<g><path style="opacity:1" fill="#081754" d="M -0.5,-0.5 C 422.833,-0.5 846.167,-0.5 1269.5,-0.5C 1269.5,385.5 1269.5,771.5 1269.5,1157.5C 846.167,1157.5 422.833,1157.5 -0.5,1157.5C -0.5,771.5 -0.5,385.5 -0.5,-0.5 Z"/></g>
<g><path style="opacity:1" fill="#fdfdfd" d="M 1140.5,43.5 C 1163.24,44.2351 1172.07,55.9017 1167,78.5C 1164.51,84.901 1162.84,91.5677 1162,98.5C 1119.85,338.199 1077.52,577.866 1035,817.5C 1028.34,828.387 1018.84,832.221 1006.5,829C 944.833,802.5 883.167,776 821.5,749.5C 777.506,807.668 733.672,866.001 690,924.5C 680.986,933.282 670.819,934.782 659.5,929C 654.379,924.26 651.212,918.427 650,911.5C 647.597,909.695 645.93,907.362 645,904.5C 617.667,822.5 590.333,740.5 563,658.5C 560.938,656.099 559.271,653.433 558,650.5C 474.957,622.485 391.79,594.652 308.5,567C 298.949,563.08 293.949,555.913 293.5,545.5C 294.05,537.456 297.717,531.289 304.5,527C 583.13,365.526 861.797,204.36 1140.5,43.5 Z"/></g>
<g><path style="opacity:1" fill="#777ea0" d="M 1027.5,160.5 C 1027.5,160.167 1027.5,159.833 1027.5,159.5C 1028,157.915 1029,157.415 1030.5,158C 1029.63,159.045 1028.63,159.878 1027.5,160.5 Z"/></g>
<g><path style="opacity:1" fill="#081754" d="M 1027.5,159.5 C 1027.5,159.833 1027.5,160.167 1027.5,160.5C 877.179,310.321 727.013,460.321 577,610.5C 507.615,587.65 438.448,564.316 369.5,540.5C 588.561,412.971 807.894,285.971 1027.5,159.5 Z"/></g>
<g><path style="opacity:1" fill="#081754" d="M 1104.5,167.5 C 1069.32,371.036 1033.66,574.369 997.5,777.5C 913.989,741.574 830.656,705.407 747.5,669C 866.744,501.936 985.744,334.769 1104.5,167.5 Z"/></g>
<g><path style="opacity:1" fill="#091754" d="M 973.5,275.5 C 974.525,275.897 974.692,276.563 974,277.5C 883.612,402.888 793.612,528.555 704,654.5C 695.612,657.953 689.945,663.953 687,672.5C 678.129,717.854 669.129,763.187 660,808.5C 641.048,753.978 622.715,699.311 605,644.5C 728.035,521.632 850.868,398.632 973.5,275.5 Z"/></g>
<g><path style="opacity:1" fill="#091754" d="M 724.5,707.5 C 742.244,715.704 760.244,723.371 778.5,730.5C 778.649,731.552 778.483,732.552 778,733.5C 752,768.167 726,802.833 700,837.5C 708.051,794.203 716.217,750.87 724.5,707.5 Z"/></g>
<g><path style="opacity:1" fill="#ececf2" d="M 640.5,741.5 C 642.199,741.34 643.866,741.506 645.5,742C 647.667,744.167 649.833,746.333 652,748.5C 652.165,752.977 649.998,754.477 645.5,753C 640.866,750.251 639.199,746.418 640.5,741.5 Z"/></g>
<g><path style="opacity:1" fill="#fbfbfc" d="M 98.5,925.5 C 104.563,924.838 110.23,926.004 115.5,929C 135.97,942.792 156.97,955.792 178.5,968C 185.739,977.538 186.239,987.372 180,997.5C 173.495,1004.01 165.661,1006.51 156.5,1005C 133.041,993.442 110.708,980.109 89.5,965C 80.7847,955.945 79.2847,945.778 85,934.5C 88.8258,930.348 93.3258,927.348 98.5,925.5 Z"/></g>
<g><path style="opacity:1" fill="#fbfbfc" d="M 509.5,947.5 C 527.819,947.317 536.319,956.317 535,974.5C 533.777,978.615 531.777,982.282 529,985.5C 513.975,995.097 498.142,1003.26 481.5,1010C 462.177,1012.34 452.677,1003.84 453,984.5C 454.616,979.221 457.449,974.721 461.5,971C 477.741,963.378 493.741,955.545 509.5,947.5 Z"/></g>
<g><path style="opacity:1" fill="#fdfdfd" d="M 255.5,997.5 C 270.462,999.549 285.462,1001.38 300.5,1003C 313.88,1003.1 327.213,1003.76 340.5,1005C 350.274,1011.64 353.774,1020.81 351,1032.5C 347.774,1041.06 341.608,1045.89 332.5,1047C 305.579,1047.84 278.912,1045.51 252.5,1040C 239.615,1032.34 236.115,1021.51 242,1007.5C 245.767,1003.05 250.267,999.714 255.5,997.5 Z"/></g>
</svg>
