<?xml version="1.0" standalone="no"?>
<!DOCTYPE svg PUBLIC "-//W3C//DTD SVG 20010904//EN"
 "http://www.w3.org/TR/2001/REC-SVG-20010904/DTD/svg10.dtd">
<svg version="1.0" xmlns="http://www.w3.org/2000/svg"
 width="134.000000pt" height="88.000000pt" viewBox="0 0 134.000000 88.000000"
 preserveAspectRatio="xMidYMid meet">

<g transform="translate(0.000000,88.000000) scale(0.100000,-0.100000)"
fill="#000000" stroke="none">
<path d="M440 742 c-42 -21 -80 -75 -80 -114 0 -73 63 -138 134 -138 142 0
189 188 62 250 -52 25 -71 25 -116 2z"/>
<path d="M830 753 c-64 -20 -100 -68 -100 -129 0 -77 60 -134 141 -134 35 0
48 6 80 39 35 34 39 44 39 87 0 96 -80 164 -160 137z"/>
<path d="M385 379 c-75 -17 -145 -51 -175 -85 -27 -32 -30 -41 -30 -104 l0
-70 315 0 315 0 0 70 c0 86 -15 112 -81 146 -95 48 -242 66 -344 43z"/>
<path d="M852 364 c41 -44 58 -95 58 -174 l0 -70 135 0 135 0 0 70 c0 65 -2
73 -32 106 -42 45 -147 84 -248 91 l-75 6 27 -29z"/>
</g>
</svg>
